<svg width="100" height="90" viewBox="0 0 100 90" fill="none" xmlns="http://www.w3.org/2000/svg">
<rect width="100" height="89.3333" fill="white"/>
<path d="M70.122 17H34.622V52.5H70.122V17Z" stroke="black" stroke-width="0.5"/>
<path d="M64.122 23H28.622V58.5H64.122V23Z" stroke="black" stroke-width="0.5"/>
<path d="M67.122 20H31.622V55.5H67.122V20Z" stroke="black" stroke-width="0.5"/>
<path d="M39.718 66.95H40.888V73.25H39.718V66.95ZM49.54 66.95V73.25H48.577L45.103 68.984V73.25H43.942V66.95H44.905L48.379 71.216V66.95H49.54ZM53.8562 67.94H51.7682V66.95H57.1142V67.94H55.0262V73.25H53.8562V67.94ZM59.3042 73.313C59.1002 73.313 58.9262 73.244 58.7822 73.106C58.6382 72.962 58.5662 72.782 58.5662 72.566C58.5662 72.344 58.6352 72.164 58.7732 72.026C58.9172 71.888 59.0942 71.819 59.3042 71.819C59.5142 71.819 59.6882 71.888 59.8262 72.026C59.9702 72.164 60.0422 72.344 60.0422 72.566C60.0422 72.782 59.9702 72.962 59.8262 73.106C59.6822 73.244 59.5082 73.313 59.3042 73.313Z" fill="black"/>
<path d="M83.888 43.37C83.04 43.37 82.272 43.186 81.584 42.818C80.904 42.442 80.368 41.926 79.976 41.27C79.592 40.614 79.4 39.874 79.4 39.05C79.4 38.226 79.596 37.486 79.988 36.83C80.38 36.174 80.916 35.662 81.596 35.294C82.284 34.918 83.052 34.73 83.9 34.73C84.588 34.73 85.216 34.85 85.784 35.09C86.352 35.33 86.832 35.678 87.224 36.134L86.216 37.082C85.608 36.426 84.86 36.098 83.972 36.098C83.396 36.098 82.88 36.226 82.424 36.482C81.968 36.73 81.612 37.078 81.356 37.526C81.1 37.974 80.972 38.482 80.972 39.05C80.972 39.618 81.1 40.126 81.356 40.574C81.612 41.022 81.968 41.374 82.424 41.63C82.88 41.878 83.396 42.002 83.972 42.002C84.86 42.002 85.608 41.67 86.216 41.006L87.224 41.966C86.832 42.422 86.348 42.77 85.772 43.01C85.204 43.25 84.576 43.37 83.888 43.37Z" fill="black"/>
<path d="M17.952 38.882C18.416 39.034 18.784 39.29 19.056 39.65C19.328 40.002 19.464 40.442 19.464 40.97C19.464 41.698 19.184 42.262 18.624 42.662C18.064 43.054 17.248 43.25 16.176 43.25H12V34.85H15.936C16.928 34.85 17.692 35.046 18.228 35.438C18.764 35.822 19.032 36.354 19.032 37.034C19.032 37.45 18.936 37.818 18.744 38.138C18.552 38.458 18.288 38.706 17.952 38.882ZM13.56 36.074V38.39H15.768C16.312 38.39 16.728 38.294 17.016 38.102C17.312 37.902 17.46 37.614 17.46 37.238C17.46 36.854 17.312 36.566 17.016 36.374C16.728 36.174 16.312 36.074 15.768 36.074H13.56ZM16.08 42.026C17.288 42.026 17.892 41.622 17.892 40.814C17.892 40.006 17.288 39.602 16.08 39.602H13.56V42.026H16.08Z" fill="black"/>
<path d="M50.728 37.61C51.7093 37.77 52.4613 38.138 52.984 38.714C53.5067 39.2793 53.768 39.9833 53.768 40.826C53.768 41.4767 53.5973 42.0793 53.256 42.634C52.9147 43.178 52.392 43.6153 51.688 43.946C50.9947 44.2767 50.1413 44.442 49.128 44.442C48.3387 44.442 47.56 44.3407 46.792 44.138C46.0347 43.9247 45.3893 43.626 44.856 43.242L45.864 41.258C46.2907 41.578 46.7813 41.8287 47.336 42.01C47.9013 42.1807 48.4773 42.266 49.064 42.266C49.7147 42.266 50.2267 42.1433 50.6 41.898C50.9733 41.642 51.16 41.2847 51.16 40.826C51.16 39.9087 50.4613 39.45 49.064 39.45H47.88V37.738L50.184 35.13H45.416V33.05H53.256V34.73L50.728 37.61Z" fill="black"/>
</svg>
