<svg width="77" height="59" viewBox="0 0 77 59" fill="none" xmlns="http://www.w3.org/2000/svg">
<path d="M59.25 0.75H23.75V36.25H59.25V0.75Z" stroke="#A7A5A5" stroke-width="0.5"/>
<path d="M53.25 6.75H17.75V42.25H53.25V6.75Z" stroke="#A7A5A5" stroke-width="0.5"/>
<path d="M56.25 3.75H20.75V39.25H56.25V3.75Z" stroke="#A7A5A5" stroke-width="0.5"/>
<path d="M28.846 50.7H30.016V57H28.846V50.7ZM38.668 50.7V57H37.705L34.231 52.734V57H33.07V50.7H34.033L37.507 54.966V50.7H38.668ZM42.9842 51.69H40.8962V50.7H46.2422V51.69H44.1542V57H42.9842V51.69ZM48.4322 57.063C48.2282 57.063 48.0542 56.994 47.9102 56.856C47.7662 56.712 47.6942 56.532 47.6942 56.316C47.6942 56.094 47.7632 55.914 47.9012 55.776C48.0452 55.638 48.2222 55.569 48.4322 55.569C48.6422 55.569 48.8162 55.638 48.9542 55.776C49.0982 55.914 49.1702 56.094 49.1702 56.316C49.1702 56.532 49.0982 56.712 48.9542 56.856C48.8102 56.994 48.6362 57.063 48.4322 57.063Z" fill="#A7A5A5"/>
<path d="M73.016 27.12C72.168 27.12 71.4 26.936 70.712 26.568C70.032 26.192 69.496 25.676 69.104 25.02C68.72 24.364 68.528 23.624 68.528 22.8C68.528 21.976 68.724 21.236 69.116 20.58C69.508 19.924 70.044 19.412 70.724 19.044C71.412 18.668 72.18 18.48 73.028 18.48C73.716 18.48 74.344 18.6 74.912 18.84C75.48 19.08 75.96 19.428 76.352 19.884L75.344 20.832C74.736 20.176 73.988 19.848 73.1 19.848C72.524 19.848 72.008 19.976 71.552 20.232C71.096 20.48 70.74 20.828 70.484 21.276C70.228 21.724 70.1 22.232 70.1 22.8C70.1 23.368 70.228 23.876 70.484 24.324C70.74 24.772 71.096 25.124 71.552 25.38C72.008 25.628 72.524 25.752 73.1 25.752C73.988 25.752 74.736 25.42 75.344 24.756L76.352 25.716C75.96 26.172 75.476 26.52 74.9 26.76C74.332 27 73.704 27.12 73.016 27.12Z" fill="#A7A5A5"/>
<path d="M7.08 22.632C7.544 22.784 7.912 23.04 8.184 23.4C8.456 23.752 8.592 24.192 8.592 24.72C8.592 25.448 8.312 26.012 7.752 26.412C7.192 26.804 6.376 27 5.304 27H1.128V18.6H5.064C6.056 18.6 6.82 18.796 7.356 19.188C7.892 19.572 8.16 20.104 8.16 20.784C8.16 21.2 8.064 21.568 7.872 21.888C7.68 22.208 7.416 22.456 7.08 22.632ZM2.688 19.824V22.14H4.896C5.44 22.14 5.856 22.044 6.144 21.852C6.44 21.652 6.588 21.364 6.588 20.988C6.588 20.604 6.44 20.316 6.144 20.124C5.856 19.924 5.44 19.824 4.896 19.824H2.688ZM5.208 25.776C6.416 25.776 7.02 25.372 7.02 24.564C7.02 23.756 6.416 23.352 5.208 23.352H2.688V25.776H5.208Z" fill="#A7A5A5"/>
<path d="M39.856 21.36C40.8373 21.52 41.5893 21.888 42.112 22.464C42.6347 23.0293 42.896 23.7333 42.896 24.576C42.896 25.2267 42.7253 25.8293 42.384 26.384C42.0427 26.928 41.52 27.3653 40.816 27.696C40.1227 28.0267 39.2693 28.192 38.256 28.192C37.4667 28.192 36.688 28.0907 35.92 27.888C35.1627 27.6747 34.5173 27.376 33.984 26.992L34.992 25.008C35.4187 25.328 35.9093 25.5787 36.464 25.76C37.0293 25.9307 37.6053 26.016 38.192 26.016C38.8427 26.016 39.3547 25.8933 39.728 25.648C40.1013 25.392 40.288 25.0347 40.288 24.576C40.288 23.6587 39.5893 23.2 38.192 23.2H37.008V21.488L39.312 18.88H34.544V16.8H42.384V18.48L39.856 21.36Z" fill="#A7A5A5"/>
</svg>
