<svg width="1014" height="633" viewBox="0 0 1014 633" fill="none" xmlns="http://www.w3.org/2000/svg">
<g clip-path="url(#clip0)">
<path d="M288.537 630.492C276.05 630.492 264.074 625.531 255.244 616.701C246.415 607.871 241.454 595.896 241.454 583.408V407.097C241.454 404.604 241.962 402.138 242.946 399.848C243.931 397.558 245.372 395.493 247.18 393.779L451.104 200.476C459.165 192.835 469.848 188.576 480.954 188.576C492.06 188.576 502.744 192.835 510.804 200.476L705.235 384.78C710.042 389.337 713.871 394.826 716.488 400.912C719.105 406.998 720.454 413.553 720.454 420.177V583.408C720.454 589.591 719.236 595.714 716.87 601.426C714.504 607.139 711.036 612.329 706.664 616.701C702.292 621.073 697.101 624.541 691.389 626.908C685.677 629.274 679.554 630.492 673.371 630.492H288.537Z" fill="#F2F2F2" stroke="black"/>
<path opacity="0.1" d="M240.954 409.992H716.954V602.259C716.954 609.88 713.927 617.188 708.539 622.576C703.15 627.964 695.842 630.992 688.222 630.992H269.686C262.066 630.992 254.758 627.964 249.37 622.576C243.981 617.188 240.954 609.88 240.954 602.259V409.992V409.992Z" fill="black"/>
<path d="M329.635 258.992H631.273C645.456 258.992 656.954 270.489 656.954 284.673V586.31C656.954 600.494 645.456 611.992 631.273 611.992H329.635C315.452 611.992 303.954 600.494 303.954 586.31V284.673C303.954 270.489 315.452 258.992 329.635 258.992Z" fill="#E0E0E0" stroke="black"/>
<path opacity="0.1" d="M657.454 417.942V612.492H303.454V417.942L480.454 503.492L657.454 417.942Z" fill="black"/>
<path d="M480.237 514.942L480.454 515.047L480.672 514.942L704.557 406.731C706.192 405.94 708.002 405.578 709.816 405.678C711.629 405.778 713.388 406.337 714.927 407.302C716.466 408.267 717.734 409.608 718.614 411.197C719.493 412.787 719.954 414.574 719.954 416.39V601.759C719.954 605.467 719.224 609.138 717.805 612.563C716.386 615.989 714.307 619.101 711.685 621.723C709.064 624.344 705.951 626.424 702.526 627.843C699.101 629.261 695.429 629.992 691.722 629.992H269.186C265.479 629.992 261.808 629.261 258.382 627.843C254.957 626.424 251.845 624.344 249.223 621.723C246.602 619.101 244.522 615.989 243.103 612.563C241.684 609.138 240.954 605.467 240.954 601.759V413.159C240.954 411.686 241.328 410.237 242.041 408.947C242.755 407.658 243.783 406.571 245.032 405.788C246.28 405.005 247.706 404.552 249.177 404.471C250.649 404.39 252.116 404.684 253.443 405.325L480.237 514.942Z" fill="#F2F2F2" stroke="black"/>
<path d="M334.454 291.492H432.454V304.492H334.454V291.492Z" fill="#FBCA4A" stroke="black"/>
<path d="M619.954 341.992H325.954V349.992H619.954V341.992Z" fill="white"/>
<path d="M619.954 368.992H325.954V376.992H619.954V368.992Z" fill="white"/>
<path d="M619.954 395.992H325.954V403.992H619.954V395.992Z" fill="white"/>
<path d="M60.9542 630.492H884.954" stroke="#9897A5" stroke-width="3" stroke-miterlimit="10"/>
<path opacity="0.2" d="M104.102 629.189C90.8614 629.296 73.3362 627.127 69.8084 624.978C67.1218 623.341 66.0513 617.469 65.6931 614.76C65.445 614.771 65.3015 614.775 65.3015 614.775C65.3015 614.775 66.0443 624.234 69.5721 626.383C73.0999 628.532 90.6251 630.701 103.866 630.594C107.688 630.564 109.008 629.204 108.936 627.19C108.405 628.406 106.947 629.166 104.102 629.189Z" fill="black"/>
<path d="M719.713 184.771C719.112 190.125 715.028 194.438 713.515 199.61C711.237 207.393 715.175 215.746 720.563 221.807C724.91 226.647 730.174 230.576 736.05 233.366C741.927 236.156 748.299 237.752 754.797 238.062C756.705 238.23 758.629 238.02 760.457 237.445C762.089 236.788 763.558 235.784 764.763 234.502C768.82 230.428 770.998 224.784 771.866 219.1C772.734 213.416 772.397 207.626 772.057 201.886C772.059 200.7 771.843 199.523 771.421 198.414C770.868 197.358 770.108 196.424 769.187 195.667C766.266 192.987 763.048 190.65 759.597 188.701C758.037 188.002 756.661 186.949 755.578 185.626C754.926 184.492 754.504 183.241 754.336 181.944L753.277 176.545C753.088 174.99 752.556 173.495 751.721 172.169C749.849 169.644 746.269 169.301 743.129 169.178L731.624 168.726C728.045 168.586 723.329 167.56 719.836 168.262C716.573 168.919 717.657 171.925 718.25 174.662C719.109 177.967 719.6 181.357 719.713 184.771V184.771Z" fill="#A0616A"/>
<path opacity="0.1" d="M719.713 184.771C719.112 190.125 715.028 194.438 713.515 199.61C711.237 207.393 715.175 215.746 720.563 221.807C724.91 226.647 730.174 230.576 736.05 233.366C741.927 236.156 748.299 237.752 754.797 238.062C756.705 238.23 758.629 238.02 760.457 237.445C762.089 236.788 763.558 235.784 764.763 234.502C768.82 230.428 770.998 224.784 771.866 219.1C772.734 213.416 772.397 207.626 772.057 201.886C772.059 200.7 771.843 199.523 771.421 198.414C770.868 197.358 770.108 196.424 769.187 195.667C766.266 192.987 763.048 190.65 759.597 188.701C758.037 188.002 756.661 186.949 755.578 185.626C754.926 184.492 754.504 183.241 754.336 181.944L753.277 176.545C753.088 174.99 752.556 173.495 751.721 172.169C749.849 169.644 746.269 169.301 743.129 169.178L731.624 168.726C728.045 168.586 723.329 167.56 719.836 168.262C716.573 168.919 717.657 171.925 718.25 174.662C719.109 177.967 719.6 181.357 719.713 184.771V184.771Z" fill="black"/>
<path d="M792.901 425.781C791.271 443.654 789.641 461.523 788.011 479.39C786.735 493.45 785.435 507.569 782.932 521.448C782.068 526.231 781.055 530.989 779.853 535.706C776.511 548.804 771.662 561.605 770.098 575.032C770.048 575.419 770.007 575.814 769.966 576.209C769.791 579.178 769.229 582.112 768.295 584.935C767.513 586.985 766.311 588.854 765.463 590.879C763.775 594.929 763.553 599.408 763.347 603.795C757.411 600.457 750.912 598.236 744.175 597.242C740.923 596.757 737.301 596.411 735.086 593.982C732.633 591.299 732.905 587.191 733.316 583.585C734.609 572.389 735.898 561.199 737.185 550.014C737.605 545.202 738.423 540.433 739.63 535.756C740.075 534.2 740.61 532.669 741.153 531.138C741.902 529.03 742.66 526.923 743.228 524.758C744.046 521.259 744.618 517.708 744.94 514.13C746.265 502.868 747.863 491.631 749.262 480.378L749.336 479.785C751.435 462.728 753.032 445.588 752.571 428.407C752.506 425.864 752.398 423.32 752.234 420.768C752.003 417.072 751.666 415.112 754.728 412.799C758.112 410.247 762.565 408.461 766.434 406.79C768.517 405.884 791.452 397.742 791.987 399.529C793.063 403.339 793.628 407.276 793.667 411.235C793.683 416.094 793.428 420.951 792.901 425.781Z" fill="#9897A5"/>
<path opacity="0.1" d="M782.932 521.448C782.068 526.231 781.055 530.989 779.853 535.706C776.511 548.804 771.662 561.605 770.098 575.032C770.048 575.419 770.007 575.814 769.966 576.209C759.742 561.605 751.131 545.898 741.153 531.138C741.902 529.03 742.66 526.923 743.228 524.758C744.046 521.259 744.619 517.708 744.94 514.13C746.265 502.868 747.863 491.631 749.262 480.378L749.336 479.785C749.922 482.174 750.758 484.495 751.831 486.708C758.532 500.324 774.453 507.206 782.24 520.238C782.479 520.641 782.71 521.045 782.932 521.448Z" fill="black"/>
<path d="M699.967 401.719C700.305 412.64 702.053 423.462 703.797 434.248L707.397 456.501C709.367 468.681 711.418 481.109 717.182 492.017C721.493 500.178 727.705 507.141 733.325 514.462C747.14 532.461 757.519 552.849 770.619 571.375C774.427 576.76 779.869 582.583 786.368 581.459C790.633 580.721 793.731 577.17 797.083 574.432C801.036 571.204 805.799 568.842 808.909 564.796C812.019 560.75 812.628 554.025 808.415 551.146C806.891 550.302 805.272 549.639 803.593 549.173C797.061 546.689 792.834 540.311 790.144 533.861C787.454 527.412 785.824 520.477 782.24 514.479C774.453 501.447 758.529 494.565 751.827 480.944C748.073 473.315 747.715 464.522 747.428 456.024L746.696 434.362C746.616 431.994 746.554 429.53 747.517 427.364C750.081 421.598 757.822 421.061 764.09 420.33C771.204 419.496 778.095 417.322 784.4 413.922C788.01 411.972 791.537 409.487 793.468 405.867C795.231 402.564 795.474 398.691 795.68 394.953L797.851 355.695C798.037 352.318 798.208 348.826 797.017 345.659C794.028 337.709 783.989 335.111 775.503 335.49C759.713 336.196 745.137 342.988 730.249 347.575C726.561 348.739 722.817 349.715 719.031 350.501C715.69 351.172 711.646 350.893 708.459 351.968C702.792 353.878 702.936 366.272 702.132 371.413C700.473 381.426 699.748 391.572 699.967 401.719V401.719Z" fill="#9897A5"/>
<path d="M784.224 583.105C785.616 584.509 786.071 586.566 786.434 588.51C788.445 599.293 789.491 610.234 789.56 621.202C789.467 622.226 789.671 623.254 790.148 624.164C790.541 624.707 791.072 625.134 791.686 625.4C795.711 627.318 800.381 624.645 803.735 621.708C809.951 616.262 815.211 608.953 815.564 600.697C815.499 598.57 815.574 596.442 815.787 594.325C816.333 591.216 818.148 588.508 819.748 585.787C822.469 581.156 824.665 576.235 826.293 571.116C826.904 569.192 827.311 566.77 825.804 565.428C825.269 565.009 824.662 564.694 824.012 564.497L805.834 557.747C804.258 557.162 800.338 567.231 799.716 568.332C798.194 571.025 796.681 572.554 793.628 573.175C790.511 573.81 786.801 572.899 783.893 574.454C778.974 577.084 781.438 580.296 784.224 583.105Z" fill="#464545"/>
<path d="M756.174 589.318C755.836 588.646 755.365 588.049 754.79 587.564C753.949 587.03 752.992 586.705 751.999 586.616C748.538 586.028 744.436 585.641 742.048 588.214C739.808 590.625 740.193 594.554 738.321 597.261C737.729 598.118 736.926 598.824 736.412 599.73C735.774 601.115 735.486 602.636 735.574 604.159C735.477 608.354 735.381 612.557 735.671 616.743C735.913 620.251 736.505 623.927 738.699 626.675C742.22 631.086 748.57 631.721 754.207 632.007L758.772 632.239C760.029 632.392 761.305 632.275 762.513 631.896C763.261 631.55 763.933 631.057 764.487 630.448C765.041 629.838 765.468 629.123 765.74 628.345C768.117 622.439 764.353 616.075 762.035 610.145C759.371 603.33 759.849 595.762 756.174 589.318Z" fill="#464545"/>
<path d="M718.39 154.6C718.334 154.001 718.422 153.398 718.647 152.84C719.316 151.658 721.062 151.979 722.379 152.311C727.676 153.647 733.257 152.438 738.71 152.75C744.164 153.062 750.307 155.788 751.403 161.14C755.362 158.333 758.774 154.827 761.472 150.794C762.986 148.529 764.305 145.935 764.099 143.218C763.802 139.3 760.514 136.37 757.471 133.886L748.397 126.479C747.207 125.384 745.831 124.51 744.335 123.896C742.24 123.18 739.955 123.521 737.741 123.522C731.136 123.527 724.094 120.521 718.22 123.54C715.766 124.802 713.919 126.963 712.139 129.071L704.041 138.656C703.431 139.267 702.986 140.023 702.747 140.852C702.516 142.022 703.117 143.176 703.327 144.35C703.709 146.492 702.787 148.777 703.496 150.834C704.673 154.248 708.819 154.731 711.353 156.689C712.297 157.418 713.778 159.89 714.903 159.86C716.934 159.806 718.338 156.178 718.39 154.6Z" fill="#292929"/>
<path d="M732.131 182.856C746.452 182.856 758.062 171.246 758.062 156.925C758.062 142.603 746.452 130.993 732.131 130.993C717.809 130.993 706.199 142.603 706.199 156.925C706.199 171.246 717.809 182.856 732.131 182.856Z" fill="#A0616A"/>
<path d="M738.204 213.676C737.325 211.156 735.665 208.982 733.466 207.469C731.267 205.956 728.643 205.182 725.975 205.261C725.212 205.403 724.423 205.303 723.719 204.975C723.321 204.67 723.003 204.272 722.792 203.816C721.215 200.981 719.948 197.984 719.011 194.878C718.598 193.505 718.032 191.887 716.643 191.53C716.069 191.455 715.484 191.537 714.952 191.769C714.421 192 713.962 192.371 713.625 192.843C712.966 193.793 712.245 194.699 711.468 195.555C708.206 198.471 702.425 195.813 698.963 198.488C698.398 198.925 697.931 199.485 697.337 199.883C696.743 200.24 696.102 200.515 695.433 200.699C688.749 202.881 682.196 205.448 675.807 208.386C678.11 222.253 680.469 236.361 685.866 249.34C688.435 255.517 691.346 261.566 693.402 267.932C697.96 282.035 698.162 297.126 698.213 311.947C698.248 322.091 698.197 332.452 694.916 342.05C694.033 344.172 693.41 346.392 693.062 348.663C692.864 350.95 693.53 353.472 695.383 354.827C696.457 355.53 697.686 355.962 698.964 356.085C704.651 356.92 710.384 355.406 715.983 354.11C730.992 350.634 746.298 348.645 761.576 346.661L787.175 343.337C789.01 343.213 790.806 342.749 792.472 341.968C797.156 339.404 797.601 332.357 794.692 327.878C793.297 325.731 791.33 323.969 790.158 321.693C788.986 319.417 788.886 316.233 790.903 314.656C795.007 311.449 793.783 305.499 793.979 300.294C794.526 285.742 794.452 271.183 793.757 256.62C793.551 253.605 793.503 250.581 793.612 247.562C794.067 242.444 795.012 237.383 796.435 232.447L804.214 201.819C802.182 198.608 798.291 196.57 794.605 195.645C790.92 194.72 787.081 194.448 783.451 193.323C776.015 191.019 769.394 185.171 761.628 185.716C761.041 185.727 760.463 185.868 759.937 186.129C758.185 187.122 758.463 189.646 758.351 191.656C758.103 196.102 754.832 199.819 751.22 202.425C747.609 205.031 743.483 206.931 740.166 209.902C739.578 210.345 739.097 210.914 738.758 211.567C738.418 212.22 738.229 212.941 738.204 213.676V213.676Z" fill="#464545"/>
<path d="M635.455 242.728C633.735 243.844 631.908 244.784 630 245.535C628.133 246.09 626.368 246.947 624.776 248.07C624.042 248.705 623.426 249.465 622.959 250.315C622.081 251.872 621.637 253.635 621.673 255.422C621.71 257.209 622.225 258.953 623.165 260.473C624.106 261.992 625.437 263.232 627.02 264.061C628.603 264.891 630.379 265.28 632.164 265.189C634.536 264.923 636.841 264.236 638.972 263.159L657.262 255.234C660.357 253.892 663.701 252.32 665.164 249.28C665.335 248.997 665.398 248.661 665.342 248.335C665.195 247.99 664.928 247.71 664.591 247.545C660.466 244.866 656.858 241.464 653.941 237.503C653.191 236.484 652.273 234.079 651.212 233.468C647.341 231.238 638.554 240.717 635.455 242.728Z" fill="#A0616A"/>
<path d="M830.982 236.224L837.726 243.927C839.173 245.581 840.622 247.237 841.942 248.994C845.182 253.46 847.782 258.357 849.665 263.544C851.131 267.39 852.347 271.487 851.835 275.571C851.495 277.664 850.93 279.715 850.148 281.687C848.913 285.48 847.381 289.17 845.567 292.723C844.041 295.422 842.317 298.005 840.41 300.45C835.19 307.369 829.477 313.904 823.317 320.002C821.011 322.284 820.045 325.974 819.041 329.059C817.19 334.748 812.786 339.18 808.527 343.382C807.158 344.827 805.645 346.129 804.012 347.267C801.565 348.843 798.706 349.657 795.796 349.607C794.522 349.616 793.261 349.355 792.095 348.841C789.181 347.457 787.699 344.087 787.396 340.874C787.124 337.959 787.613 335.024 788.814 332.354C792.683 323.782 802.62 320.068 809.643 313.813C813.762 310.146 816.911 305.54 820.017 300.983C822.127 298.138 823.889 295.05 825.264 291.786C826.833 287.601 826.222 282.646 827.592 278.392C828.172 276.594 829.202 274.97 829.824 273.186C830.447 271.403 830.604 269.285 829.514 267.742C828.693 266.761 827.645 265.994 826.461 265.507C821.975 263.229 816.949 260.299 816.091 255.341C815.748 252.591 816.467 249.815 818.1 247.576C819.727 245.368 821.628 243.375 823.758 241.647C825.72 239.911 829.02 237.96 830.982 236.224Z" fill="#A0616A"/>
<path d="M631.126 253.481C629.935 251.075 628.447 248.621 626.044 247.426C624.879 246.92 623.624 246.656 622.354 246.651C621.084 246.646 619.826 246.899 618.657 247.395C616.328 248.399 614.146 249.718 612.175 251.315L606.362 255.599C605.045 256.463 603.879 257.54 602.912 258.784C601.995 260.294 601.384 261.969 601.115 263.715C600.102 267.696 599.792 271.824 600.201 275.912C601.123 282.466 605.075 288.188 609.424 293.177C612.142 296.295 615.498 299.441 619.632 299.574C621.416 299.632 623.4 298.928 624.143 297.305C624.4 296.661 624.536 295.975 624.546 295.282C624.992 287.971 622.377 280.83 619.327 274.171C618.355 272.428 617.78 270.49 617.645 268.498C617.623 268.163 617.71 267.83 617.893 267.548C618.156 267.275 618.508 267.103 618.885 267.064C623.059 266.238 630.249 269.481 633.177 264.846C635.075 261.841 632.475 256.206 631.126 253.481Z" fill="#A0616A"/>
<path d="M717.03 146.44C716.975 145.841 717.063 145.238 717.287 144.68C717.956 143.498 719.702 143.82 721.019 144.152C726.316 145.487 731.897 144.278 737.35 144.59C742.804 144.902 748.947 147.629 750.043 152.98C754.002 150.174 757.414 146.668 760.112 142.635C761.626 140.37 762.945 137.775 762.739 135.059C762.442 131.141 759.154 128.211 756.111 125.726L747.037 118.319C745.847 117.224 744.471 116.35 742.975 115.736C740.88 115.02 738.595 115.361 736.381 115.363C729.776 115.367 722.734 112.361 716.86 115.381C714.406 116.642 712.559 118.803 710.779 120.911L702.681 130.497C702.071 131.108 701.626 131.863 701.387 132.692C701.156 133.862 701.757 135.017 701.967 136.191C702.349 138.332 701.427 140.618 702.136 142.674C703.313 146.088 707.459 146.572 709.993 148.529C710.937 149.258 712.418 151.731 713.543 151.701C715.574 151.646 716.978 148.018 717.03 146.44Z" fill="#292929"/>
<path d="M661.954 217.505C660.907 218.18 659.988 219.036 659.24 220.032C658.289 221.469 658.096 223.284 657.279 224.801C655.531 228.049 651.444 229.204 648.894 231.869C648.489 232.235 648.207 232.718 648.088 233.251C648.076 233.974 648.318 234.678 648.773 235.241L661.07 254.572C665.164 254.933 669.092 252.368 673.188 252.708C674.717 252.835 676.282 253.363 677.749 252.912C678.799 252.446 679.783 251.844 680.675 251.122C683.119 249.576 686.374 249.396 688.424 247.358C690.391 245.402 690.642 242.341 690.619 239.566C690.652 237.157 690.406 234.751 689.888 232.398C688.077 224.978 682.402 219.284 678.845 212.711C677.113 209.511 676.17 207.638 672.504 209.835C668.819 212.043 665.422 214.969 661.954 217.505Z" fill="#464545"/>
<path d="M811.295 207.729C813.606 209.229 815.69 211.054 817.482 213.147C819.355 215.563 820.416 218.519 822.215 220.99C823.96 223.385 826.334 225.24 828.312 227.445C831.313 230.79 833.345 234.871 835.341 238.896C830.466 245.254 825.151 251.261 819.435 256.873C818.798 257.623 817.96 258.174 817.019 258.461C816.38 258.529 815.733 258.438 815.137 258.195C814.541 257.952 814.015 257.565 813.605 257.069C812.719 256.14 812.092 254.995 811.245 254.03C809.247 251.968 806.584 250.681 803.727 250.394C800.896 250.12 798.047 250.081 795.209 250.277C794.586 250.346 793.956 250.24 793.39 249.971C792.969 249.68 792.628 249.289 792.398 248.832C789.068 243.167 790.139 236.054 791.314 229.589L794.009 214.754C794.4 211.92 795.154 209.149 796.252 206.508C797.273 204.327 799.556 200.627 802.363 201.28C805.192 201.939 808.915 206.017 811.295 207.729Z" fill="#464545"/>
<path d="M133.487 474.43C81.0657 394.727 -135.089 17.015 499.897 48.7942" stroke="#FBCA4A" stroke-width="9" stroke-miterlimit="10" stroke-dasharray="12.04 12.04"/>
<path d="M339.5 229C371.256 229 397 203.256 397 171.5C397 139.744 371.256 114 339.5 114C307.744 114 282 139.744 282 171.5C282 203.256 307.744 229 339.5 229Z" fill="white"/>
<path d="M307.85 124.094C317.228 117.833 328.253 114.494 339.528 114.5C354.636 114.508 369.122 120.512 379.805 131.195C390.488 141.878 396.492 156.364 396.5 171.471C396.506 182.747 393.167 193.772 386.906 203.15C380.645 212.528 371.743 219.838 361.326 224.156C350.91 228.473 339.446 229.605 328.387 227.406C317.327 225.208 307.168 219.778 299.195 211.805C291.222 203.832 285.792 193.673 283.594 182.613C281.395 171.554 282.527 160.09 286.844 149.674C291.162 139.257 298.472 130.355 307.85 124.094ZM311.564 213.323C319.842 218.854 329.573 221.806 339.529 221.806C346.139 221.806 352.684 220.505 358.791 217.975C364.898 215.445 370.447 211.738 375.121 207.064C379.795 202.39 383.503 196.841 386.032 190.734C388.562 184.627 389.864 178.081 389.864 171.471C389.864 161.516 386.912 151.784 381.381 143.506C375.85 135.229 367.989 128.777 358.791 124.968C349.594 121.158 339.473 120.161 329.709 122.103C319.945 124.045 310.976 128.839 303.936 135.879C296.897 142.918 292.103 151.887 290.161 161.651C288.218 171.415 289.215 181.536 293.025 190.734C296.835 199.931 303.286 207.793 311.564 213.323Z" fill="#9897A5" stroke="black"/>
<path d="M202.5 364C234.256 364 260 338.256 260 306.5C260 274.744 234.256 249 202.5 249C170.744 249 145 274.744 145 306.5C145 338.256 170.744 364 202.5 364Z" fill="white"/>
<path d="M227.112 321.851L227.113 321.852C228.131 322.865 228.422 323.391 228.485 323.732C228.514 323.888 228.5 324.032 228.449 324.216C228.413 324.345 228.37 324.46 228.318 324.6C228.283 324.692 228.245 324.795 228.202 324.92C227.734 326.037 227.167 327.109 226.506 328.123C225.186 330.119 224.121 331.161 222.536 331.899C221.752 332.264 220.632 332.666 218.712 332.429C216.768 332.188 213.98 331.288 209.887 328.979L209.887 328.979L209.879 328.975C203.586 325.574 197.829 321.265 192.795 316.184L192.44 316.536L192.791 316.181C187.722 311.164 183.42 305.427 180.023 299.156L180.023 299.156L180.019 299.149C177.718 295.053 176.817 292.265 176.573 290.321C176.333 288.401 176.731 287.283 177.098 286.501C177.842 284.917 178.895 283.851 180.877 282.524C181.893 281.863 182.967 281.295 184.085 280.826C184.203 280.781 184.302 280.741 184.39 280.705C184.54 280.645 184.66 280.596 184.792 280.556C184.972 280.502 185.114 280.486 185.266 280.513C185.603 280.573 186.127 280.861 187.148 281.879C188.13 282.858 189.372 284.545 190.524 286.31C191.672 288.069 192.705 289.867 193.275 291.049L193.275 291.05C193.948 292.439 194.224 293.296 194.208 294.017C194.193 294.713 193.901 295.36 193.209 296.322L193.208 296.323C193.05 296.544 192.886 296.762 192.723 296.978C192.319 297.517 191.923 298.044 191.642 298.575C191.223 299.366 191.018 300.223 191.246 301.312C191.471 302.385 192.335 303.868 193.539 305.487C194.759 307.128 196.381 308.975 198.2 310.788C200.02 312.602 201.875 314.223 203.519 315.445C205.141 316.652 206.621 317.52 207.678 317.752C208.756 317.988 209.614 317.779 210.406 317.36C210.932 317.081 211.457 316.69 211.992 316.291C212.214 316.125 212.438 315.959 212.664 315.798L212.668 315.796C213.629 315.101 214.275 314.812 214.971 314.799C215.693 314.785 216.551 315.063 217.941 315.73L217.944 315.732C219.123 316.289 220.922 317.324 222.684 318.476C224.45 319.631 226.137 320.877 227.112 321.851Z" fill="#FBCA4A" stroke="black"/>
<path d="M170.85 259.094C180.228 252.833 191.253 249.494 202.528 249.5C217.636 249.508 232.122 255.512 242.805 266.195C253.488 276.878 259.492 291.364 259.5 306.471C259.506 317.747 256.167 328.772 249.906 338.15C243.645 347.528 234.743 354.838 224.326 359.156C213.91 363.473 202.446 364.605 191.387 362.406C180.327 360.208 170.168 354.778 162.195 346.805C154.222 338.832 148.792 328.673 146.594 317.613C144.395 306.554 145.527 295.09 149.844 284.674C154.162 274.257 161.472 265.355 170.85 259.094ZM174.564 348.323C182.842 353.854 192.573 356.806 202.529 356.806C209.139 356.806 215.684 355.505 221.791 352.975C227.898 350.445 233.447 346.738 238.121 342.064C242.795 337.39 246.503 331.841 249.032 325.734C251.562 319.627 252.864 313.081 252.864 306.471C252.864 296.516 249.912 286.784 244.381 278.506C238.85 270.229 230.989 263.777 221.791 259.968C212.594 256.158 202.473 255.161 192.709 257.103C182.945 259.045 173.976 263.839 166.936 270.879C159.897 277.918 155.103 286.887 153.161 296.651C151.218 306.415 152.215 316.536 156.025 325.734C159.835 334.931 166.286 342.793 174.564 348.323Z" fill="#9897A5" stroke="black"/>
<path d="M351.495 184.752H314.5V155.5H360.5V184.752H357.629H357.087L357.131 185.293L357.775 193.228L351.902 184.963L351.753 184.752H351.495Z" fill="#FBCA4A" stroke="black"/>
</g>
<path d="M607.23 60.2255L610.828 59.716L610.138 59.372L610.425 59.2847L609.929 59.2684L529.686 19.1628L521.829 47.6128L515.879 73.1933L521.981 72.3291L522.985 84.9015L607.23 60.2255Z" fill="url(#paint0_linear)"/>
<path d="M524.819 48.0617L519.397 71.4639L607.757 59.5529L542.041 38.2945L524.819 48.0617Z" fill="#9EA0A0"/>
<path opacity="0.2" d="M524.819 48.0617L519.397 71.4639L607.757 59.5529L542.041 38.2945L524.819 48.0617Z" fill="#605D82"/>
<path d="M532.005 22.0424L607.757 59.5529L524.819 48.0617L532.005 22.0424Z" fill="#FBCA4A"/>
<path d="M525.945 82.4013L607.273 59.3345L523.633 55.4992L525.945 82.4013Z" fill="#FBCA4A"/>
<defs>
<linearGradient id="paint0_linear" x1="82386.6" y1="44136.2" x2="83468.8" y2="40216.1" gradientUnits="userSpaceOnUse">
<stop stop-color="#808080" stop-opacity="0.25"/>
<stop offset="0.54" stop-color="#808080" stop-opacity="0.12"/>
<stop offset="1" stop-color="#808080" stop-opacity="0.1"/>
</linearGradient>
<clipPath id="clip0">
<rect width="1013.45" height="610.281" fill="white" transform="translate(0 22)"/>
</clipPath>
</defs>
</svg>
