<svg width="150" height="100" viewBox="0 0 150 100" fill="none" xmlns="http://www.w3.org/2000/svg">
<g clip-path="url(#clip0)">
<path d="M8.64061 57.4721C8.58847 57.2057 8.59537 56.9311 8.66083 56.6677C8.72629 56.4042 8.84872 56.1584 9.01949 55.9473C9.19026 55.7363 9.40521 55.5653 9.64922 55.4464C9.89323 55.3274 10.1603 55.2634 10.4318 55.2589L18.7082 45.4065L20.7745 48.0483L12.3396 57.2176C12.317 57.6741 12.1278 58.1064 11.8077 58.4327C11.4877 58.759 11.0591 58.9565 10.6031 58.9878C10.1472 59.0192 9.69558 58.8822 9.33387 58.6029C8.97217 58.3235 8.7255 57.9212 8.64062 57.4721H8.64061Z" fill="#FFB8B8"/>
<path d="M47.9426 45.3456C47.8847 45.4294 47.8334 45.5176 47.7894 45.6094L38.7523 46.9012L37.38 45.159L34.48 46.8864L37.206 51.1365L48.2276 47.8875C48.5185 48.1508 48.8826 48.3193 49.2716 48.3706C49.6605 48.4219 50.0559 48.3536 50.405 48.1748C50.7542 47.9959 51.0407 47.715 51.2263 47.3693C51.4119 47.0237 51.4879 46.6298 51.4442 46.2399C51.4005 45.85 51.2391 45.4827 50.9816 45.1868C50.724 44.8908 50.3824 44.6803 50.0023 44.5832C49.6222 44.4862 49.2215 44.5071 48.8536 44.6433C48.4857 44.7795 48.1679 45.0244 47.9426 45.3456Z" fill="#FFB8B8"/>
<path d="M32.5058 78.2641L34.1051 79.8563L41.0079 74.446L38.6477 72.0959L32.5058 78.2641Z" fill="#FFB8B8"/>
<path d="M35.7106 84.4123L30.6846 79.4078L32.6182 77.466L35.7023 80.5369C35.9573 80.7908 36.1598 81.0924 36.2982 81.4246C36.4366 81.7568 36.5083 82.113 36.5091 82.4728C36.5098 82.8327 36.4397 83.1892 36.3027 83.522C36.1657 83.8547 35.9645 84.1573 35.7106 84.4123L35.7106 84.4123Z" fill="#2F2E41"/>
<path d="M24.0052 93.5371H26.2619L27.3355 84.8325H24.0048L24.0052 93.5371Z" fill="#FFB8B8"/>
<path d="M30.6142 95.6324L23.5216 95.6327L23.5215 92.8924L27.8738 92.8922C28.2336 92.8922 28.59 92.963 28.9224 93.1007C29.2549 93.2384 29.557 93.4403 29.8115 93.6947C30.066 93.9492 30.2678 94.2513 30.4056 94.5837C30.5433 94.9162 30.6142 95.2725 30.6142 95.6324V95.6324Z" fill="#2F2E41"/>
<path d="M23.5146 86.8141L20.944 67.8566C20.5417 64.9917 20.6666 62.0773 21.3124 59.2572C21.8399 56.9909 22.5525 55.421 23.4305 54.5915C23.5691 54.4615 23.7465 54.3805 23.9355 54.3609L32.4226 53.4768C32.5861 53.4601 32.7509 53.4902 32.8979 53.5637C33.0449 53.6371 33.168 53.7509 33.2528 53.8917L33.5318 54.3566C33.5657 54.413 33.593 54.4732 33.6132 54.5358L35.4076 60.0986C35.4344 60.1826 35.4776 60.2605 35.5348 60.3277C35.5919 60.3949 35.6618 60.4501 35.7405 60.49C38.5657 61.9324 47.7429 66.8015 47.2177 68.9023C46.7242 70.8762 42.1042 74.0766 40.6999 75.0104C40.557 75.106 40.3885 75.1565 40.2165 75.1552C40.0445 75.1539 39.8769 75.1009 39.7354 75.0031L37.4044 73.4083C37.2906 73.3304 37.1971 73.2265 37.1317 73.105C37.0663 72.9836 37.0309 72.8483 37.0285 72.7105C37.0261 72.5726 37.0567 72.4361 37.1178 72.3125C37.1789 72.1889 37.2688 72.0817 37.3798 71.9999L38.9872 70.8154C39.0856 70.7429 39.1623 70.645 39.2092 70.5321C39.256 70.4192 39.2712 70.2957 39.2531 70.1749C39.235 70.054 39.1843 69.9404 39.1064 69.8462C39.0285 69.752 38.9264 69.6809 38.8111 69.6404L30.1782 66.6113C30.0813 66.5772 29.9778 66.5659 29.8758 66.5781C29.7738 66.5903 29.676 66.6258 29.5898 66.6817C29.5037 66.7377 29.4315 66.8126 29.3788 66.9008C29.3262 66.9891 29.2944 67.0882 29.2861 67.1905L27.6943 86.6452C27.6768 86.8537 27.5842 87.0489 27.4339 87.1946C27.2835 87.3402 27.0855 87.4265 26.8765 87.4374L24.4137 87.5606C24.3987 87.5613 24.3838 87.5617 24.369 87.5617C24.1599 87.5625 23.9578 87.487 23.8005 87.3493C23.6432 87.2117 23.5415 87.0213 23.5146 86.8141V86.8141Z" fill="#FFB8B8"/>
<path d="M27.407 37.7812C29.9039 37.7812 31.9281 35.757 31.9281 33.2601C31.9281 30.7632 29.9039 28.739 27.407 28.739C24.91 28.739 22.8859 30.7632 22.8859 33.2601C22.8859 35.757 24.91 37.7812 27.407 37.7812Z" fill="#FFB8B8"/>
<path d="M23.1782 53.8171L19.8503 41.6745L19.9073 41.6361C19.9787 41.5879 27.1519 36.8513 35.5502 40.6684L35.7024 40.7557L33.7305 53.3589C33.6874 53.6465 33.5454 53.9101 33.3288 54.1042C33.1123 54.2984 32.8348 54.4108 32.5442 54.4222L24.4296 54.7344C24.4132 54.7349 24.3969 54.7353 24.3807 54.7353C24.1072 54.7359 23.841 54.6463 23.6236 54.4803C23.4062 54.3143 23.2497 54.0811 23.1782 53.8171V53.8171Z" fill="#CCCCCC"/>
<path d="M19.7237 49.5795L16.952 46.3922C16.8185 46.239 16.7433 46.0437 16.7397 45.8405C16.7361 45.6374 16.8044 45.4395 16.9324 45.2818L19.8299 41.7024L22.0541 42.3091L23.2334 46.4364L21.0832 49.5081C21.0082 49.6159 20.9095 49.705 20.7947 49.7687C20.6798 49.8324 20.5519 49.8688 20.4208 49.8753C20.4052 49.8761 20.3898 49.8765 20.3744 49.8765C20.251 49.8767 20.1289 49.8503 20.0166 49.7991C19.9043 49.7478 19.8044 49.6729 19.7237 49.5795V49.5795Z" fill="#CCCCCC"/>
<path d="M35.0508 48.9155C34.9196 48.909 34.7917 48.8726 34.6768 48.8089C34.562 48.7452 34.4633 48.6561 34.3883 48.5483L32.2382 45.4766L33.2724 41.1319L35.3203 40.5734L35.7025 40.7557L38.5391 44.322C38.6672 44.4797 38.7354 44.6776 38.7318 44.8807C38.7282 45.0839 38.653 45.2792 38.5195 45.4323L35.7479 48.6197C35.6671 48.7131 35.5672 48.788 35.4549 48.8392C35.3426 48.8905 35.2206 48.9169 35.0971 48.9167C35.0817 48.9166 35.0662 48.9163 35.0508 48.9155Z" fill="#CCCCCC"/>
<path d="M131.378 47.4922C131.38 47.5381 131.364 47.5828 131.334 47.6174C131.302 47.6545 131.257 47.6775 131.209 47.6813C131.16 47.6851 131.112 47.6694 131.075 47.6377L130.458 47.1057L119.973 38.0731L90.565 12.7349C90.3972 12.5913 90.1835 12.5126 89.9627 12.5129C89.7419 12.5132 89.5285 12.5927 89.3611 12.7368L49.7589 47.1425L49.4018 47.4518C49.388 47.4639 49.3725 47.4738 49.3558 47.4812C49.3263 47.4943 49.2939 47.4993 49.2618 47.4959C49.2159 47.491 49.1733 47.4694 49.1422 47.4352C49.1262 47.4171 49.1139 47.396 49.1061 47.3731C49.0983 47.3503 49.095 47.3261 49.0966 47.302C49.0981 47.2779 49.1044 47.2543 49.1151 47.2326C49.1257 47.2109 49.1406 47.1916 49.1587 47.1756L49.2084 47.1315L89.12 12.4588C89.3545 12.2574 89.6532 12.1463 89.9623 12.1457C90.2715 12.145 90.5707 12.2547 90.806 12.4551L120.223 37.8006L131.314 47.3579C131.333 47.3747 131.349 47.3952 131.36 47.4184C131.371 47.4415 131.377 47.4666 131.378 47.4922V47.4922Z" fill="#E6E6E6" stroke="#E6E6E6"/>
<path d="M109.019 52.928L108.534 51.5953L106.867 46.9934L103.273 37.0846L99.257 26.0087L92.0136 6.0309C91.8713 5.64131 91.5805 5.32397 91.2048 5.14836C90.8291 4.97275 90.3991 4.95318 90.0089 5.09395L48.1298 20.2784C47.7401 20.4205 47.4226 20.7113 47.247 21.0871C47.0714 21.4628 47.0519 21.8929 47.1928 22.283L57.4625 50.605L57.6373 51.0891L68.4168 55.9745L71.4467 57.3477L71.9382 57.5705L84.7665 63.3854L85.2635 63.205L93.6776 60.1549L106.37 55.553L108.08 54.9326C108.47 54.7907 108.787 54.5 108.963 54.1243C109.139 53.7486 109.159 53.3184 109.019 52.928V52.928Z" fill="#FBC94A"/>
<path d="M91.4577 29.3368C91.2488 28.7634 90.821 28.2963 90.2682 28.0379C89.7154 27.7794 89.0827 27.7507 88.5088 27.9581L71.9382 33.9682L63.9364 36.8692C63.6521 36.972 63.3908 37.1298 63.1675 37.3336C62.9442 37.5374 62.7633 37.7832 62.6351 38.0569C62.5068 38.3307 62.4338 38.6271 62.4201 38.9291C62.4065 39.2311 62.4525 39.5328 62.5556 39.817C62.6586 40.1013 62.8167 40.3624 63.0207 40.5855C63.2247 40.8086 63.4707 40.9893 63.7446 41.1172C64.0185 41.2452 64.3149 41.318 64.6169 41.3313C64.919 41.3446 65.2207 41.2983 65.5048 41.195L71.9382 38.8628L90.079 32.2857C90.6524 32.0768 91.1195 31.649 91.3779 31.0962C91.6363 30.5434 91.665 29.9107 91.4577 29.3368V29.3368Z" fill="white"/>
<path d="M94.3753 37.3846C94.1664 36.8113 93.7387 36.3441 93.1859 36.0857C92.6331 35.8272 92.0003 35.7985 91.4264 36.0059L88.6192 37.0238L71.9382 43.0726L66.8541 44.9152C66.2807 45.1236 65.8136 45.551 65.5553 46.1037C65.2969 46.6563 65.2686 47.2889 65.4764 47.8624C65.6843 48.436 66.1113 48.9035 66.6637 49.1624C67.2161 49.4212 67.8487 49.4501 68.4224 49.2428L71.9382 47.9672L92.9966 40.3317C93.0444 40.3151 93.0905 40.2949 93.1365 40.2746C93.6711 40.04 94.0966 39.6109 94.3267 39.0743C94.5567 38.5376 94.5741 37.9336 94.3753 37.3846V37.3846Z" fill="white"/>
<path d="M97.3242 45.5171C97.1157 44.9439 96.6883 44.4768 96.1358 44.2183C95.5833 43.9598 94.9508 43.9311 94.3772 44.1384L86.5042 46.9934L80.4094 49.2042L71.9382 52.2746L69.803 53.0495C69.3095 53.2293 68.8921 53.5721 68.62 54.0213C68.3479 54.4706 68.2372 54.9992 68.3064 55.5198C68.3275 55.6748 68.3645 55.8271 68.4168 55.9745L71.4467 57.3477L71.9382 57.1692H71.9419L87.3141 51.5953L95.9454 48.466C96.5191 48.2576 96.9866 47.8299 97.2451 47.2769C97.5036 46.724 97.5321 46.091 97.3242 45.5171H97.3242Z" fill="white"/>
<path d="M80.0707 21.4252C79.8618 20.8518 79.4341 20.3847 78.8813 20.1262C78.3285 19.8678 77.6957 19.8391 77.1218 20.0464L67.605 23.496C67.0317 23.7044 66.5645 24.1319 66.3062 24.6845C66.0479 25.2372 66.0195 25.8698 66.2274 26.4433C66.4352 27.0168 66.8623 27.4844 67.4147 27.7432C67.9671 28.002 68.5996 28.031 69.1734 27.8237L72.1849 26.7321L74.1784 26.0087L78.692 24.3722C79.2653 24.1637 79.7324 23.7363 79.9909 23.1838C80.2493 22.6313 80.278 21.9988 80.0707 21.4252Z" fill="white"/>
<path d="M118.049 26.0087H73.5028C73.2401 26.009 72.9816 26.0754 72.7513 26.2018C72.521 26.3282 72.3262 26.5106 72.1849 26.7321C72.0234 26.9829 71.9377 27.275 71.9382 27.5733V57.5705L84.7666 63.3854L86.5742 64.2046L89.4291 65.4986C89.5963 65.5742 89.7777 65.6132 89.9611 65.6132C90.1446 65.6132 90.326 65.5742 90.4931 65.4986L93.3481 64.2046L102.283 60.1549L110.611 56.3795L119.614 52.3003V27.5733C119.614 27.1585 119.449 26.7606 119.155 26.4673C118.862 26.1739 118.464 26.009 118.049 26.0087Z" fill="#CCCCCC"/>
<path d="M108.846 46.9934H82.7067C82.1123 46.9938 81.5412 47.2241 81.1129 47.6363C80.6847 48.0484 80.4325 48.6103 80.4094 49.2042C80.4063 49.2341 80.4051 49.2643 80.4057 49.2944C80.4066 49.9044 80.6493 50.4891 81.0806 50.9204C81.5119 51.3518 82.0967 51.5945 82.7067 51.5953H108.846C109.456 51.5953 110.041 51.3529 110.473 50.9214C110.904 50.4899 111.146 49.9046 111.146 49.2944C111.146 48.6841 110.904 48.0989 110.473 47.6674C110.041 47.2358 109.456 46.9934 108.846 46.9934Z" fill="white"/>
<path d="M110.335 56.1015C109.92 55.7465 109.392 55.5519 108.846 55.5529H82.7067C82.0964 55.5529 81.5112 55.7954 81.0797 56.2269C80.6481 56.6584 80.4057 57.2436 80.4057 57.8539C80.4057 58.4641 80.6481 59.0494 81.0797 59.4809C81.5112 59.9124 82.0964 60.1548 82.7067 60.1548H102.283L110.611 56.3794C110.527 56.2792 110.434 56.1862 110.335 56.1015Z" fill="white"/>
<path d="M86.5742 64.2046L89.4292 65.4986C89.5963 65.5741 89.7777 65.6132 89.9612 65.6132C90.1446 65.6132 90.326 65.5741 90.4932 65.4986L93.3481 64.2046H86.5742Z" fill="white"/>
<path d="M102.999 37.184C102.837 36.741 102.543 36.3585 102.157 36.0882C101.77 35.8179 101.31 35.6729 100.838 35.6727H90.714C90.272 35.6731 89.8394 35.8007 89.468 36.0403C89.0965 36.2799 88.8019 36.6213 88.6192 37.0238C88.4829 37.3219 88.4125 37.6459 88.4131 37.9736C88.4139 38.5836 88.6566 39.1684 89.0879 39.5997C89.5193 40.031 90.104 40.2737 90.714 40.2746H100.838C101.208 40.2746 101.573 40.1854 101.901 40.0144C102.23 39.8433 102.512 39.5956 102.724 39.2923C102.936 38.9889 103.072 38.6389 103.12 38.2718C103.168 37.9048 103.126 37.5316 102.999 37.184Z" fill="white"/>
<path d="M101.39 60.1549L92.4553 64.2045L90.3404 65.1636C90.2211 65.2173 90.0919 65.245 89.9611 65.245C89.8304 65.245 89.7011 65.2173 89.5819 65.1636L87.4669 64.2045H86.5742L89.4291 65.4986C89.5963 65.5741 89.7777 65.6132 89.9611 65.6132C90.1446 65.6132 90.326 65.5741 90.4932 65.4986L93.3481 64.2045L102.283 60.1549H101.39ZM101.39 60.1549L92.4553 64.2045L90.3404 65.1636C90.2211 65.2173 90.0919 65.245 89.9611 65.245C89.8304 65.245 89.7011 65.2173 89.5819 65.1636L87.4669 64.2045H86.5742L89.4291 65.4986C89.5963 65.5741 89.7777 65.6132 89.9611 65.6132C90.1446 65.6132 90.326 65.5741 90.4932 65.4986L93.3481 64.2045L102.283 60.1549H101.39ZM101.39 60.1549L92.4553 64.2045L90.3404 65.1636C90.2211 65.2173 90.0919 65.245 89.9611 65.245C89.8304 65.245 89.7011 65.2173 89.5819 65.1636L87.4669 64.2045H86.5742L89.4291 65.4986C89.5963 65.5741 89.7777 65.6132 89.9611 65.6132C90.1446 65.6132 90.326 65.5741 90.4932 65.4986L93.3481 64.2045L102.283 60.1549H101.39ZM131.378 47.4922C131.31 47.4247 131.236 47.3642 131.156 47.3119C130.975 47.1946 130.767 47.1249 130.552 47.1091C130.337 47.0934 130.122 47.1321 129.926 47.2217L110.335 56.1015L101.39 60.1549L92.4553 64.2045L90.3403 65.1636C90.2211 65.2173 90.0919 65.245 89.9611 65.245C89.8304 65.245 89.7011 65.2173 89.5819 65.1636L87.4669 64.2045L85.2635 63.205L71.9419 57.1691L71.9382 57.1673L68.3064 55.5198L57.4625 50.605L49.9963 47.2217C49.9204 47.1865 49.8407 47.16 49.7589 47.1425C49.5786 47.0975 49.3904 47.0937 49.2084 47.1315C48.9173 47.1911 48.6557 47.3492 48.4676 47.5792C48.2794 47.8092 48.1764 48.0971 48.1758 48.3942V94.6214C48.1762 94.963 48.312 95.2905 48.5536 95.5321C48.7952 95.7736 49.1227 95.9095 49.4643 95.9099H130.458C130.8 95.9095 131.127 95.7736 131.369 95.5321C131.61 95.2905 131.746 94.963 131.747 94.6214V48.3942C131.747 48.0569 131.615 47.7328 131.378 47.4922V47.4922ZM131.378 94.6213C131.378 94.8654 131.281 95.0995 131.109 95.272C130.936 95.4446 130.702 95.5416 130.458 95.5417H49.4643C49.2202 95.5416 48.9862 95.4446 48.8136 95.272C48.641 95.0995 48.544 94.8654 48.5439 94.6213V48.3942C48.544 48.2404 48.5826 48.089 48.6563 47.954C48.7299 47.8189 48.8362 47.7045 48.9655 47.6211C49.0564 47.5629 49.1566 47.5205 49.2618 47.4959C49.2928 47.4892 49.3242 47.4843 49.3557 47.4812C49.3917 47.476 49.428 47.4735 49.4643 47.4738C49.5952 47.474 49.7245 47.5023 49.8435 47.5567L57.6373 51.0891L68.4168 55.9745L71.4467 57.3477L71.9382 57.5704L84.7665 63.3854L86.5741 64.2045L89.4291 65.4986C89.5963 65.5741 89.7777 65.6132 89.9611 65.6132C90.1446 65.6132 90.326 65.5741 90.4931 65.4986L93.3481 64.2045L102.283 60.1549L110.611 56.3795L130.079 47.5567C130.219 47.4932 130.373 47.4658 130.526 47.4771C130.679 47.4884 130.827 47.5379 130.957 47.6211C130.972 47.6298 130.986 47.6397 130.999 47.6506C131.014 47.66 131.027 47.6711 131.04 47.6837C131.146 47.7694 131.231 47.8776 131.29 48.0006C131.348 48.1235 131.378 48.258 131.378 48.3942L131.378 94.6213ZM101.39 60.1549L92.4553 64.2045L90.3404 65.1636C90.2211 65.2173 90.0919 65.245 89.9611 65.245C89.8304 65.245 89.7011 65.2173 89.5819 65.1636L87.4669 64.2045H86.5742L89.4291 65.4986C89.5963 65.5741 89.7777 65.6132 89.9611 65.6132C90.1446 65.6132 90.326 65.5741 90.4932 65.4986L93.3481 64.2045L102.283 60.1549H101.39ZM101.39 60.1549L92.4553 64.2045L90.3404 65.1636C90.2211 65.2173 90.0919 65.245 89.9611 65.245C89.8304 65.245 89.7011 65.2173 89.5819 65.1636L87.4669 64.2045H86.5742L89.4291 65.4986C89.5963 65.5741 89.7777 65.6132 89.9611 65.6132C90.1446 65.6132 90.326 65.5741 90.4932 65.4986L93.3481 64.2045L102.283 60.1549H101.39ZM71.4467 57.3477L71.9382 57.5704V57.1691L71.4467 57.3477ZM101.39 60.1549L92.4553 64.2045L90.3404 65.1636C90.2211 65.2173 90.0919 65.245 89.9611 65.245C89.8304 65.245 89.7011 65.2173 89.5819 65.1636L87.4669 64.2045H86.5742L89.4291 65.4986C89.5963 65.5741 89.7777 65.6132 89.9611 65.6132C90.1446 65.6132 90.326 65.5741 90.4932 65.4986L93.3481 64.2045L102.283 60.1549H101.39Z" fill="#E6E6E6" stroke="#E6E6E6"/>
<path d="M37.3102 95.9099H16.5096C16.4607 95.9099 16.4139 95.8905 16.3794 95.856C16.3449 95.8214 16.3255 95.7746 16.3255 95.7258C16.3255 95.677 16.3449 95.6302 16.3794 95.5957C16.4139 95.5611 16.4607 95.5417 16.5096 95.5417H37.3102C37.359 95.5417 37.4058 95.5611 37.4404 95.5957C37.4749 95.6302 37.4943 95.677 37.4943 95.7258C37.4943 95.7746 37.4749 95.8214 37.4404 95.856C37.4058 95.8905 37.359 95.9099 37.3102 95.9099Z" fill="#3F3D56"/>
<path d="M25.6879 36.5664C25.3483 36.3941 25.066 36.1271 24.875 35.7976C24.684 35.4681 24.5926 35.0903 24.6119 34.71C24.6312 34.3297 24.7603 33.9631 24.9836 33.6546C25.2069 33.3461 25.5148 33.109 25.8701 32.9719C27.2344 32.4454 28.7638 33.5199 30.1939 33.2144C31.6193 32.9099 32.4438 31.2059 32.1036 29.7886C31.7634 28.3714 30.5251 27.3039 29.1596 26.794C28.2679 26.4619 27.3128 26.3346 26.3652 26.4214C25.4175 26.5083 24.5015 26.8071 23.685 27.2959C22.8769 27.7989 22.2038 28.4917 21.7244 29.314C21.245 30.1364 20.9737 31.0634 20.934 32.0144C20.9155 32.9663 21.148 33.9063 21.6083 34.7398C22.0686 35.5732 22.7404 36.2707 23.556 36.7619C23.9194 36.9714 24.3425 37.1396 24.7513 37.0453C25.0869 36.9363 25.403 36.7746 25.6879 36.5664V36.5664Z" fill="#59586F"/>
<path d="M24.2228 27.1857C23.0198 25.59 21.3958 24.2792 19.5061 23.6293C17.6164 22.9794 15.4569 23.0315 13.6822 23.95C11.9074 24.8684 10.5838 26.6925 10.4457 28.686C10.2157 32.004 13.0508 34.8243 13.3418 38.1375C13.434 39.1876 13.2635 40.2442 12.8458 41.2121C12.428 42.18 11.776 43.0287 10.9486 43.6819C10.1211 44.3351 9.1442 44.7722 8.10577 44.9538C7.06735 45.1355 6.00005 45.056 5 44.7225C5.71229 45.3088 6.53813 45.7415 7.42565 45.9934C8.31317 46.2452 9.24319 46.3109 10.1573 46.1861C11.0699 46.0491 11.9406 45.7108 12.7062 45.1956C13.4718 44.6804 14.1132 44.0013 14.5838 43.2075C15.2219 42.0989 15.4839 40.8112 15.5856 39.5361C15.7455 37.52 15.529 35.4918 14.9473 33.5549C14.6293 32.498 14.1981 31.4105 14.3997 30.3255C14.5147 29.7611 14.7929 29.2429 15.1999 28.8354C15.6068 28.4278 16.1246 28.1488 16.6888 28.033C17.6006 27.8622 18.5328 28.1405 19.4034 28.4607C20.2741 28.781 21.1518 29.1516 22.0793 29.1728C23.0067 29.194 24.0168 28.7695 24.3752 27.9139L24.2228 27.1857Z" fill="#59586F"/>
</g>
<defs>
<clipPath id="clip0">
<rect width="140" height="90.9099" fill="white" transform="translate(5 5)"/>
</clipPath>
</defs>
</svg>
