<svg width="150" height="100" viewBox="0 0 150 100" fill="none" xmlns="http://www.w3.org/2000/svg">
<g clip-path="url(#clip0)">
<path d="M80.8783 3.00169L17.1305 26.6664L57.4457 98.5938L121.194 74.929L80.8783 3.00169Z" fill="#E6E6E6"/>
<path d="M63.836 7.03276L32.2116 18.7725L35.7059 25.0067L67.3303 13.267L63.836 7.03276Z" fill="url(#paint0_linear)"/>
<path d="M44.7673 7.09412C42.3331 7.98376 41.281 10.3233 42.4184 12.3199C43.5558 14.3166 46.4517 15.2141 48.886 14.3244C51.3203 13.4348 52.3723 11.0953 51.2349 9.09861C50.0975 7.10196 47.2016 6.20447 44.7673 7.09412ZM48.0144 12.795C47.5022 12.994 46.9276 13.0663 46.3638 13.0025C45.8001 12.9387 45.273 12.7418 44.8496 12.4369C44.4263 12.1321 44.126 11.7331 43.9871 11.2909C43.8483 10.8487 43.8771 10.3834 44.07 9.95441C44.2629 9.52541 44.611 9.1522 45.07 8.88242C45.529 8.61264 46.0779 8.45855 46.6467 8.43981C47.2156 8.42108 47.7785 8.53856 48.2635 8.77724C48.7486 9.01593 49.1338 9.36499 49.37 9.77985C49.5283 10.0492 49.6188 10.3409 49.6364 10.6382C49.6539 10.9356 49.5982 11.2328 49.4723 11.5129C49.3464 11.793 49.1529 12.0504 48.9027 12.2706C48.6526 12.4908 48.3507 12.6694 48.0144 12.7961V12.795Z" fill="url(#paint1_linear)"/>
<path d="M63.5044 7.16106L32.5463 18.6535L35.8869 24.6135L66.845 13.1211L63.5044 7.16106Z" fill="#7C7C7C"/>
<path d="M44.8076 7.10729C43.9318 7.43214 43.194 7.96096 42.6877 8.62688C42.1814 9.29279 41.9292 10.0659 41.963 10.8484C41.9968 11.6309 42.3152 12.3877 42.8778 13.023C43.4404 13.6584 44.2219 14.1437 45.1237 14.4177C46.0254 14.6917 47.0067 14.7421 47.9436 14.5624C48.8805 14.3827 49.7308 13.981 50.387 13.4082C51.0433 12.8353 51.4759 12.1171 51.6303 11.3442C51.7847 10.5714 51.6539 9.77861 51.2544 9.06624C50.7187 8.11112 49.7387 7.36817 48.5297 7.00081C47.3207 6.63344 45.9819 6.67175 44.8076 7.10729V7.10729ZM47.9922 12.7868C47.4871 12.9742 46.925 13.0355 46.3771 12.963C45.8291 12.8905 45.3199 12.6874 44.9138 12.3795C44.5077 12.0716 44.2229 11.6727 44.0955 11.2332C43.9681 10.7936 44.0037 10.3332 44.198 9.91019C44.3922 9.48714 44.7363 9.12043 45.1867 8.85644C45.6371 8.59244 46.1736 8.443 46.7284 8.42702C47.2832 8.41103 47.8314 8.52922 48.3036 8.76664C48.7759 9.00406 49.151 9.35005 49.3815 9.76086C49.6903 10.3118 49.7174 10.94 49.4569 11.5073C49.1964 12.0745 48.6695 12.5344 47.9922 12.7857V12.7868Z" fill="#7C7C7C"/>
<path d="M40.3054 32.1368L26.6565 37.2036L32.8824 48.3114L46.5313 43.2446L40.3054 32.1368Z" fill="url(#paint2_linear)"/>
<path d="M52.6895 54.1317L39.0407 59.1985L45.2666 70.3063L58.9154 65.2395L52.6895 54.1317Z" fill="url(#paint3_linear)"/>
<path d="M40.0327 32.7286L27.3832 37.4244L33.1532 47.7189L45.8028 43.0231L40.0327 32.7286Z" fill="#69F0AE"/>
<path d="M52.2564 54.5364L39.6069 59.2322L45.377 69.5267L58.0265 64.8309L52.2564 54.5364Z" fill="#7C7C7C"/>
<path d="M67.4747 26.3809L50.1361 32.8175L50.688 33.8022L68.0267 27.3656L67.4747 26.3809Z" fill="#E0E0E0"/>
<path d="M79.5938 23.6666L50.9649 34.2943L51.5168 35.279L80.1458 24.6512L79.5938 23.6666Z" fill="#E0E0E0"/>
<path d="M78.4037 25.8919L51.7914 35.771L52.3433 36.7557L78.9556 26.8766L78.4037 25.8919Z" fill="#E0E0E0"/>
<path d="M79.6991 48.1897L62.3604 54.6262L62.9123 55.6109L80.251 49.1744L79.6991 48.1897Z" fill="#E0E0E0"/>
<path d="M91.8175 45.4743L63.1887 56.102L63.7406 57.0867L92.3694 46.4589L91.8175 45.4743Z" fill="#E0E0E0"/>
<path d="M90.628 47.7006L64.0157 57.5798L64.5676 58.5644L91.1799 48.6853L90.628 47.7006Z" fill="#E0E0E0"/>
<path d="M33.0218 40.5829L36.3364 41.5039L37.427 36.0453L39.04 36.4228L37.2257 43.1711L32.2267 41.2962L33.0218 40.5829Z" fill="url(#paint4_linear)"/>
<path d="M33.8825 40.367L36.7237 41.0826L37.6581 36.8371L39.04 37.131L37.485 42.3794L33.2 40.922L33.8825 40.367Z" fill="white"/>
<path d="M46.5358 62.536L49.377 63.2516L50.3114 59.0062L51.6933 59.3L50.1383 64.5484L45.8533 63.091L46.5358 62.536Z" fill="white"/>
<path d="M60.2385 78.1598L100.404 63.2496L106.407 73.9596L66.2415 88.8698L60.2385 78.1598Z" fill="white" stroke="black" stroke-width="0.3"/>
<path d="M94.1909 71.8626C92.6452 71.4922 91.0632 71.5626 90.5707 73.0473C90.4047 73.5477 90.3852 74.3246 89.7462 74.5825C88.8059 74.9621 87.6717 74.2028 86.8556 73.8934C85.335 73.3168 83.7739 73.7094 82.8936 74.9211C82.4472 75.5352 82.256 76.2418 82.104 76.9414C82.0384 77.2449 82.03 77.6199 81.878 77.9059C81.5864 78.4531 80.674 78.4039 80.0755 78.3828C79.9444 78.3828 79.8105 78.3699 79.6765 78.3582C80.1497 77.8107 80.3859 77.1438 80.3462 76.468C80.3071 75.3582 79.4491 74.1442 77.9494 74.2801C76.606 74.3973 75.6601 75.4871 75.8108 76.5899C75.9391 77.5274 76.6659 78.2539 77.5979 78.6992C77.1403 78.8691 76.652 79.0016 76.2195 79.1773C76.0175 79.2595 75.8214 79.3514 75.6322 79.4527C74.325 78.923 72.6076 78.8234 71.4316 79.3637C70.8624 79.625 71.2781 80.4019 71.8501 80.1383C72.7458 79.7269 73.7335 79.8301 74.6696 80.0914L74.7477 80.1148C74.6552 80.2144 74.5735 80.3206 74.5036 80.4324C73.9748 81.2949 74.5036 82.659 75.7898 82.7527C77.6034 82.8828 77.6885 80.8695 76.7036 80.068C76.6618 80.034 76.6199 80.0012 76.5753 79.9695C76.9826 79.8043 77.4235 79.6801 77.8127 79.5406C78.1518 79.42 78.4745 79.2691 78.7753 79.0906L78.8451 79.1059C80.2304 79.3695 82.3927 79.4516 82.8908 78.0418C83.3177 76.8184 83.3581 74.2203 85.66 74.4606C86.5989 74.5578 87.369 75.1637 88.2619 75.3828C89.0612 75.5832 89.9862 75.5914 90.6419 75.0969C91.1832 74.6891 91.3045 74.0868 91.4705 73.5243C91.5556 73.2336 91.6393 72.8868 91.9211 72.6793C92.4304 72.3055 93.2716 72.5258 93.8394 72.6618C94.4602 72.8094 94.8201 72.0126 94.1909 71.8626ZM76.1944 81.7754C75.8889 82.0297 75.5652 81.8281 75.402 81.5621C75.2039 81.2386 75.289 80.9199 75.5415 80.6351C75.5828 80.5886 75.627 80.544 75.674 80.5015C76.2781 80.8297 76.772 81.2996 76.2 81.7754H76.1944ZM77.2658 75.4473C77.8936 74.9575 78.7683 75.0653 79.1422 75.7379C79.5161 76.4106 79.3515 77.3598 78.8269 77.9527C78.7574 78.0305 78.6804 78.1034 78.5967 78.1707C78.2311 78.068 77.8932 77.906 77.602 77.6938C76.8599 77.1313 76.4399 76.0918 77.2714 75.4438L77.2658 75.4473Z" fill="#2B2929"/>
<path d="M101.333 50.0645L88.7402 59.0062L78.9467 44.4749L101.333 40.0041V50.0645Z" fill="#BE7C5E"/>
<path d="M39.0012 25.7526C39.0012 25.7526 43.2001 30.3789 68.0732 29.2223L82.61 46.5721L92.3511 55.2926C93.8811 56.6632 93.9678 58.7413 92.4657 60.1305C91.5531 60.9737 90.2406 61.4169 88.4241 60.4521C88.4241 60.4521 88.4241 66.235 81.1564 63.9219C81.1564 63.9219 78.2494 68.5482 72.4353 66.235C72.4353 66.235 72.4353 68.5482 68.0747 67.3916C63.7141 66.235 40.4547 51.1995 40.4547 51.1995L30.28 45.4167L39.0012 25.7526Z" fill="#FDA57D"/>
<path d="M91.1679 31.7055C91.1679 31.7055 85.2533 31.7055 79.4052 29.4691C74.087 27.4378 67.8942 27.6965 62.9871 30.3629C58.9877 32.5364 55.5225 36.1351 55.5876 42.0786C55.5876 42.0786 60.9099 46.6889 66.5367 37.4683H70.6426C70.6426 37.4683 74.5962 48.9952 85.6989 47.8403C96.8016 46.6854 99.3867 45.5352 99.3867 45.5352L91.1679 31.7055Z" fill="#BE7C5E"/>
<path d="M54.9762 54.1547L54.5258 53.7882C53.3091 52.798 51.3363 52.7979 50.1196 53.7882L46.8948 56.4126C45.678 57.4028 45.678 59.0083 46.8948 59.9985L47.3451 60.365C48.5619 61.3552 50.5346 61.3552 51.7513 60.365L54.9762 57.7405C56.1929 56.7503 56.1929 55.1449 54.9762 54.1547Z" fill="#BE7C5E"/>
<path d="M50.5042 49.8891L50.0539 49.5226C48.8372 48.5324 46.8644 48.5324 45.6477 49.5226L42.4229 52.1471C41.2061 53.1373 41.2061 54.7427 42.4229 55.7329L42.8732 56.0994C44.09 57.0897 46.0627 57.0897 47.2794 56.0994L50.5042 53.475C51.721 52.4848 51.721 50.8793 50.5042 49.8891Z" fill="#BE7C5E"/>
<path d="M61.2189 56.9766L60.7685 56.6101C59.5518 55.6199 57.5791 55.6199 56.3623 56.6101L52.4442 59.7988C51.2274 60.789 51.2274 62.3945 52.4442 63.3847L52.8945 63.7512C54.1112 64.7414 56.084 64.7414 57.3007 63.7512L61.2189 60.5625C62.4356 59.5722 62.4356 57.9668 61.2189 56.9766Z" fill="#BE7C5E"/>
<path d="M64.5046 60.9053L64.1902 60.6494C63.3405 59.9579 61.9628 59.9579 61.1132 60.6494L58.6402 62.6619C57.7905 63.3534 57.7905 64.4746 58.6402 65.1661L58.9547 65.422C59.8044 66.1135 61.182 66.1135 62.0317 65.422L64.5046 63.4095C65.3543 62.718 65.3543 61.5968 64.5046 60.9053Z" fill="#BE7C5E"/>
<path d="M114.96 52.0706L102.307 56.6309L89.6533 31.5481L100.902 28.1278L114.96 52.0706Z" fill="white"/>
<path d="M18.6 43.7415L30.2793 47.9216L41.96 24.9299L31.577 21.7938L18.6 43.7415Z" fill="white"/>
<path d="M13.7333 13.0845L34.1733 20.758L20.888 46.3381L13.7333 43.7803V13.0845Z" fill="#E68989"/>
<path d="M135.4 16.2515L98.4133 24.9151L115.674 55.8391L135.4 50.904V16.2515Z" fill="#FBC94A"/>
</g>
<defs>
<linearGradient id="paint0_linear" x1="19960.7" y1="-6227.97" x2="19813.2" y2="-6625.26" gradientUnits="userSpaceOnUse">
<stop stop-color="#808080" stop-opacity="0.25"/>
<stop offset="0.54" stop-color="#808080" stop-opacity="0.12"/>
<stop offset="1" stop-color="#808080" stop-opacity="0.1"/>
</linearGradient>
<linearGradient id="paint1_linear" x1="5886.82" y1="-1212.28" x2="5687.84" y2="-1756.93" gradientUnits="userSpaceOnUse">
<stop stop-color="#808080" stop-opacity="0.25"/>
<stop offset="0.54" stop-color="#808080" stop-opacity="0.12"/>
<stop offset="1" stop-color="#808080" stop-opacity="0.1"/>
</linearGradient>
<linearGradient id="paint2_linear" x1="8088.06" y1="1480.92" x2="7619.91" y2="219.817" gradientUnits="userSpaceOnUse">
<stop stop-color="#808080" stop-opacity="0.25"/>
<stop offset="0.54" stop-color="#808080" stop-opacity="0.12"/>
<stop offset="1" stop-color="#808080" stop-opacity="0.1"/>
</linearGradient>
<linearGradient id="paint3_linear" x1="9434.86" y1="3848.88" x2="8966.67" y2="2587.66" gradientUnits="userSpaceOnUse">
<stop stop-color="#808080" stop-opacity="0.25"/>
<stop offset="0.54" stop-color="#808080" stop-opacity="0.12"/>
<stop offset="1" stop-color="#808080" stop-opacity="0.1"/>
</linearGradient>
<linearGradient id="paint4_linear" x1="3779.39" y1="947.657" x2="3640.14" y2="590.898" gradientUnits="userSpaceOnUse">
<stop stop-color="#808080" stop-opacity="0.25"/>
<stop offset="0.54" stop-color="#808080" stop-opacity="0.12"/>
<stop offset="1" stop-color="#808080" stop-opacity="0.1"/>
</linearGradient>
<clipPath id="clip0">
<rect width="150" height="100" fill="white"/>
</clipPath>
</defs>
</svg>
