<svg width="150" height="100" viewBox="0 0 150 100" fill="none" xmlns="http://www.w3.org/2000/svg">
<g clip-path="url(#clip0)">
<path d="M34.752 66.1879L24.0274 27.6749C23.9479 27.3894 23.98 27.0825 24.1168 26.8217C24.2535 26.561 24.4837 26.3678 24.7566 26.2846L95.7547 4.64091C96.0276 4.558 96.3208 4.59176 96.5699 4.73479C96.819 4.87782 97.0037 5.11842 97.0835 5.40379L106.585 39.5236L106.291 39.6132L96.7895 5.49343C96.7324 5.28968 96.6004 5.11792 96.4225 5.01577C96.2446 4.91362 96.0353 4.88942 95.8404 4.94847L24.8422 26.5922C24.6473 26.6516 24.4829 26.7896 24.3852 26.9759C24.2876 27.1621 24.2646 27.3813 24.3214 27.5853L35.0459 66.0983L34.752 66.1879Z" fill="white" stroke="white"/>
<path d="M99.0579 16.0642L27.8071 37.0886L30.426 46.1919L101.677 25.1675L99.0579 16.0642Z" fill="#7C7C7C"/>
<path d="M91.6297 38.6096C91.4531 38.6094 91.2812 38.5578 91.1399 38.4624C90.9986 38.367 90.8954 38.2329 90.8458 38.0803L89.3708 33.5231C89.3105 33.336 89.3351 33.1351 89.4392 32.9644C89.5433 32.7936 89.7184 32.667 89.926 32.6123L94.9886 31.2845C95.1964 31.2303 95.4196 31.2524 95.6093 31.3461C95.799 31.4398 95.9396 31.5974 96.0003 31.7844L97.4753 36.3416C97.5356 36.5287 97.511 36.7296 97.4069 36.9004C97.3029 37.0711 97.1278 37.1977 96.9202 37.2524L91.8576 38.5802C91.7836 38.5997 91.7068 38.6096 91.6297 38.6096V38.6096Z" fill="#FBC94A"/>
<path d="M36.1405 28.4813C36.1154 28.394 36.0855 28.3082 36.051 28.2242C35.8164 27.6477 35.3798 27.1792 34.8249 26.9089C34.27 26.6386 33.636 26.5855 33.0448 26.7598C32.4536 26.9341 31.9469 27.3236 31.622 27.8533C31.2971 28.383 31.1769 29.0157 31.2846 29.6296C31.2998 29.7192 31.3199 29.8079 31.345 29.8951C31.4969 30.4203 31.8127 30.8816 32.2452 31.2097C32.6776 31.5379 33.2034 31.7154 33.7438 31.7156C33.9797 31.7162 34.2145 31.6821 34.4407 31.6145C35.0759 31.4265 35.6115 30.9911 35.9302 30.4038C36.2488 29.8164 36.3245 29.1251 36.1405 28.4813V28.4813ZM34.3242 31.2099C33.7945 31.3656 33.2255 31.3022 32.7419 31.0336C32.2583 30.765 31.8996 30.3132 31.7444 29.7771C31.7201 29.6898 31.7006 29.6012 31.6861 29.5117C31.6081 29.0058 31.7147 28.4884 31.9859 28.0564C32.2572 27.6243 32.6745 27.3071 33.16 27.164C33.6454 27.021 34.1657 27.0619 34.6235 27.2791C35.0813 27.4964 35.4453 27.875 35.6474 28.3443C35.6851 28.4267 35.7164 28.512 35.7411 28.5993C35.8946 29.1358 35.8316 29.712 35.566 30.2015C35.3003 30.691 34.8537 31.0537 34.3242 31.2099V31.2099Z" fill="#FBC94A"/>
<path d="M29.1398 30.1215C29.0066 29.6585 29.0194 29.1648 29.1764 28.7095C29.3333 28.2541 29.6266 27.8596 30.0153 27.581C29.6511 27.5631 29.2879 27.6335 28.956 27.7865C28.6241 27.9394 28.3331 28.1705 28.1073 28.4604C27.8814 28.7503 27.7272 29.0907 27.6575 29.4532C27.5879 29.8157 27.6047 30.1898 27.7067 30.5444C27.8088 30.899 27.9929 31.2237 28.2439 31.4916C28.495 31.7594 28.8056 31.9627 29.1498 32.0844C29.4941 32.2061 29.8621 32.2427 30.2232 32.1912C30.5843 32.1396 30.928 32.0015 31.2257 31.7882C30.75 31.7647 30.2934 31.5915 29.9195 31.2927C29.5457 30.994 29.2731 30.5846 29.1398 30.1215V30.1215Z" fill="#FBC94A"/>
<path d="M115.419 39.5289H36.0275C35.7225 39.5292 35.43 39.6521 35.2143 39.8706C34.9986 40.089 34.8773 40.3852 34.8769 40.6942V88.3042C34.8773 88.6131 34.9986 88.9093 35.2143 89.1278C35.43 89.3462 35.7225 89.4691 36.0275 89.4694H115.419C115.724 89.4691 116.016 89.3462 116.232 89.1278C116.448 88.9093 116.569 88.6131 116.569 88.3042V40.6942C116.569 40.3852 116.448 40.089 116.232 39.8706C116.016 39.6521 115.724 39.5292 115.419 39.5289V39.5289ZM116.24 88.3042C116.24 88.5249 116.154 88.7365 116 88.8926C115.846 89.0487 115.637 89.1364 115.419 89.1365H36.0275C35.8096 89.1364 35.6006 89.0487 35.4465 88.8926C35.2924 88.7365 35.2057 88.5249 35.2057 88.3042V40.6942C35.2058 40.4734 35.2924 40.2618 35.4465 40.1057C35.6006 39.9496 35.8096 39.8619 36.0275 39.8618H115.419C115.637 39.8619 115.846 39.9496 116 40.1057C116.154 40.2618 116.24 40.4734 116.24 40.6942V88.3042Z" fill="white" stroke="white"/>
<path d="M44.7886 48.2629C44.2948 48.2629 43.8121 48.1146 43.4016 47.8368C42.991 47.559 42.671 47.1641 42.4821 46.7021C42.2931 46.24 42.2436 45.7317 42.34 45.2412C42.4363 44.7507 42.6741 44.3002 43.0232 43.9466C43.3724 43.593 43.8173 43.3521 44.3016 43.2546C44.7858 43.157 45.2878 43.2071 45.744 43.3985C46.2002 43.5898 46.5901 43.9139 46.8645 44.3297C47.1388 44.7455 47.2852 45.2344 47.2852 45.7345C47.2845 46.4048 47.0212 47.0475 46.5531 47.5215C46.0851 47.9955 45.4505 48.2622 44.7886 48.2629V48.2629ZM44.7886 43.6274C44.3771 43.6274 43.9749 43.751 43.6327 43.9825C43.2906 44.214 43.0239 44.5431 42.8665 44.9281C42.709 45.3131 42.6678 45.7368 42.7481 46.1455C42.8284 46.5543 43.0265 46.9297 43.3175 47.2244C43.6084 47.519 43.9791 47.7197 44.3827 47.801C44.7863 47.8823 45.2046 47.8406 45.5848 47.6811C45.965 47.5216 46.2899 47.2516 46.5185 46.9051C46.7471 46.5586 46.8691 46.1512 46.8691 45.7345C46.8685 45.1758 46.6491 44.6403 46.2591 44.2452C45.869 43.8502 45.3402 43.628 44.7886 43.6274V43.6274Z" fill="#FBC94A"/>
<path d="M40.908 45.7345C40.9081 45.2522 41.0567 44.7819 41.3331 44.3892C41.6096 43.9964 42.0001 43.7008 42.4503 43.5434C42.1056 43.423 41.7374 43.3877 41.3766 43.4406C41.0157 43.4934 40.6724 43.6328 40.3755 43.8472C40.0786 44.0615 39.8365 44.3446 39.6695 44.6729C39.5025 45.0012 39.4154 45.3652 39.4154 45.7345C39.4154 46.1038 39.5025 46.4677 39.6695 46.796C39.8365 47.1243 40.0786 47.4075 40.3755 47.6218C40.6724 47.8362 41.0157 47.9756 41.3766 48.0284C41.7374 48.0812 42.1056 48.046 42.4503 47.9255C42.0001 47.7682 41.6096 47.4726 41.3331 47.0798C41.0567 46.6871 40.9081 46.2168 40.908 45.7345V45.7345Z" fill="#FBC94A"/>
<path d="M44.0109 71.9925C43.5145 71.992 43.0385 71.792 42.6875 71.4365C42.3365 71.081 42.139 70.599 42.1385 70.0962V64.4071C42.1385 63.9042 42.3357 63.4219 42.6869 63.0662C43.038 62.7106 43.5143 62.5108 44.0109 62.5108C44.5075 62.5108 44.9838 62.7106 45.3349 63.0662C45.6861 63.4219 45.8834 63.9042 45.8834 64.4071V70.0962C45.8828 70.599 45.6853 71.081 45.3343 71.4365C44.9833 71.792 44.5073 71.992 44.0109 71.9925V71.9925Z" fill="#FBC94A"/>
<path d="M49.0041 71.9925C48.5077 71.992 48.0318 71.792 47.6807 71.4365C47.3297 71.081 47.1322 70.599 47.1317 70.0962V64.4071C47.1317 63.9042 47.3289 63.4219 47.6801 63.0662C48.0312 62.7106 48.5075 62.5108 49.0041 62.5108C49.5007 62.5108 49.977 62.7106 50.3281 63.0662C50.6793 63.4219 50.8766 63.9042 50.8766 64.4071V70.0962C50.876 70.599 50.6785 71.081 50.3275 71.4365C49.9765 71.792 49.5005 71.992 49.0041 71.9925V71.9925Z" fill="#FBC94A"/>
<path d="M53.9973 71.9925C53.5009 71.992 53.025 71.792 52.6739 71.4365C52.3229 71.081 52.1254 70.599 52.1249 70.0962V64.4071C52.1249 63.9042 52.3222 63.4219 52.6733 63.0662C53.0245 62.7106 53.5007 62.5108 53.9973 62.5108C54.4939 62.5108 54.9702 62.7106 55.3213 63.0662C55.6725 63.4219 55.8698 63.9042 55.8698 64.4071V70.0962C55.8692 70.599 55.6718 71.081 55.3207 71.4365C54.9697 71.792 54.4938 71.992 53.9973 71.9925V71.9925Z" fill="#FBC94A"/>
<path d="M61.6952 71.9925C61.1988 71.992 60.7228 71.792 60.3718 71.4365C60.0208 71.081 59.8233 70.599 59.8227 70.0962V64.4071C59.8227 63.9042 60.02 63.4219 60.3712 63.0662C60.7223 62.7106 61.1986 62.5108 61.6952 62.5108C62.1918 62.5108 62.668 62.7106 63.0192 63.0662C63.3704 63.4219 63.5676 63.9042 63.5676 64.4071V70.0962C63.5671 70.599 63.3696 71.081 63.0186 71.4365C62.6676 71.792 62.1916 71.992 61.6952 71.9925V71.9925Z" fill="#FBC94A"/>
<path d="M66.6884 71.9925C66.192 71.992 65.716 71.792 65.365 71.4365C65.014 71.081 64.8165 70.599 64.8159 70.0962V64.4071C64.8159 63.9042 65.0132 63.4219 65.3644 63.0662C65.7155 62.7106 66.1918 62.5108 66.6884 62.5108C67.185 62.5108 67.6613 62.7106 68.0124 63.0662C68.3636 63.4219 68.5608 63.9042 68.5608 64.4071V70.0962C68.5603 70.599 68.3628 71.081 68.0118 71.4365C67.6608 71.792 67.1848 71.992 66.6884 71.9925V71.9925Z" fill="#FBC94A"/>
<path d="M71.6816 71.9925C71.1852 71.992 70.7092 71.792 70.3582 71.4365C70.0072 71.081 69.8097 70.599 69.8091 70.0962V64.4071C69.8091 63.9042 70.0064 63.4219 70.3576 63.0662C70.7087 62.7106 71.185 62.5108 71.6816 62.5108C72.1782 62.5108 72.6545 62.7106 73.0056 63.0662C73.3568 63.4219 73.554 63.9042 73.554 64.4071V70.0962C73.5535 70.599 73.356 71.081 73.005 71.4365C72.654 71.792 72.178 71.992 71.6816 71.9925V71.9925Z" fill="#FBC94A"/>
<path d="M79.3795 71.9925C78.883 71.992 78.4071 71.792 78.0561 71.4365C77.7051 71.081 77.5076 70.599 77.507 70.0962V64.4071C77.507 63.9042 77.7043 63.4219 78.0554 63.0662C78.4066 62.7106 78.8829 62.5108 79.3795 62.5108C79.8761 62.5108 80.3523 62.7106 80.7035 63.0662C81.0546 63.4219 81.2519 63.9042 81.2519 64.4071V70.0962C81.2514 70.599 81.0539 71.081 80.7029 71.4365C80.3518 71.792 79.8759 71.992 79.3795 71.9925V71.9925Z" fill="#FBC94A"/>
<path d="M84.3727 71.9925C83.8762 71.992 83.4003 71.792 83.0493 71.4365C82.6983 71.081 82.5008 70.599 82.5002 70.0962V64.4071C82.5002 63.9042 82.6975 63.4219 83.0487 63.0662C83.3998 62.7106 83.8761 62.5108 84.3727 62.5108C84.8693 62.5108 85.3455 62.7106 85.6967 63.0662C86.0478 63.4219 86.2451 63.9042 86.2451 64.4071V70.0962C86.2446 70.599 86.0471 71.081 85.6961 71.4365C85.345 71.792 84.8691 71.992 84.3727 71.9925V71.9925Z" fill="#FBC94A"/>
<path d="M89.3659 71.9925C88.8695 71.992 88.3935 71.792 88.0425 71.4365C87.6915 71.081 87.494 70.599 87.4934 70.0962V64.4071C87.4934 63.9042 87.6907 63.4219 88.0419 63.0662C88.393 62.7106 88.8693 62.5108 89.3659 62.5108C89.8625 62.5108 90.3388 62.7106 90.6899 63.0662C91.0411 63.4219 91.2383 63.9042 91.2383 64.4071V70.0962C91.2378 70.599 91.0403 71.081 90.6893 71.4365C90.3383 71.792 89.8623 71.992 89.3659 71.9925V71.9925Z" fill="#FBC94A"/>
<path d="M96.6571 71.9925C96.1606 71.992 95.6847 71.792 95.3337 71.4365C94.9827 71.081 94.7852 70.599 94.7846 70.0962V64.4071C94.7846 63.9042 94.9819 63.4219 95.333 63.0662C95.6842 62.7106 96.1605 62.5108 96.6571 62.5108C97.1537 62.5108 97.6299 62.7106 97.9811 63.0662C98.3322 63.4219 98.5295 63.9042 98.5295 64.4071V70.0962C98.529 70.599 98.3315 71.081 97.9805 71.4365C97.6294 71.792 97.1535 71.992 96.6571 71.9925V71.9925Z" fill="#FBC94A"/>
<path d="M102.103 71.9925C101.607 71.992 101.131 71.792 100.78 71.4365C100.429 71.081 100.231 70.599 100.231 70.0962V64.4071C100.231 63.9042 100.428 63.4219 100.779 63.0662C101.13 62.7106 101.607 62.5108 102.103 62.5108C102.6 62.5108 103.076 62.7106 103.427 63.0662C103.778 63.4219 103.976 63.9042 103.976 64.4071V70.0962C103.975 70.599 103.778 71.081 103.427 71.4365C103.076 71.792 102.6 71.992 102.103 71.9925V71.9925Z" fill="#FBC94A"/>
<path d="M107.549 71.9925C107.053 71.992 106.577 71.792 106.226 71.4365C105.875 71.081 105.677 70.599 105.677 70.0962V64.4071C105.677 63.9042 105.874 63.4219 106.225 63.0662C106.577 62.7106 107.053 62.5108 107.549 62.5108C108.046 62.5108 108.522 62.7106 108.873 63.0662C109.225 63.4219 109.422 63.9042 109.422 64.4071V70.0962C109.421 70.599 109.224 71.081 108.873 71.4365C108.522 71.792 108.046 71.992 107.549 71.9925V71.9925Z" fill="#FBC94A"/>
<path d="M80.2541 86.412H41.2382C40.7547 86.412 40.2911 86.2667 39.9493 86.0081C39.6074 85.7495 39.4154 85.3988 39.4154 85.0331C39.4154 84.6674 39.6074 84.3166 39.9493 84.058C40.2911 83.7994 40.7547 83.6542 41.2382 83.6542H80.2541C80.7376 83.6542 81.2012 83.7994 81.543 84.058C81.8849 84.3166 82.0769 84.6674 82.0769 85.0331C82.0769 85.3988 81.8849 85.7495 81.543 86.0081C81.2012 86.2667 80.7376 86.412 80.2541 86.412Z" fill="#E6E6E6"/>
<path d="M66.9311 80.8963H48.2074C47.5608 80.8963 46.9406 80.751 46.4834 80.4924C46.0261 80.2339 45.7692 79.8831 45.7692 79.5174C45.7692 79.1517 46.0261 78.801 46.4834 78.5424C46.9406 78.2838 47.5608 78.1385 48.2074 78.1385H66.9311C67.5777 78.1385 68.1979 78.2838 68.6551 78.5424C69.1124 78.801 69.3692 79.1517 69.3692 79.5174C69.3692 79.8831 69.1124 80.2339 68.6551 80.4924C68.1979 80.751 67.5777 80.8963 66.9311 80.8963V80.8963Z" fill="#E6E6E6"/>
<path d="M116.569 53.318H34.8769V53.6537H116.569V53.318Z" fill="white"/>
</g>
<defs>
<clipPath id="clip0">
<rect width="150" height="100" fill="white"/>
</clipPath>
</defs>
</svg>
