<svg width="150" height="100" viewBox="0 0 150 100" fill="none" xmlns="http://www.w3.org/2000/svg">
<g clip-path="url(#clip0)">
<g clip-path="url(#clip1)">
<path d="M127.46 32.2718C127.017 31.7794 126.418 31.4191 125.665 31.2843C125.008 31.1667 124.333 31.1867 123.665 31.1908L115.224 31.2425C114.501 31.247 113.808 31.7446 113.841 32.341C113.875 32.9324 114.449 33.4443 115.224 33.4396C117.697 33.4244 120.169 33.4093 122.642 33.3941C123.225 33.3905 123.808 33.3822 124.391 33.3837C124.522 33.384 124.653 33.3895 124.783 33.3907C124.815 33.391 124.838 33.3908 124.854 33.3902C124.858 33.3912 124.862 33.3921 124.867 33.3932C124.935 33.4081 125.005 33.4184 125.074 33.4325C125.05 33.4331 125.118 33.4671 125.153 33.4786C125.157 33.486 125.167 33.4992 125.184 33.5195C125.208 33.5545 125.277 33.6608 125.28 33.6574C125.385 33.8675 125.471 34.0829 125.538 34.3023C125.699 34.7862 125.734 34.8873 125.757 35.3412C125.787 35.9147 126.372 36.4671 127.14 36.4397C127.864 36.414 128.554 35.9562 128.522 35.3412C128.47 34.3049 128.241 33.1408 127.46 32.2718Z" fill="#FBC94A"/>
<path d="M115.72 34.7506C115.562 33.9872 115.406 33.2233 115.244 32.4603C115.08 31.6862 114.745 30.9774 113.987 30.4694C113.785 30.3337 113.575 30.2069 113.364 30.0806C113.29 30.0362 113.216 29.9917 113.142 29.9463C113.138 29.9436 113.135 29.9419 113.131 29.9396C113.123 29.9341 113.114 29.9275 113.101 29.9188C112.785 29.7063 112.479 29.4844 112.189 29.2485C111.93 29.039 111.683 28.8205 111.448 28.5932C111.389 28.5364 111.331 28.4791 111.273 28.4213C111.263 28.4113 111.21 28.3567 111.175 28.3211C111.143 28.2855 111.083 28.2211 111.073 28.2098C111.006 28.1345 110.94 28.0585 110.876 27.9818C110.435 27.4576 110.054 26.9035 109.736 26.3261C109.705 26.2688 109.674 26.2112 109.644 26.1533C109.636 26.1356 109.625 26.1129 109.611 26.0826C109.547 25.9427 109.483 25.8029 109.425 25.6613C109.3 25.3605 109.193 25.0553 109.104 24.7457C109.06 24.5928 109.02 24.4391 108.984 24.2847C108.966 24.2052 108.949 24.1257 108.933 24.0459C108.931 24.0327 108.915 23.9466 108.906 23.898C108.899 23.8491 108.887 23.7626 108.885 23.7493C108.875 23.6689 108.866 23.5884 108.858 23.5078C108.84 23.3266 108.828 23.145 108.822 22.9632C108.811 22.64 108.819 22.3168 108.844 21.9936C108.858 21.812 108.879 21.6309 108.904 21.4502C108.905 21.4391 108.907 21.4302 108.908 21.4223C108.909 21.4142 108.911 21.405 108.913 21.3936C108.932 21.2937 108.951 21.194 108.973 21.0945C109.056 20.7169 109.164 20.3431 109.296 19.9745C109.359 19.8002 109.427 19.6273 109.5 19.4558C109.533 19.3796 109.567 19.3038 109.602 19.2283C109.599 19.2331 109.704 19.0212 109.705 19.0141C110.12 18.2363 110.797 17.5272 110.798 16.6436C110.799 16.0454 110.162 15.4723 109.416 15.5C109.044 15.5111 108.692 15.6366 108.434 15.8499C108.176 16.0632 108.032 16.3478 108.033 16.6436C108.033 16.6571 108.033 16.6685 108.033 16.6796C108.026 16.6983 108.02 16.7138 108.015 16.7275C107.934 16.8671 107.835 16.9996 107.747 17.1357C107.504 17.508 107.296 17.8926 107.099 18.2828C106.777 18.9183 106.53 19.5763 106.362 20.2483C105.998 21.7208 105.969 23.2334 106.279 24.7138C106.815 27.3099 108.583 29.795 111.04 31.4654C111.253 31.6104 111.472 31.7504 111.692 31.8877C111.784 31.9445 111.876 32.0002 111.968 32.0556C112.012 32.0818 112.193 32.1953 112.113 32.1403C112.285 32.2564 112.357 32.3149 112.401 32.4005C112.407 32.4202 112.416 32.447 112.428 32.4836C112.459 32.5801 112.488 32.6763 112.513 32.7742C112.726 33.6291 112.875 34.4983 113.054 35.3587C113.177 35.9498 114.093 36.3346 114.754 36.1574C115.525 35.9512 115.852 35.3841 115.72 34.7506Z" fill="#FBC94A"/>
<path d="M127.599 36.9679C127.019 36.9691 126.461 36.7872 126.049 36.4623C125.637 36.1373 125.404 35.6957 125.401 35.2343V33.9812C123.75 34.1281 118.096 34.0941 116.475 33.8872V35.1842C116.471 35.6452 116.238 36.0861 115.826 36.4108C115.414 36.7356 114.857 36.9178 114.277 36.9178C113.697 36.9178 113.14 36.7356 112.729 36.4108C112.317 36.0861 112.083 35.6452 112.079 35.1842V32.6376C109.884 31.6686 108.054 30.2518 106.778 28.5333C105.502 26.8148 104.826 24.8569 104.821 22.8617C104.821 19.4405 106.772 16.2491 110.174 14.1057C112.387 12.7073 115.074 11.8664 117.893 11.6908C118.275 11.667 118.66 11.6549 119.036 11.6549C120.363 11.6549 126.348 11.8177 127.85 12.161L131.274 9.46131C131.324 9.42108 131.389 9.39368 131.459 9.38259C131.529 9.3715 131.601 9.37724 131.667 9.39906C131.734 9.42005 131.79 9.4565 131.83 9.50363C131.87 9.55077 131.891 9.60638 131.891 9.66316V10.0924L132.557 9.56772C132.607 9.52745 132.672 9.5 132.742 9.48889C132.812 9.47779 132.884 9.48352 132.95 9.50536C133.017 9.52634 133.073 9.5628 133.113 9.60995C133.153 9.65711 133.174 9.71275 133.174 9.76956V14.5662C134.892 15.797 136.201 17.3455 136.986 19.0746C137.771 20.8037 138.007 22.6599 137.673 24.4787C137.339 26.2976 136.446 28.0229 135.072 29.5018C133.698 30.9807 131.887 32.1675 129.798 32.957V35.2343C129.795 35.6957 129.562 36.1373 129.15 36.4623C128.738 36.7872 128.18 36.9691 127.599 36.9679V36.9679ZM125.574 33.8255V35.2343C125.578 35.6589 125.794 36.0648 126.173 36.3638C126.552 36.6628 127.065 36.8305 127.599 36.8305C128.134 36.8305 128.646 36.6628 129.026 36.3638C129.405 36.0648 129.621 35.6589 129.625 35.2343V32.8703L129.674 32.8517C132.018 31.9679 134.008 30.5852 135.423 28.8571C137.226 26.652 137.976 24.0069 137.537 21.4005C137.098 18.7942 135.499 16.3988 133.03 14.648L133.001 14.6275V9.76956C133.001 9.74004 132.991 9.71109 132.97 9.68659C132.949 9.66209 132.92 9.64323 132.885 9.63255C132.85 9.62085 132.812 9.61769 132.776 9.62349C132.739 9.62929 132.705 9.64377 132.679 9.66503L131.718 10.4217V9.66315C131.718 9.63364 131.708 9.60468 131.687 9.58018C131.666 9.55569 131.636 9.53683 131.602 9.52614C131.567 9.51447 131.529 9.51134 131.492 9.51718C131.456 9.52302 131.422 9.53755 131.396 9.55886L127.898 12.3164L127.848 12.304C126.452 11.9568 120.373 11.7922 119.036 11.7922C118.664 11.7922 118.284 11.8041 117.906 11.8277C115.122 12.0011 112.467 12.8319 110.282 14.2133C106.921 16.3305 104.993 19.4827 104.993 22.8617C104.999 24.8393 105.671 26.7796 106.94 28.481C108.208 30.1825 110.027 31.583 112.207 32.5371L112.252 32.5567V35.1842C112.256 35.6087 112.472 36.0146 112.851 36.3135C113.23 36.6124 113.743 36.7802 114.277 36.7802C114.811 36.7802 115.324 36.6124 115.703 36.3135C116.083 36.0146 116.298 35.6087 116.303 35.1842V33.7228L116.405 33.7381C117.861 33.9558 123.994 33.9901 125.476 33.8357L125.574 33.8255Z" fill="#E6E6E6" stroke="white" stroke-width="0.7"/>
<path d="M121.427 1.63036C119.855 1.63085 118.345 2.11729 117.216 2.98673C116.088 3.85617 115.43 5.04038 115.381 6.28871C115.379 6.33746 115.378 6.38689 115.378 6.43633C115.378 7.38685 115.733 8.31604 116.397 9.10637C117.062 9.89671 118.007 10.5127 119.112 10.8765C120.217 11.2402 121.433 11.3354 122.607 11.1499C123.78 10.9645 124.858 10.5068 125.703 9.83465C126.549 9.16253 127.125 8.30619 127.359 7.37392C127.592 6.44166 127.472 5.47534 127.015 4.59716C126.557 3.71899 125.782 2.9684 124.787 2.44031C123.792 1.91223 122.623 1.63036 121.427 1.63036V1.63036ZM121.427 11.105C119.869 11.1037 118.375 10.6114 117.274 9.73613C116.172 8.86087 115.552 7.67413 115.551 6.43633C115.551 6.37247 115.553 6.30931 115.556 6.24683C115.603 5.33231 115.987 4.4489 116.66 3.70643C117.334 2.96396 118.268 2.39521 119.345 2.07088C120.422 1.74655 121.595 1.68096 122.719 1.88227C123.843 2.08357 124.867 2.54289 125.665 3.20311C126.463 3.86333 126.999 4.69532 127.206 5.59563C127.414 6.49594 127.283 7.42484 126.832 8.26683C126.38 9.10883 125.627 9.82677 124.666 10.3314C123.705 10.836 122.578 11.105 121.427 11.105V11.105Z" fill="#E6E6E6"/>
<path d="M126.525 6.43632C126.525 7.51064 125.987 8.54097 125.031 9.30063C124.075 10.0603 122.779 10.4871 121.427 10.4871C120.074 10.4871 118.778 10.0603 117.822 9.30063C116.866 8.54097 116.328 7.51064 116.328 6.43632C116.328 6.30793 116.336 6.18161 116.351 6.05665C116.474 5.01982 117.094 4.06041 118.084 3.37764C119.074 2.69488 120.356 2.3412 121.666 2.39006C122.975 2.43892 124.21 2.88656 125.115 3.64003C126.02 4.3935 126.525 5.3949 126.525 6.43632V6.43632Z" fill="#E6E6E6"/>
<path d="M122.945 6.70541C122.821 6.57632 122.659 6.47407 122.472 6.40813C122.242 6.3311 122.004 6.2691 121.762 6.22276V5.12013C122.135 5.16483 122.485 5.29158 122.772 5.48607L123.054 5.00891C122.892 4.89422 122.706 4.80291 122.504 4.73909C122.281 4.66721 122.046 4.61941 121.807 4.59697V4.0381H121.154V4.60246C120.902 4.62494 120.659 4.68977 120.441 4.79264C120.245 4.88523 120.079 5.01432 119.958 5.16888C119.844 5.31971 119.784 5.49307 119.787 5.66938C119.775 5.86045 119.845 6.04899 119.984 6.20491C120.113 6.3399 120.282 6.4467 120.477 6.51523C120.711 6.59453 120.952 6.65815 121.199 6.70541V7.76204C120.759 7.73565 120.34 7.60266 119.997 7.38099L119.716 7.85885C119.907 7.98453 120.125 8.08259 120.359 8.14858C120.615 8.22147 120.883 8.26583 121.154 8.2804V8.83446H121.807V8.2701C122.169 8.23864 122.509 8.11484 122.775 7.9172C122.893 7.82779 122.985 7.71998 123.048 7.60061C123.11 7.48125 123.14 7.35293 123.137 7.22377C123.147 7.0388 123.08 6.85628 122.945 6.70541V6.70541ZM121.199 6.10604C121.04 6.06775 120.893 6.00474 120.765 5.92067C120.714 5.88482 120.674 5.84049 120.647 5.79087C120.621 5.74125 120.608 5.68757 120.611 5.63368C120.606 5.5114 120.663 5.39263 120.768 5.30345C120.885 5.20988 121.036 5.1477 121.199 5.12562V6.10604ZM122.171 7.56706C122.061 7.65688 121.918 7.71631 121.762 7.73664V6.82762C121.911 6.85937 122.05 6.91472 122.171 6.99034C122.217 7.02155 122.254 7.0606 122.278 7.10458C122.303 7.14856 122.314 7.19634 122.312 7.24437C122.318 7.3622 122.268 7.47747 122.171 7.56706V7.56706Z" fill="#2B2929"/>
<path d="M105.417 19.4296C104.211 19.2881 103.058 18.9417 102.036 18.414C101.53 18.1528 101.062 17.8482 100.639 17.5058C100.222 17.1677 99.8227 16.7835 99.616 16.3332C99.4172 15.9166 99.4275 15.4553 99.6446 15.0446C99.8589 14.6364 100.268 14.3123 100.783 14.1434C101.3 13.9794 101.925 13.9619 102.429 14.1415C102.669 14.2251 102.877 14.3579 103.031 14.5264C103.102 14.604 103.155 14.6915 103.187 14.7844C103.217 14.8686 103.219 14.9573 103.195 15.0425C103.166 15.1275 103.113 15.2066 103.042 15.2744C102.971 15.3422 102.883 15.397 102.783 15.4354C102.562 15.5251 102.324 15.5829 102.078 15.6061C101.831 15.6329 101.476 15.6572 101.277 15.4996C101.236 15.4684 101.204 15.4307 101.183 15.389C101.168 15.3571 101.163 15.3227 101.168 15.2889C101.165 15.3038 101.18 15.2565 101.179 15.2584C101.176 15.2654 101.162 15.2824 101.182 15.2562C101.188 15.2476 101.195 15.2393 101.202 15.2313C101.195 15.238 101.181 15.2493 101.207 15.23C101.228 15.2115 101.255 15.1981 101.286 15.1912C101.298 15.1885 101.31 15.1863 101.322 15.1837C101.352 15.177 101.291 15.184 101.323 15.1832C101.335 15.1829 101.347 15.1832 101.359 15.1827C101.389 15.1816 101.329 15.1761 101.358 15.182C101.369 15.1842 101.381 15.1864 101.392 15.1893C101.416 15.1954 101.375 15.175 101.391 15.1902C101.41 15.2081 101.371 15.1729 101.393 15.1902C101.404 15.1987 101.414 15.2077 101.424 15.2172C101.462 15.2472 101.513 15.2639 101.567 15.2639C101.62 15.2639 101.672 15.2472 101.71 15.2172C101.747 15.1866 101.767 15.1458 101.767 15.1034C101.767 15.061 101.747 15.0203 101.71 14.9896C101.51 14.7929 101.116 14.8415 100.914 15.0078C100.656 15.2198 100.758 15.5559 101.009 15.7409C101.293 15.9504 101.694 15.9649 102.059 15.9298C102.368 15.9063 102.668 15.8388 102.947 15.7305C103.223 15.6226 103.439 15.4369 103.554 15.2096C103.605 15.0882 103.624 14.9596 103.608 14.8321C103.592 14.7046 103.543 14.5813 103.462 14.4702C103.14 13.9888 102.473 13.7421 101.813 13.6993C101.474 13.6782 101.132 13.7108 100.809 13.7952C100.485 13.8796 100.186 14.0142 99.928 14.1911C99.4312 14.5464 99.1254 15.0399 99.0736 15.5694C99.016 16.1183 99.2841 16.6515 99.6749 17.0945C100.084 17.5447 100.572 17.9459 101.125 18.2859C102.205 18.9711 103.472 19.4458 104.824 19.6722C104.985 19.6986 105.147 19.7212 105.309 19.74C105.361 19.7499 105.416 19.7438 105.462 19.723C105.508 19.7021 105.543 19.668 105.558 19.6276C105.572 19.5864 105.565 19.5426 105.539 19.5055C105.512 19.4685 105.468 19.4412 105.417 19.4296L105.417 19.4296Z" fill="#FBC94A"/>
<path d="M121.523 14.2706C121.322 14.2706 116.6 14.2602 116.6 13.357C116.6 12.4539 121.322 12.4435 121.523 12.4435C121.724 12.4435 126.446 12.4539 126.446 13.357C126.446 14.2602 121.724 14.2706 121.523 14.2706ZM116.785 13.357C116.914 13.6308 118.65 14.0186 121.523 14.0186C124.397 14.0186 126.132 13.6308 126.262 13.357C126.132 13.0832 124.397 12.6955 121.523 12.6955C118.65 12.6955 116.914 13.0832 116.785 13.357V13.357Z" fill="#E6E6E6" stroke="white" stroke-width="0.2"/>
<path d="M136.336 26.2913C137.328 26.2694 138.564 26.242 139.516 25.6896C139.799 25.5183 140.032 25.2999 140.198 25.0496C140.364 24.7993 140.459 24.5232 140.477 24.2407C140.496 23.8044 140.298 23.4236 139.918 23.1687C139.421 22.8349 138.695 22.7566 137.913 22.9393L138.723 18.233L138.128 18.1682L137.175 23.7011L137.672 23.5199C138.248 23.31 139.039 23.2031 139.53 23.5331C139.651 23.6193 139.745 23.7265 139.805 23.8463C139.865 23.9662 139.889 24.0954 139.876 24.2239C139.862 24.4342 139.79 24.6395 139.667 24.8259C139.544 25.0124 139.371 25.1755 139.161 25.3042C138.421 25.7341 137.436 25.7895 136.319 25.8143L136.336 26.2913Z" fill="#FBC94A"/>
<path d="M134.691 18.6389H131.456V19.116H134.691V18.6389Z" fill="#E6E6E6" stroke="white" stroke-width="0.5"/>
</g>
<g clip-path="url(#clip2)">
<path d="M76.1339 32.178C81.8295 32.178 86.4467 27.6878 86.4467 22.1488C86.4467 16.6098 81.8295 12.1195 76.1339 12.1195C70.4383 12.1195 65.8212 16.6098 65.8212 22.1488C65.8212 27.6878 70.4383 32.178 76.1339 32.178Z" fill="#A0616A"/>
<path d="M68.4367 27.1634C68.4367 27.1634 70.3797 41.4079 67.3905 43.0067C64.4013 44.6056 85.1763 44.7509 85.1763 44.7509C85.1763 44.7509 80.543 32.3961 82.6354 28.6169L68.4367 27.1634Z" fill="#A0616A"/>
<path d="M100.346 44.823L98.6185 52.4742L94.9653 68.6618L94.8559 69.5483L93.5951 79.8113L92.7565 86.6292L92.1941 91.209C88.775 92.918 86.297 94.0977 86.297 94.0977C86.297 94.0977 86.0838 93.0584 85.7402 91.7287C83.3407 92.4283 78.9007 93.589 75.138 93.8208C76.5082 95.3061 77.1379 96.7013 76.2838 97.731C73.7062 100.835 63.0647 94.3323 59.3427 91.9073C59.2561 92.4879 59.2232 93.0749 59.2446 93.6613L56.3963 91.5309L56.6782 86.6292L57.1536 78.3356L57.751 67.9349C57.5626 67.4895 57.4047 67.0325 57.2784 66.5669C56.4061 63.5501 55.3473 57.5259 54.5353 52.4742C53.8818 48.4085 53.3909 44.973 53.2871 44.242C53.2731 44.1465 53.2661 44.0974 53.2661 44.0974L69.0334 37.3218C70.1539 39.849 75.3863 40.6086 75.3863 40.6086C79.7211 40.3181 83.1191 38.0951 83.1191 38.0951L100.346 44.823Z" fill="#D0CDE1"/>
<path d="M87.4932 91.1913C87.4932 91.1913 86.8257 91.4136 85.7402 91.7287C83.3407 92.4283 78.9007 93.589 75.138 93.8208C71.8985 94.0227 69.161 93.5371 68.6603 91.4818C68.4457 90.598 68.7501 89.8711 69.4134 89.2737C71.3936 87.4885 76.5657 86.8488 80.6677 86.6292C81.8261 86.5679 82.8975 86.5392 83.7895 86.5283C85.3041 86.5092 86.297 86.5392 86.297 86.5392L86.3208 86.6292L87.4932 91.1913Z" fill="#A0616A"/>
<path d="M67.5547 12.662L65.6264 11.9113C65.6264 11.9113 69.6582 7.59456 75.2676 7.96994L73.6899 6.28077C73.6899 6.28077 77.5464 4.77932 81.0523 8.72065C82.8952 10.7925 85.0276 13.2279 86.3568 15.9713H88.4218L87.56 17.8169L90.5765 19.6624L87.4803 19.3309C87.6648 20.3415 87.6932 21.3733 87.5644 22.3921C87.4316 23.4112 86.8968 24.3402 86.073 24.9831V24.9831C86.073 24.9831 83.6816 20.1693 83.6816 19.4186V21.2954C83.6816 21.2954 81.7534 19.6063 81.7534 18.4802L80.7017 19.7939L80.1758 17.7294L73.6899 19.7939L74.7417 18.1048L70.7099 18.6679L72.2876 16.6033C72.2876 16.6033 67.73 19.0432 67.5547 21.1077C67.3794 23.1722 66.0454 25.1285 66.0454 25.1285C66.0454 25.1285 62.4712 15.4772 67.5547 12.662Z" fill="#3F3D56"/>
<path d="M111.556 79.9982C110.505 81.1056 107.902 82.7736 104.747 84.5794C103.573 85.2504 102.324 85.9419 101.049 86.6292C98.0071 88.27 94.8222 89.8957 92.1941 91.2091C88.775 92.918 86.297 94.0977 86.297 94.0977C86.297 94.0977 86.0838 93.0584 85.7402 91.7287C85.2802 89.9489 84.5874 87.648 83.8652 86.6292C83.84 86.5938 83.8147 86.561 83.7895 86.5283C83.5791 86.2596 83.3674 86.1028 83.1584 86.1028L93.5951 79.8113L98.1052 77.0918L94.8559 69.5483L90.7805 60.0859L93.2403 52.4742L95.7127 44.823H100.346C100.346 44.823 101.881 48.0799 103.842 52.6215C104.136 53.3007 104.439 54.0086 104.747 54.7396C108.783 64.2866 113.815 77.6182 111.556 79.9982Z" fill="#D0CDE1"/>
<path d="M76.2838 97.731C73.7062 100.835 63.0647 94.3323 59.3427 91.9074C58.5321 91.3795 58.0497 91.0454 58.0497 91.0454L61.4547 86.6292L62.5332 85.2313C62.5332 85.2313 63.498 85.7291 64.9243 86.5392C64.9762 86.5692 65.0281 86.5992 65.0814 86.6292C66.3113 87.3316 67.8553 88.2495 69.4134 89.2738C71.5633 90.6881 73.737 92.3015 75.138 93.8208C76.5082 95.3061 77.1379 96.7013 76.2838 97.731Z" fill="#A0616A"/>
<path d="M64.9243 86.5392C64.5437 86.5378 64.1637 86.5679 63.7884 86.6292C60.5642 87.168 59.6134 90.0062 59.3427 91.9074C59.2561 92.488 59.2232 93.075 59.2446 93.6613L56.3963 91.5309L55.3585 90.7549C52.8608 89.908 50.6352 88.4036 48.7055 86.6292C47.0314 85.0627 45.5297 83.3308 44.2248 81.4616C42.925 79.6193 41.7663 77.6865 40.758 75.6789C40.4767 75.1186 40.3255 74.5051 40.3151 73.8817C40.3046 73.2583 40.4353 72.6403 40.6977 72.0715L44.2248 64.427L49.38 53.2543C49.4179 52.9884 49.4595 52.7284 49.5048 52.4742C50.5272 46.7733 53.2661 44.242 53.2661 44.242H55.3585L56.7581 52.4742L58.4971 62.7018L57.2784 66.5669L54.4623 75.4934L57.1536 78.3356L64.9243 86.5392Z" fill="#D0CDE1"/>
<path d="M67.2925 62.7099L69.0812 64.7394C69.7458 64.6162 70.4398 64.4714 71.1546 64.3088L70.6408 62.7099L71.897 64.1352C79.4697 62.3239 88.8559 58.8023 88.8559 58.8023C88.8559 58.8023 78.7225 59.5249 71.1563 57.9174C67.8087 57.2061 64.3644 58.82 62.9906 61.8729C62.1922 63.6474 62.3176 65.1847 65.1495 65.1847C66.1064 65.1688 67.0606 65.0815 68.0038 64.9236L67.2925 62.7099Z" fill="#FBC94A"/>
<path d="M108.071 96.0671V96.895C108.071 97.1222 108.028 97.3475 107.943 97.5592C107.905 97.6535 107.86 97.7447 107.807 97.8319C107.64 98.1048 107.403 98.3307 107.119 98.4875C106.835 98.6444 106.514 98.7268 106.187 98.7266H43.5628C43.2363 98.7268 42.9153 98.6444 42.6313 98.4875C42.3474 98.3307 42.1102 98.1048 41.9431 97.8319C41.8902 97.7448 41.8447 97.6535 41.807 97.5592C41.7222 97.3475 41.6789 97.1222 41.6794 96.895V96.0671C41.6793 95.8266 41.728 95.5883 41.8226 95.3661C41.9173 95.1438 42.056 94.9419 42.2309 94.7718C42.4058 94.6017 42.6135 94.4668 42.842 94.3747C43.0705 94.2827 43.3155 94.2354 43.5628 94.2355H47.1726V93.8495C47.1726 93.8395 47.1746 93.8295 47.1786 93.8202C47.1825 93.811 47.1883 93.8025 47.1956 93.7954C47.2029 93.7883 47.2116 93.7827 47.2211 93.7789C47.2306 93.7751 47.2409 93.7731 47.2512 93.7731H49.1346C49.1449 93.7731 49.1551 93.7751 49.1647 93.7789C49.1742 93.7827 49.1829 93.7883 49.1902 93.7954C49.1975 93.8025 49.2033 93.811 49.2072 93.8202C49.2111 93.8295 49.2132 93.8395 49.2131 93.8495V94.2355H50.3898V93.8495C50.3897 93.8395 50.3918 93.8295 50.3957 93.8202C50.3996 93.811 50.4054 93.8025 50.4127 93.7954C50.42 93.7883 50.4287 93.7827 50.4382 93.7789C50.4478 93.7751 50.458 93.7731 50.4683 93.7731H52.3517C52.362 93.7731 52.3723 93.7751 52.3818 93.7789C52.3913 93.7827 52.4 93.7883 52.4073 93.7954C52.4146 93.8025 52.4204 93.811 52.4243 93.8202C52.4283 93.8295 52.4303 93.8395 52.4303 93.8495V94.2355H53.6083V93.8495C53.6083 93.8395 53.6103 93.8295 53.6142 93.8202C53.6182 93.811 53.6239 93.8025 53.6312 93.7954C53.6385 93.7883 53.6472 93.7827 53.6567 93.7789C53.6663 93.7751 53.6765 93.7731 53.6868 93.7731H55.5702C55.5806 93.7731 55.5908 93.7751 55.6003 93.7789C55.6099 93.7827 55.6185 93.7883 55.6258 93.7954C55.6331 93.8025 55.6389 93.811 55.6428 93.8202C55.6468 93.8295 55.6488 93.8395 55.6488 93.8495V94.2355H56.8254V93.8495C56.8254 93.8395 56.8274 93.8295 56.8313 93.8202C56.8353 93.811 56.8411 93.8025 56.8484 93.7954C56.8557 93.7883 56.8643 93.7827 56.8739 93.7789C56.8834 93.7751 56.8936 93.7731 56.9039 93.7731H58.7874C58.7977 93.7731 58.8079 93.7751 58.8174 93.7789C58.827 93.7827 58.8356 93.7883 58.8429 93.7954C58.8502 93.8025 58.856 93.811 58.86 93.8202C58.8639 93.8295 58.8659 93.8395 58.8659 93.8495V94.2355H60.0425V93.8495C60.0425 93.8395 60.0445 93.8295 60.0485 93.8202C60.0524 93.811 60.0582 93.8025 60.0655 93.7954C60.0728 93.7883 60.0814 93.7827 60.091 93.7789C60.1005 93.7751 60.1107 93.7731 60.1211 93.7731H62.0045C62.0148 93.7731 62.025 93.7751 62.0346 93.7789C62.0441 93.7827 62.0528 93.7883 62.0601 93.7954C62.0674 93.8025 62.0731 93.811 62.0771 93.8202C62.081 93.8295 62.083 93.8395 62.083 93.8495V94.2355H63.261V93.8495C63.261 93.8395 63.263 93.8295 63.267 93.8202C63.2709 93.811 63.2767 93.8025 63.284 93.7954C63.2913 93.7883 63.3 93.7827 63.3095 93.7789C63.319 93.7751 63.3293 93.7731 63.3396 93.7731H65.223C65.2333 93.7731 65.2435 93.7751 65.2531 93.7789C65.2626 93.7827 65.2713 93.7883 65.2786 93.7954C65.2859 93.8025 65.2917 93.811 65.2956 93.8202C65.2995 93.8295 65.3016 93.8395 65.3015 93.8495V94.2355H66.4782V93.8495C66.4782 93.8395 66.4802 93.8295 66.4841 93.8202C66.4881 93.811 66.4938 93.8025 66.5011 93.7954C66.5084 93.7883 66.5171 93.7827 66.5266 93.7789C66.5362 93.7751 66.5464 93.7731 66.5567 93.7731H81.31C81.3203 93.7731 81.3306 93.7751 81.3401 93.7789C81.3496 93.7827 81.3583 93.7883 81.3656 93.7954C81.3729 93.8025 81.3787 93.811 81.3826 93.8202C81.3865 93.8295 81.3886 93.8395 81.3886 93.8495V94.2355H82.5666V93.8495C82.5666 93.8395 82.5686 93.8295 82.5725 93.8202C82.5765 93.811 82.5822 93.8025 82.5895 93.7954C82.5968 93.7883 82.6055 93.7827 82.615 93.7789C82.6246 93.7751 82.6348 93.7731 82.6451 93.7731H84.5285C84.5493 93.7733 84.5692 93.7814 84.5839 93.7957C84.5985 93.81 84.6069 93.8293 84.6071 93.8495V94.2355H85.7837V93.8495C85.7837 93.8395 85.7857 93.8295 85.7896 93.8202C85.7936 93.811 85.7994 93.8025 85.8067 93.7954C85.814 93.7883 85.8226 93.7827 85.8322 93.7789C85.8417 93.7751 85.8519 93.7731 85.8622 93.7731H87.7457C87.756 93.7731 87.7662 93.7751 87.7757 93.7789C87.7853 93.7827 87.794 93.7883 87.8012 93.7954C87.8085 93.8025 87.8143 93.811 87.8183 93.8202C87.8222 93.8295 87.8242 93.8394 87.8242 93.8495V94.2355H89.0008V93.8495C89.0008 93.8395 89.0028 93.8295 89.0068 93.8202C89.0107 93.811 89.0165 93.8025 89.0238 93.7954C89.0311 93.7883 89.0398 93.7827 89.0493 93.7789C89.0588 93.7751 89.0691 93.7731 89.0794 93.7731H90.9628C90.9731 93.7731 90.9833 93.7751 90.9929 93.7789C91.0024 93.7827 91.0111 93.7883 91.0184 93.7954C91.0257 93.8025 91.0314 93.811 91.0354 93.8202C91.0393 93.8295 91.0414 93.8395 91.0413 93.8495V94.2355H92.2194V93.8495C92.2193 93.8395 92.2214 93.8295 92.2253 93.8202C92.2292 93.811 92.235 93.8025 92.2423 93.7954C92.2496 93.7883 92.2583 93.7827 92.2678 93.7789C92.2774 93.7751 92.2876 93.7731 92.2979 93.7731H94.1813C94.2019 93.7734 94.2216 93.7815 94.2361 93.7958C94.2505 93.8101 94.2586 93.8294 94.2585 93.8495V94.2355H95.4365V93.8495C95.4365 93.8395 95.4385 93.8295 95.4424 93.8202C95.4464 93.811 95.4521 93.8025 95.4594 93.7954C95.4667 93.7883 95.4754 93.7827 95.4849 93.7789C95.4945 93.7751 95.5047 93.7731 95.515 93.7731H97.3984C97.4088 93.7731 97.419 93.7751 97.4285 93.7789C97.4381 93.7827 97.4467 93.7883 97.454 93.7954C97.4613 93.8025 97.4671 93.811 97.471 93.8202C97.475 93.8295 97.477 93.8395 97.477 93.8495V94.2355H98.6536V93.8495C98.6536 93.8395 98.6556 93.8295 98.6595 93.8202C98.6635 93.811 98.6693 93.8025 98.6766 93.7954C98.6839 93.7883 98.6925 93.7827 98.7021 93.7789C98.7116 93.7751 98.7218 93.7731 98.7321 93.7731H100.616C100.626 93.7731 100.636 93.7751 100.646 93.7789C100.655 93.7827 100.664 93.7883 100.671 93.7954C100.678 93.8025 100.684 93.811 100.688 93.8202C100.692 93.8295 100.694 93.8395 100.694 93.8495V94.2355H106.187C106.435 94.2354 106.68 94.2827 106.908 94.3747C107.137 94.4668 107.344 94.6017 107.519 94.7718C107.694 94.9419 107.833 95.1438 107.928 95.3661C108.022 95.5883 108.071 95.8266 108.071 96.0671V96.0671Z" fill="#7C7C7C"/>
<path d="M126.281 97.5592H23.4846V97.8319H126.281V97.5592Z" fill="#E6E6E6"/>
<path d="M103.028 61.203H79.6862V60.7351H69.102V61.203H45.6637C45.245 61.203 44.8434 61.3647 44.5473 61.6527C44.2512 61.9407 44.0848 62.3312 44.0848 62.7385V93.8223C44.0848 94.2296 44.2512 94.6201 44.5473 94.9081C44.8434 95.1961 45.245 95.3578 45.6637 95.3578H103.028C103.447 95.3578 103.849 95.1961 104.145 94.9081C104.441 94.6201 104.607 94.2296 104.607 93.8223V62.7385C104.607 62.5368 104.566 62.3371 104.487 62.1509C104.408 61.9646 104.291 61.7953 104.145 61.6527C103.998 61.5101 103.824 61.397 103.633 61.3198C103.441 61.2427 103.236 61.203 103.028 61.203V61.203Z" fill="#7C7C7C"/>
<path d="M74.3919 75.4647C76.3283 75.4647 77.898 73.9382 77.898 72.0551C77.898 70.172 76.3283 68.6454 74.3919 68.6454C72.4556 68.6454 70.8859 70.172 70.8859 72.0551C70.8859 73.9382 72.4556 75.4647 74.3919 75.4647Z" stroke="#D0CDE1" stroke-width="2" stroke-miterlimit="10"/>
<path d="M73.27 76.6922C75.2063 76.6922 76.776 75.1656 76.776 73.2825C76.776 71.3994 75.2063 69.8729 73.27 69.8729C71.3337 69.8729 69.764 71.3994 69.764 73.2825C69.764 75.1656 71.3337 76.6922 73.27 76.6922Z" fill="#D0CDE1"/>
<path d="M30.2086 96.1812H26.2818V100H30.2086V96.1812Z" fill="#D0CDE1"/>
<path d="M27.825 93.1808V97.8179H32.5932V93.1808H27.825ZM32.3856 97.616H28.0312V93.3826H32.3856V97.616Z" fill="#3F3D56"/>
<path d="M121.084 96.1812H117.158V100H121.084V96.1812Z" fill="#D0CDE1"/>
<path d="M118.701 93.1808V97.8179H123.469V93.1808H118.701ZM123.262 97.616H118.907V93.3826H123.262V97.616Z" fill="#3F3D56"/>
<path d="M36.1194 87.7978C36.2502 92.1553 33.6322 93.7522 30.3466 93.8455C30.2703 93.8477 30.1943 93.849 30.1187 93.8495C29.9663 93.8507 29.8154 93.8482 29.666 93.8421C26.6946 93.7222 24.3425 92.1882 24.2208 88.1357C24.0948 83.9419 29.4474 78.4929 29.849 78.0898L29.8497 78.0894C29.8649 78.0741 29.8728 78.0664 29.8728 78.0664C29.8728 78.0664 35.9885 83.4406 36.1194 87.7978Z" fill="#D0CDE1"/>
<path d="M30.1101 93.1852L32.1972 90.1667L30.1143 93.5099L30.1187 93.8495C29.9663 93.8507 29.8154 93.8482 29.666 93.8421L29.7695 89.4762L29.7667 89.4425L29.7705 89.436L29.7804 89.0234L27.4948 85.7962L29.7777 88.7146L29.7858 88.8019L29.864 85.5032L27.8899 82.1573L29.8696 84.9237L29.849 78.0898L29.849 78.067L29.8497 78.0894L29.9807 83.4755L31.78 81.2877L29.9866 83.9395L30.0259 86.89L31.6816 84.0104L30.032 87.3238L30.0538 88.9645L32.4616 84.9532L30.0612 89.5368L30.1101 93.1852Z" fill="#3F3D56"/>
<path d="M126.995 87.7978C127.126 92.1553 124.508 93.7522 121.223 93.8455C121.146 93.8477 121.07 93.849 120.995 93.8495C120.842 93.8507 120.691 93.8482 120.542 93.8421C117.57 93.7222 115.218 92.1882 115.097 88.1357C114.971 83.9419 120.323 78.4929 120.725 78.0898L120.726 78.0894C120.741 78.0741 120.749 78.0664 120.749 78.0664C120.749 78.0664 126.864 83.4406 126.995 87.7978Z" fill="#D0CDE1"/>
<path d="M120.986 93.1852L123.073 90.1667L120.99 93.5099L120.995 93.8495C120.842 93.8507 120.691 93.8482 120.542 93.8421L120.645 89.4762L120.643 89.4425L120.646 89.436L120.656 89.0234L118.371 85.7962L120.654 88.7146L120.662 88.8019L120.74 85.5032L118.766 82.1573L120.746 84.9237L120.725 78.0898L120.725 78.067L120.726 78.0894L120.857 83.4755L122.656 81.2877L120.863 83.9395L120.902 86.89L122.557 84.0104L120.908 87.3238L120.93 88.9645L123.338 84.9532L120.937 89.5368L120.986 93.1852Z" fill="#3F3D56"/>
<g clip-path="url(#clip3)">
<rect x="34.8613" y="23.9538" width="5.22667" height="4.44762" fill="#FBC94A"/>
<path d="M25.36 22.4289H22.56C22.098 22.4289 21.72 22.1073 21.72 21.7141V19.3315C21.72 18.9384 22.098 18.6167 22.56 18.6167H25.36C25.822 18.6167 26.2 18.9384 26.2 19.3315V21.7141C26.2 22.1073 25.822 22.4289 25.36 22.4289ZM32.92 21.7141V19.3315C32.92 18.9384 32.542 18.6167 32.08 18.6167H29.28C28.818 18.6167 28.44 18.9384 28.44 19.3315V21.7141C28.44 22.1073 28.818 22.4289 29.28 22.4289H32.08C32.542 22.4289 32.92 22.1073 32.92 21.7141ZM39.64 21.7141V19.3315C39.64 18.9384 39.262 18.6167 38.8 18.6167H36C35.538 18.6167 35.16 18.9384 35.16 19.3315V21.7141C35.16 22.1073 35.538 22.4289 36 22.4289H38.8C39.262 22.4289 39.64 22.1073 39.64 21.7141ZM32.92 27.4325V25.0499C32.92 24.6567 32.542 24.3351 32.08 24.3351H29.28C28.818 24.3351 28.44 24.6567 28.44 25.0499V27.4325C28.44 27.8256 28.818 28.1473 29.28 28.1473H32.08C32.542 28.1473 32.92 27.8256 32.92 27.4325ZM26.2 27.4325V25.0499C26.2 24.6567 25.822 24.3351 25.36 24.3351H22.56C22.098 24.3351 21.72 24.6567 21.72 25.0499V27.4325C21.72 27.8256 22.098 28.1473 22.56 28.1473H25.36C25.822 28.1473 26.2 27.8256 26.2 27.4325ZM39.64 27.4325V25.0499C39.64 24.6567 39.262 24.3351 38.8 24.3351H36C35.538 24.3351 35.16 24.6567 35.16 25.0499V27.4325C35.16 27.8256 35.538 28.1473 36 28.1473H38.8C39.262 28.1473 39.64 27.8256 39.64 27.4325ZM46.36 11.9453V32.9126C46.36 34.4911 44.855 35.7718 43 35.7718H18.36C16.505 35.7718 15 34.4911 15 32.9126V11.9453C15 10.3668 16.505 9.0861 18.36 9.0861H21.72V5.98865C21.72 5.59552 22.098 5.27386 22.56 5.27386H25.36C25.822 5.27386 26.2 5.59552 26.2 5.98865V9.0861H35.16V5.98865C35.16 5.59552 35.538 5.27386 36 5.27386H38.8C39.262 5.27386 39.64 5.59552 39.64 5.98865V9.0861H43C44.855 9.0861 46.36 10.3668 46.36 11.9453ZM43 32.5552V14.8045H18.36V32.5552C18.36 32.7518 18.549 32.9126 18.78 32.9126H42.58C42.811 32.9126 43 32.7518 43 32.5552Z" fill="white"/>
</g>
<path d="M37 55.3036L42.5844 61.2373L38.8057 55.3659C38.7745 55.2974 38.7266 55.2344 38.6648 55.1806C38.6029 55.1268 38.5284 55.0832 38.4453 55.0523C38.3623 55.0215 38.2724 55.0039 38.1808 55.0006C38.0892 54.9973 37.9977 55.0084 37.9115 55.0332L37 55.3036Z" fill="#E6E6E6"/>
<path d="M32.9084 63.3207L40.8442 65.1694L34.4465 62.3727C34.3825 62.3329 34.3078 62.307 34.2265 62.2965C34.1453 62.2859 34.059 62.2909 33.9728 62.3112C33.8865 62.3314 33.8019 62.3665 33.7238 62.4145C33.6457 62.4625 33.5757 62.5224 33.5176 62.5908L32.9084 63.3207Z" fill="#E6E6E6"/>
<path d="M113.88 54.7477L109.41 61.5603L114.24 56.5182C114.299 56.4719 114.349 56.4107 114.387 56.338C114.425 56.2654 114.45 56.1827 114.461 56.0947C114.471 56.0068 114.467 55.9153 114.449 55.8254C114.431 55.7356 114.399 55.6492 114.355 55.5711L113.88 54.7477Z" fill="#E6E6E6"/>
<path d="M117.993 62.2725L111 66.4545L117.545 64.0228C117.619 64.007 117.691 63.9737 117.756 63.9249C117.822 63.876 117.881 63.8125 117.929 63.738C117.977 63.6636 118.013 63.5795 118.036 63.4908C118.059 63.402 118.068 63.3102 118.062 63.2207L117.993 62.2725Z" fill="#E6E6E6"/>
</g>
</g>
<defs>
<clipPath id="clip0">
<rect width="150" height="100" fill="white"/>
</clipPath>
<clipPath id="clip1">
<rect width="64" height="41" fill="white" transform="translate(91 -4)"/>
</clipPath>
<clipPath id="clip2">
<rect width="112" height="94" fill="white" transform="translate(15 6)"/>
</clipPath>
<clipPath id="clip3">
<rect width="31.36" height="30.4979" fill="white" transform="translate(15 5.27386)"/>
</clipPath>
</defs>
</svg>
