<svg width="150" height="100" viewBox="0 0 150 100" fill="none" xmlns="http://www.w3.org/2000/svg">
<path d="M137.286 24.8601H96.9529V24H78.6641V24.8601H38.1644C37.8061 24.8601 37.4514 24.9331 37.1204 25.0749C36.7894 25.2168 36.4886 25.4247 36.2353 25.6868C35.9819 25.9489 35.781 26.26 35.6438 26.6025C35.5067 26.9449 35.4362 27.312 35.4362 27.6826V84.821C35.4362 85.5696 35.7236 86.2876 36.2353 86.8169C36.7469 87.3462 37.4408 87.6436 38.1644 87.6436H137.286C138.01 87.6436 138.704 87.3462 139.215 86.8169C139.727 86.2876 140.015 85.5696 140.015 84.821V27.6826C140.015 27.312 139.944 26.9449 139.807 26.6025C139.67 26.26 139.469 25.9489 139.215 25.6868C138.962 25.4247 138.661 25.2168 138.33 25.0749C137.999 24.9331 137.645 24.8601 137.286 24.8601V24.8601Z" fill="#7C7C7C"/>
<path d="M136.357 29.8484H39.0939V86.6116H136.357V29.8484Z" fill="#F2F2F2"/>
<path d="M87.6422 28.3003C88.1932 28.3003 88.6398 27.8382 88.6398 27.2682C88.6398 26.6982 88.1932 26.2362 87.6422 26.2362C87.0913 26.2362 86.6446 26.6982 86.6446 27.2682C86.6446 27.8382 87.0913 28.3003 87.6422 28.3003Z" fill="#CACACA"/>
<path d="M142.746 85.5795H133.253V84.872C133.253 84.8535 133.25 84.8353 133.243 84.8183C133.236 84.8013 133.226 84.7858 133.214 84.7728C133.201 84.7597 133.186 84.7494 133.17 84.7423C133.153 84.7353 133.135 84.7317 133.118 84.7317H129.863C129.845 84.7317 129.828 84.7353 129.811 84.7423C129.795 84.7494 129.78 84.7597 129.767 84.7728C129.755 84.7858 129.745 84.8013 129.738 84.8183C129.731 84.8353 129.728 84.8535 129.728 84.872V85.5795H127.694V84.872C127.694 84.8535 127.69 84.8353 127.683 84.8183C127.676 84.8013 127.666 84.7858 127.654 84.7728C127.641 84.7597 127.626 84.7494 127.61 84.7423C127.593 84.7353 127.576 84.7317 127.558 84.7317H124.303C124.286 84.7317 124.268 84.7353 124.252 84.7423C124.235 84.7494 124.22 84.7597 124.208 84.7728C124.195 84.7858 124.185 84.8013 124.178 84.8183C124.171 84.8353 124.168 84.8535 124.168 84.872V85.5795H122.134V84.872C122.134 84.8535 122.13 84.8353 122.123 84.8183C122.117 84.8013 122.107 84.7858 122.094 84.7728C122.081 84.7597 122.067 84.7494 122.05 84.7423C122.034 84.7353 122.016 84.7317 121.998 84.7317H118.744C118.726 84.7317 118.708 84.7353 118.692 84.7423C118.675 84.7494 118.66 84.7597 118.648 84.7728C118.635 84.7858 118.625 84.8013 118.618 84.8183C118.612 84.8353 118.608 84.8535 118.608 84.872V85.5795H116.574V84.872C116.574 84.8535 116.571 84.8353 116.564 84.8183C116.557 84.8013 116.547 84.7858 116.534 84.7728C116.522 84.7597 116.507 84.7494 116.49 84.7423C116.474 84.7353 116.456 84.7317 116.438 84.7317H113.184C113.166 84.7317 113.149 84.7353 113.132 84.7423C113.116 84.7494 113.101 84.7597 113.088 84.7728C113.076 84.7858 113.066 84.8013 113.059 84.8183C113.052 84.8353 113.048 84.8535 113.048 84.872V85.5795H111.014V84.872C111.014 84.8535 111.011 84.8353 111.004 84.8183C110.997 84.8013 110.987 84.7858 110.975 84.7728C110.962 84.7597 110.947 84.7494 110.931 84.7423C110.914 84.7353 110.897 84.7317 110.879 84.7317H107.624C107.606 84.7317 107.589 84.7353 107.572 84.7423C107.556 84.7494 107.541 84.7597 107.528 84.7728C107.516 84.7858 107.506 84.8013 107.499 84.8183C107.492 84.8353 107.489 84.8535 107.489 84.872V85.5795H105.455V84.872C105.455 84.8535 105.451 84.8353 105.444 84.8183C105.437 84.8013 105.427 84.7858 105.415 84.7728C105.402 84.7597 105.387 84.7494 105.371 84.7423C105.354 84.7353 105.337 84.7317 105.319 84.7317H102.065C102.047 84.7317 102.029 84.7353 102.013 84.7423C101.996 84.7494 101.981 84.7597 101.969 84.7728C101.956 84.7858 101.946 84.8013 101.939 84.8183C101.932 84.8353 101.929 84.8535 101.929 84.872V85.5795H99.8949V84.872C99.8949 84.8535 99.8914 84.8353 99.8846 84.8183C99.8777 84.8013 99.8678 84.7858 99.8552 84.7728C99.8426 84.7597 99.8276 84.7494 99.8112 84.7423C99.7947 84.7353 99.7771 84.7317 99.7593 84.7317H74.2659C74.248 84.7317 74.2304 84.7353 74.214 84.7423C74.1975 84.7494 74.1826 84.7597 74.17 84.7728C74.1574 84.7858 74.1474 84.8013 74.1406 84.8183C74.1338 84.8353 74.1303 84.8535 74.1303 84.872V85.5795H72.0962V84.872C72.0962 84.8535 72.0927 84.8353 72.0859 84.8183C72.0791 84.8013 72.0691 84.7858 72.0565 84.7728C72.0439 84.7597 72.0289 84.7494 72.0125 84.7423C71.996 84.7353 71.9784 84.7317 71.9606 84.7317H68.7061C68.6883 84.7317 68.6707 84.7353 68.6542 84.7423C68.6378 84.7494 68.6228 84.7597 68.6102 84.7728C68.5976 84.7858 68.5877 84.8013 68.5808 84.8183C68.574 84.8353 68.5705 84.8535 68.5705 84.872V85.5795H66.5365V84.872C66.5365 84.8535 66.533 84.8353 66.5261 84.8183C66.5193 84.8013 66.5093 84.7858 66.4967 84.7728C66.4842 84.7597 66.4692 84.7494 66.4528 84.7423C66.4363 84.7353 66.4187 84.7317 66.4009 84.7317H63.1464C63.1286 84.7317 63.1109 84.7353 63.0945 84.7423C63.078 84.7494 63.0631 84.7597 63.0505 84.7728C63.0379 84.7858 63.0279 84.8013 63.0211 84.8183C63.0143 84.8353 63.0108 84.8535 63.0108 84.872V85.5795H60.9767V84.872C60.9767 84.8535 60.9732 84.8353 60.9664 84.8183C60.9596 84.8013 60.9496 84.7858 60.937 84.7728C60.9244 84.7597 60.9095 84.7494 60.893 84.7423C60.8766 84.7353 60.8589 84.7317 60.8411 84.7317H57.5867C57.5688 84.7317 57.5512 84.7353 57.5348 84.7423C57.5183 84.7494 57.5034 84.7597 57.4908 84.7728C57.4782 84.7858 57.4682 84.8013 57.4614 84.8183C57.4546 84.8353 57.451 84.8535 57.451 84.872V85.5795H55.417V84.872C55.417 84.8535 55.4135 84.8353 55.4067 84.8183C55.3999 84.8013 55.3899 84.7858 55.3773 84.7728C55.3647 84.7597 55.3497 84.7494 55.3333 84.7423C55.3168 84.7353 55.2992 84.7317 55.2814 84.7317H52.0269C52.0091 84.7317 51.9915 84.7353 51.975 84.7423C51.9586 84.7494 51.9436 84.7597 51.931 84.7728C51.9184 84.7858 51.9084 84.8013 51.9016 84.8183C51.8948 84.8353 51.8913 84.8535 51.8913 84.872V85.5795H49.8573V84.872C49.8573 84.8535 49.8538 84.8353 49.8469 84.8183C49.8401 84.8013 49.8301 84.7858 49.8175 84.7728C49.805 84.7597 49.79 84.7494 49.7736 84.7423C49.7571 84.7353 49.7395 84.7317 49.7217 84.7317H46.4672C46.4494 84.7317 46.4317 84.7353 46.4153 84.7423C46.3988 84.7494 46.3839 84.7597 46.3713 84.7728C46.3587 84.7858 46.3487 84.8013 46.3419 84.8183C46.3351 84.8353 46.3316 84.8535 46.3316 84.872V85.5795H44.2975V84.872C44.2975 84.8535 44.294 84.8353 44.2872 84.8183C44.2804 84.8013 44.2704 84.7858 44.2578 84.7728C44.2452 84.7597 44.2303 84.7494 44.2138 84.7423C44.1974 84.7353 44.1797 84.7317 44.1619 84.7317H40.9074C40.8896 84.7317 40.872 84.7353 40.8556 84.7423C40.8391 84.7494 40.8242 84.7597 40.8116 84.7728C40.799 84.7858 40.789 84.8013 40.7822 84.8183C40.7753 84.8353 40.7718 84.8535 40.7718 84.872V85.5795H34.5341C33.671 85.5795 32.8432 85.9343 32.2328 86.5657C31.6225 87.1971 31.2796 88.0535 31.2796 88.9465V90.469C31.2796 91.362 31.6225 92.2184 32.2328 92.8498C32.8432 93.4813 33.671 93.836 34.5341 93.836H142.746C143.609 93.836 144.436 93.4813 145.047 92.8498C145.657 92.2184 146 91.362 146 90.469V88.9465C146 88.5044 145.916 88.0665 145.752 87.658C145.589 87.2495 145.349 86.8783 145.047 86.5657C144.745 86.253 144.386 86.005 143.991 85.8358C143.596 85.6666 143.173 85.5795 142.746 85.5795V85.5795Z" fill="#7C7C7C"/>
<path d="M105.618 34.2941H78.3249V35.3433H105.618V34.2941Z" fill="#E6E6E6"/>
<path d="M105.618 37.6167H78.3249V38.6659H105.618V37.6167Z" fill="#E6E6E6"/>
<path d="M105.618 40.9392H78.3249V41.9885H105.618V40.9392Z" fill="#E6E6E6"/>
<path d="M105.618 34.2941H78.3249V35.3433H105.618V34.2941Z" fill="#CCCCCC"/>
<path d="M105.618 37.6167H78.3249V38.6659H105.618V37.6167Z" fill="#CCCCCC"/>
<path d="M105.618 40.9392H78.3249V41.9885H105.618V40.9392Z" fill="#CCCCCC"/>
<path d="M75.8536 34.9425H69.6699V41.34H75.8536V34.9425Z" fill="#CCCCCC"/>
<path d="M105.618 71.6795H78.3249V72.7287H105.618V71.6795Z" fill="#CCCCCC"/>
<path d="M105.618 75.0021H78.3249V76.0513H105.618V75.0021Z" fill="#CCCCCC"/>
<path d="M105.618 78.3246H78.3249V79.3739H105.618V78.3246Z" fill="#CCCCCC"/>
<path d="M75.8536 72.3279H69.6699V78.7254H75.8536V72.3279Z" fill="#CCCCCC"/>
<path d="M87.7619 71.263C94.8079 71.263 100.52 65.3536 100.52 58.064C100.52 50.7744 94.8079 44.865 87.7619 44.865C80.7159 44.865 75.004 50.7744 75.004 58.064C75.004 65.3536 80.7159 71.263 87.7619 71.263Z" fill="#FBC94A"/>
<path d="M91.6672 58.8026L87.6308 50.3683L83.6153 58.8134L85.8843 58.8104V62.3126H89.3965V58.8056L91.6672 58.8026Z" fill="#424141"/>
<path d="M8.00691 7.95725C7.84442 7.95708 7.68849 8.01939 7.57333 8.13053C7.45816 8.24167 7.39317 8.39256 7.39261 8.55009L7.2417 72.1303C7.24151 72.2878 7.30579 72.439 7.42042 72.5507C7.53506 72.6623 7.69069 72.7253 7.85318 72.7259L60.6849 72.8437C60.8474 72.8439 61.0033 72.7816 61.1185 72.6705C61.2336 72.5593 61.2986 72.4084 61.2992 72.2509L61.4501 8.6707C61.4503 8.51316 61.386 8.36199 61.2714 8.25033C61.1567 8.13868 61.0011 8.07567 60.8386 8.07512L8.00691 7.95725Z" fill="#C0C0C0"/>
<path d="M9.96363 9.86313C9.80114 9.86295 9.64521 9.92526 9.53004 10.0364C9.41488 10.1475 9.34989 10.2984 9.34932 10.456L9.20744 70.2332C9.20725 70.3908 9.27153 70.5419 9.38616 70.6536C9.5008 70.7653 9.65643 70.8283 9.81892 70.8288L58.7281 70.9379C58.8906 70.9381 59.0466 70.8758 59.1617 70.7647C59.2769 70.6535 59.3419 70.5026 59.3424 70.3451L59.4843 10.5678C59.4845 10.4103 59.4202 10.2591 59.3056 10.1475C59.191 10.0358 59.0353 9.97279 58.8728 9.97225L9.96363 9.86313Z" fill="white"/>
<path d="M52.376 35.8208L16.3377 35.7404C16.2169 35.7402 16.0973 35.7169 15.9859 35.6719C15.8744 35.6269 15.7731 35.561 15.6879 35.478C15.6027 35.3951 15.5351 35.2966 15.4892 35.1884C15.4432 35.0801 15.4197 34.9641 15.4199 34.847C15.4202 34.7299 15.4443 34.614 15.4908 34.5059C15.5373 34.3979 15.6053 34.2998 15.6909 34.2172C15.7765 34.1346 15.8781 34.0692 15.9898 34.0247C16.1015 33.9801 16.2211 33.9574 16.3419 33.9577L52.3803 34.0381C52.624 34.0388 52.8575 34.1333 53.0294 34.3008C53.2013 34.4683 53.2976 34.6952 53.297 34.9315C53.2964 35.1678 53.1991 35.3942 53.0264 35.561C52.8537 35.7277 52.6198 35.8212 52.376 35.8208V35.8208Z" fill="#E6E6E6"/>
<path d="M52.7249 19.2134L28.816 19.16C28.4791 19.1593 28.207 18.7596 28.2081 18.2673C28.2093 17.7751 28.4833 17.3766 28.8202 17.3774L52.7291 17.4307C53.066 17.4315 53.3381 17.8312 53.3369 18.3234C53.3358 18.8157 53.0618 19.2141 52.7249 19.2134Z" fill="#E6E6E6"/>
<path d="M52.7127 24.3235L28.8038 24.2702C28.467 24.2694 28.1948 23.8698 28.196 23.3775C28.1972 22.8853 28.4712 22.4868 28.808 22.4876L52.717 22.5409C53.0539 22.5417 53.3259 22.9413 53.3248 23.4336C53.3236 23.9258 53.0496 24.3243 52.7127 24.3235Z" fill="#E6E6E6"/>
<path d="M52.3623 41.5846L16.324 41.5042C16.0802 41.5035 15.8468 41.409 15.6748 41.2415C15.5029 41.074 15.4067 40.8471 15.4072 40.6108C15.4078 40.3745 15.5051 40.1481 15.6778 39.9813C15.8505 39.8146 16.0845 39.7212 16.3282 39.7216L52.3666 39.802C52.6103 39.8026 52.8438 39.8971 53.0157 40.0646C53.1876 40.2322 53.2839 40.459 53.2833 40.6953C53.2828 40.9316 53.1854 41.1581 53.0127 41.3248C52.84 41.4916 52.6061 41.585 52.3623 41.5846V41.5846Z" fill="#E6E6E6"/>
<path d="M52.3487 47.3484L16.3103 47.268C16.1895 47.2678 16.07 47.2445 15.9585 47.1995C15.847 47.1545 15.7457 47.0886 15.6605 47.0056C15.5753 46.9227 15.5078 46.8243 15.4618 46.716C15.4158 46.6077 15.3923 46.4917 15.3926 46.3746C15.3928 46.2575 15.4169 46.1416 15.4634 46.0336C15.5099 45.9255 15.5779 45.8274 15.6635 45.7448C15.7491 45.6622 15.8507 45.5968 15.9624 45.5523C16.0741 45.5078 16.1938 45.485 16.3145 45.4854L52.3529 45.5658C52.4737 45.566 52.5932 45.5892 52.7047 45.6343C52.8162 45.6793 52.9175 45.7451 53.0027 45.8281C53.0879 45.9111 53.1554 46.0095 53.2014 46.1178C53.2474 46.226 53.2709 46.342 53.2706 46.4591C53.2704 46.5762 53.2463 46.6921 53.1998 46.8002C53.1533 46.9082 53.0853 47.0064 52.9997 47.089C52.9141 47.1715 52.8125 47.237 52.7008 47.2815C52.5891 47.326 52.4694 47.3487 52.3487 47.3484Z" fill="#E6E6E6"/>
<path d="M52.335 53.1122L16.2966 53.0318C16.1759 53.0316 16.0564 53.0082 15.945 52.9632C15.8335 52.9182 15.7323 52.8523 15.6472 52.7693C15.562 52.6864 15.4945 52.588 15.4486 52.4797C15.4026 52.3715 15.3791 52.2555 15.3794 52.1385C15.3797 52.0214 15.4037 51.9056 15.4502 51.7975C15.4966 51.6895 15.5646 51.5914 15.6502 51.5088C15.7357 51.4262 15.8372 51.3608 15.9489 51.3163C16.0605 51.2717 16.1801 51.2489 16.3008 51.2492L52.3392 51.3296C52.583 51.3303 52.8164 51.4248 52.9884 51.5923C53.1603 51.7598 53.2565 51.9867 53.2559 52.223C53.2554 52.4593 53.1581 52.6857 52.9854 52.8525C52.8127 53.0192 52.5787 53.1126 52.335 53.1122V53.1122Z" fill="#E6E6E6"/>
<path d="M52.3213 58.876L16.2829 58.7956C16.0392 58.7949 15.8057 58.7005 15.6338 58.5329C15.4619 58.3654 15.3656 58.1385 15.3662 57.9022C15.3668 57.6659 15.4641 57.4395 15.6368 57.2728C15.8095 57.106 16.0434 57.0126 16.2872 57.013L52.3255 57.0934C52.5693 57.0941 52.8028 57.1885 52.9747 57.3561C53.1466 57.5236 53.2428 57.7504 53.2423 57.9867C53.2417 58.2231 53.1444 58.4495 52.9717 58.6162C52.799 58.783 52.565 58.8764 52.3213 58.876Z" fill="#E6E6E6"/>
<path d="M52.3076 64.6398L16.2692 64.5594C16.1485 64.5591 16.029 64.5358 15.9176 64.4908C15.8061 64.4457 15.705 64.3798 15.6198 64.2969C15.4478 64.1293 15.3515 63.9024 15.352 63.666C15.3526 63.4296 15.45 63.2032 15.6228 63.0364C15.7956 62.8696 16.0296 62.7762 16.2735 62.7768L52.3118 62.8572C52.4326 62.8574 52.5522 62.8807 52.6637 62.9257C52.7751 62.9707 52.8764 63.0366 52.9616 63.1195C53.0468 63.2025 53.1144 63.3009 53.1604 63.4092C53.2063 63.5175 53.2298 63.6334 53.2296 63.7505C53.2293 63.8676 53.2052 63.9835 53.1587 64.0916C53.1122 64.1997 53.0442 64.2978 52.9586 64.3804C52.873 64.4629 52.7714 64.5284 52.6597 64.5729C52.548 64.6174 52.4284 64.6401 52.3076 64.6398Z" fill="#E6E6E6"/>
<path d="M20.2955 25.5585C22.9696 25.5585 25.1374 23.4568 25.1374 20.8642C25.1374 18.2717 22.9696 16.17 20.2955 16.17C17.6214 16.17 15.4536 18.2717 15.4536 20.8642C15.4536 23.4568 17.6214 25.5585 20.2955 25.5585Z" fill="#3F3D56"/>
<path d="M48.0552 19.4825L48.055 8.37586C48.08 6.71752 47.4277 5.11686 46.2404 3.92286C45.0531 2.72886 43.4271 2.03836 41.7168 2.00189C40.0066 1.96542 38.3508 2.58595 37.1105 3.72819C35.8702 4.87042 35.146 6.44173 35.0957 8.09952H36.5222C36.5728 6.83322 37.1268 5.63501 38.0682 4.75578C39.0095 3.87656 40.2652 3.3845 41.5723 3.38264C41.597 3.38264 41.6219 3.38285 41.6466 3.38318C42.9886 3.40405 44.2673 3.94055 45.2015 4.87482C46.1358 5.8091 46.6494 7.06473 46.6293 8.36587V19.4883C46.6296 19.5166 46.6296 19.5449 46.6293 19.5706C46.6175 20.4352 46.2553 21.2605 45.6209 21.8682C44.9865 22.4759 44.131 22.8173 43.2391 22.8184C43.2252 22.8184 43.2113 22.8184 43.1974 22.8182C42.2971 22.8062 41.4386 22.4481 40.8105 21.8227C40.1824 21.1973 39.8361 20.3557 39.8477 19.4829L39.8556 8.45112C39.8627 8.01744 40.045 7.60376 40.3633 7.299C40.6816 6.99424 41.1106 6.82272 41.5579 6.8213C42.0053 6.81987 42.4354 6.98866 42.7558 7.29139C43.0762 7.59412 43.2613 8.00662 43.2713 8.44025V16.8647C43.2713 17.048 43.3464 17.2238 43.4801 17.3534C43.6138 17.483 43.7951 17.5558 43.9842 17.5558C44.1733 17.5558 44.3546 17.483 44.4883 17.3534C44.622 17.2238 44.6971 17.048 44.6971 16.8647L44.697 8.42931C44.684 7.63098 44.3474 6.86969 43.76 6.31007C43.1726 5.75045 42.3816 5.43749 41.5581 5.43886C40.7345 5.44024 39.9446 5.75584 39.3592 6.31742C38.7738 6.87899 38.44 7.64141 38.4298 8.43977L38.422 19.4741C38.408 20.7121 38.901 21.9051 39.793 22.7911C40.685 23.6772 41.9032 24.184 43.1801 24.2004C43.2 24.2007 43.2195 24.2008 43.2394 24.2008C44.5066 24.1989 45.7221 23.7136 46.6233 22.8499C47.5244 21.9861 48.0388 20.8133 48.0552 19.5848C48.0555 19.5488 48.0554 19.5127 48.0552 19.4825Z" fill="#FBC94A"/>
<line x1="81.5" y1="59" x2="81.5" y2="64.625" stroke="black"/>
<line x1="81" y1="64.125" x2="93.8467" y2="64.125" stroke="black"/>
<line x1="93.4927" y1="64.5" x2="93.4927" y2="59.5" stroke="black"/>
</svg>
