<svg width="50" height="50" viewBox="0 0 50 50" fill="none" xmlns="http://www.w3.org/2000/svg">
<path d="M25.14 2C12.357 2 2 12.5181 2 25.5C2 38.4819 12.357 49 25.14 49C36.6894 49 46.2626 40.4064 48 29.1719H31.8291V35.1416H25.14V29.1719H20.0417C14.2427 29.1719 11.0395 25.6658 11.0395 20.2959C11.0395 17.7242 11.4911 15.0349 11.4911 15.0349H17.1828V17.999C17.1828 20.9175 18.9668 21.8281 20.7966 21.8281H25.14L25.14 15.3107L31.8291 16.353L31.8291 21.8281H48C46.2626 10.5936 36.6894 2 25.14 2Z" fill="white"/>
<rect x="10" y="10" width="30" height="30" fill="white"/>
<path d="M49.4375 25.2188C49.4375 11.8398 38.5977 1 25.2188 1C11.8398 1 1 11.8398 1 25.2188C1 37.3066 9.85645 47.3262 21.4346 49.1445V32.2197H15.2822V25.2188H21.4346V19.8828C21.4346 13.8135 25.0479 10.4609 30.582 10.4609C33.2324 10.4609 36.0039 10.9336 36.0039 10.9336V16.8906H32.9492C29.9414 16.8906 29.0029 18.7578 29.0029 20.6729V25.2188H35.7197L34.6455 32.2197H29.0029V49.1445C40.5811 47.3262 49.4375 37.3066 49.4375 25.2188Z" fill="#3B5998"/>
</svg>
