<svg width="21" height="14" viewBox="0 0 21 14" fill="none" xmlns="http://www.w3.org/2000/svg">
<path d="M0.358 13.978C0.148 13.934 0 13.752 0 13.542C0 6.289 8.61 4.744 10.61 4.483V1.155C10.61 0.990999 10.7 0.840999 10.845 0.761999C10.992 0.685999 11.166 0.696999 11.301 0.785999L20.503 6.98C20.624 7.062 20.697 7.198 20.697 7.349C20.697 7.496 20.624 7.633 20.503 7.715L11.306 13.908C11.169 13.998 10.993 14.008 10.849 13.931C10.703 13.853 10.613 13.702 10.613 13.537V9.957C9.166 9.966 7.968 10.03 6.971 10.15C2.186 10.717 0.907 13.59 0.855 13.713C0.784 13.878 0.622 13.984 0.445 13.984C0.415 13.986 0.385 13.984 0.358 13.978Z" fill="white"/>
</svg>
