<svg width="1374" height="852" viewBox="0 0 1374 852" fill="none" xmlns="http://www.w3.org/2000/svg">
<path d="M0 115.767C19.909 69.4772 49.446 -71.15 128.36 44.6787C207.274 160.507 285.688 -1.55338 510.942 148.079C736.196 297.712 828.603 -85.3235 962.949 44.6787C1097.29 174.681 1189.88 112.043 1374 30.2622V852H0V115.767Z" fill="#3A3A3A" fill-opacity="0.5"/>
<path d="M0 50.9289C84.2518 216.257 146.553 -9.59172 254.092 98.795C361.632 207.182 386.641 -38.2017 574.709 113.1C762.778 264.401 656.739 -42.0526 832.303 50.9289C1007.87 143.91 960.85 -12.8931 1164.92 113.1C1369 239.092 1374 65.7835 1374 65.7835V852L0 852V50.9289Z" fill="#3A3A3A" fill-opacity="0.7"/>
<path d="M178.667 127.325C56.9206 30.2031 42.4017 114.32 0 203.901V852H1374V246.859C1374 138.531 1136.8 89.9701 1053 138.531C969.2 187.092 792.475 203.901 715 127.325C637.525 50.7481 586.207 273.007 436 138.531C285.793 4.05503 300.414 224.446 178.667 127.325Z" fill="#3A3A3A" fill-opacity="0.9"/>
</svg>
