<svg width="1945" height="1201" viewBox="0 0 1945 1201" fill="none" xmlns="http://www.w3.org/2000/svg">
<path d="M432 361C259.5 349 46.9786 30.825 0.5 152.5V1198H1939V498C1939 498 1879.5 197 1748.5 134.5C1617.5 71.9993 1447.5 77.9999 1307.5 254C1167.5 429.999 834 134.5 733 152.5C632 170.5 604.5 372.999 432 361Z" fill="#FBC94A" fill-opacity="0.7"/>
<path d="M277.5 75C179 0.5 93.1099 403.53 3.5 289.5V1195H1945V0.5C1945 0.5 1677.88 502.51 1581.5 209C1485.12 -84.5096 1147 176.5 876 248C605 319.5 376 149.5 277.5 75Z" fill="#FBC94A" fill-opacity="0.8"/>
<path d="M1137.49 718.861C1352.69 1409.29 1502.03 158 1502.03 158C1650.15 554.817 1798.68 397.311 1895.21 158L1944 425.933L1944 1201L24 1201V738.095C133.47 999.635 239.247 249.462 308.297 525.039C377.347 800.616 922.296 28.4289 1137.49 718.861Z" fill="#FBC94A"/>
<path d="M1137.49 718.861C1352.69 1409.29 1502.03 158 1502.03 158C1650.15 554.817 1798.68 397.311 1895.21 158L1944 425.933L1944 1201L24 1201V738.095C133.47 999.635 239.247 249.462 308.297 525.039C377.347 800.616 922.296 28.4289 1137.49 718.861Z" fill="url(#paint0_linear)"/>
<path d="M1137.49 718.861C1352.69 1409.29 1502.03 158 1502.03 158C1650.15 554.817 1798.68 397.311 1895.21 158L1944 425.933L1944 1201L24 1201V738.095C133.47 999.635 239.247 249.462 308.297 525.039C377.347 800.616 922.296 28.4289 1137.49 718.861Z" fill="url(#paint1_linear)"/>
<defs>
<linearGradient id="paint0_linear" x1="984" y1="1201" x2="984" y2="-413.637" gradientUnits="userSpaceOnUse">
<stop stop-color="white" stop-opacity="0"/>
<stop offset="0.9998" stop-color="#FCFCFC" stop-opacity="0.0196417"/>
<stop offset="0.9999" stop-color="#735D5D" stop-opacity="0.942708"/>
<stop offset="1" stop-color="#6A5353"/>
</linearGradient>
<linearGradient id="paint1_linear" x1="984" y1="1201" x2="984" y2="158" gradientUnits="userSpaceOnUse">
<stop stop-color="white"/>
<stop offset="0.0001" stop-color="white" stop-opacity="0"/>
</linearGradient>
</defs>
</svg>
