<svg width="1366" height="987" viewBox="0 0 1366 987" fill="none" xmlns="http://www.w3.org/2000/svg">
<path d="M334.5 173.5C255.5 77.4588 0 3.05176e-05 0 3.05176e-05V871.889C0 871.889 234.082 905.014 299.244 966.85C364.406 1028.68 601.495 871.889 601.495 871.889C601.495 871.889 838.584 1044.7 973.921 966.85C1109.26 889.004 1365.9 905.014 1365.9 905.014V50.9175C1365.9 50.9175 1209.5 8.5 1025.5 142C841.5 275.5 624.051 35.4588 624.051 35.4588C624.051 35.4588 413.5 269.541 334.5 173.5Z" fill="#B0B0B0" fill-opacity="0.5"/>
<path d="M296.999 79.3868C149.121 60.68 0 149.647 0 149.647V959.384C0 991.453 224 904.968 331 927.316C438 949.663 621 1000.62 727.5 959.384C834 918.152 1042.68 867.454 1169 927.316C1295.32 987.177 1366 959.384 1366 959.384V62C1366 62 1267 160.543 1114.5 120.542C962 80.5404 782.5 91.4364 687.5 120.542C592.5 149.647 444.878 98.0936 296.999 79.3868Z" fill="#828181" fill-opacity="0.9"/>
<path d="M282 179C233 195.89 51.4799 119.736 0 162.11V919.527C177.873 902.292 221.941 888.115 291 894.11C360.059 900.106 502 933.742 678.11 902.583C854.22 871.423 952.5 882.679 1086.5 919.527C1220.5 956.375 1366 919.527 1366 919.527V135.998C1366 135.998 1216 169.607 1097 149C978 128.393 845 203.5 678.11 162.11C511.22 120.72 331 162.11 282 179Z" fill="url(#paint0_linear)"/>
<defs>
<linearGradient id="paint0_linear" x1="683" y1="932.176" x2="683" y2="-59.235" gradientUnits="userSpaceOnUse">
<stop stop-color="#3A3A3A"/>
<stop offset="0.541667" stop-color="#3A3A3A"/>
<stop offset="0.9999" stop-color="#3A3A3A"/>
<stop offset="1" stop-color="#3A3A3A" stop-opacity="0"/>
</linearGradient>
</defs>
</svg>
