<svg width="4454" height="346" viewBox="0 0 4454 346" fill="none" xmlns="http://www.w3.org/2000/svg">
<path d="M1161.92 344.174C1161.92 343.168 1160.85 342.539 1159.54 342.774C1158.23 343.009 1155.52 342.064 1153.52 340.674C1151.41 339.207 1148.15 338.145 1145.77 338.145C1142.51 338.145 1142.25 337.935 1144.51 337.143C1146.71 336.374 1146.64 336.069 1144.2 335.831C1141.7 335.587 1141.81 335.242 1144.71 334.217C1147.52 333.224 1147.67 332.842 1145.33 332.613C1143.64 332.448 1142.25 331.999 1142.25 331.616C1142.25 331.232 1143.35 331.115 1144.68 331.355C1146.08 331.605 1146.49 331.319 1145.65 330.683C1144.84 330.074 1145.45 329.575 1146.99 329.575C1149.04 329.575 1149.09 329.187 1147.17 328.146C1145.06 326.999 1145.3 326.718 1148.41 326.718C1151.54 326.718 1151.69 326.534 1149.2 325.761C1146.02 324.771 1139.84 325.656 1140.64 326.986C1140.85 327.33 1139.73 327.75 1138.14 327.919C1136.25 328.122 1135.75 327.687 1136.69 326.647C1137.47 325.778 1137.11 325.237 1135.88 325.446C1134.65 325.654 1131.43 325.589 1128.73 325.3C1124.83 324.883 1125.97 324.667 1134.26 324.255C1140.78 323.931 1144.71 323.356 1144.71 322.727C1144.71 322.172 1146.86 321.719 1149.49 321.719C1152.12 321.719 1155.78 321.091 1157.63 320.324C1160.95 318.948 1173.47 317.072 1177.53 317.341C1178.68 317.418 1185.87 317.022 1193.52 316.462C1201.16 315.901 1214.33 315.216 1222.79 314.94C1231.24 314.663 1238.78 314.146 1239.53 313.792C1240.29 313.438 1243.33 313.141 1246.29 313.132C1249.25 313.123 1258.32 312.167 1266.43 311.006C1274.55 309.845 1283.06 308.888 1285.34 308.879C1287.63 308.87 1290.18 308.542 1291.02 308.149C1291.86 307.756 1291.29 307.435 1289.77 307.435C1286.36 307.435 1287.59 304.241 1291.02 304.171C1292.37 304.144 1298.33 303.718 1304.26 303.225C1310.19 302.732 1317.74 302.526 1321.04 302.766C1324.34 303.007 1330.56 302.889 1334.85 302.504C1339.15 302.119 1348.83 301.454 1356.38 301.025C1377.09 299.847 1388.15 298.864 1388.15 298.2C1388.15 297.511 1262.01 297.992 1230.78 298.799C1214.32 299.225 1208.04 299.108 1201.27 298.253C1196.53 297.655 1192.11 297.119 1191.43 297.063C1190.76 297.006 1186.97 296.571 1183.02 296.097C1179.06 295.623 1174.08 295.433 1171.95 295.674C1169.82 295.915 1137.09 296.228 1099.22 296.369C1061.35 296.51 1025.39 296.945 1019.3 297.337C1013.22 297.728 994.98 298.421 978.774 298.877C962.569 299.333 947.192 300.035 944.605 300.437C942.017 300.84 934.495 301.018 927.89 300.834C921.284 300.649 915.283 300.779 914.554 301.121C913.825 301.464 912.198 301.56 910.939 301.334C909.68 301.108 908.65 301.263 908.65 301.679C908.65 302.095 907.82 302.372 906.806 302.294C902.716 301.979 881.602 303.279 881.602 303.845C881.602 304.542 863.027 305.701 856.003 305.442C853.42 305.346 849.227 305.917 846.686 306.709C844.145 307.501 840.173 308.187 837.859 308.233C835.545 308.28 827.012 308.387 818.898 308.472C810.783 308.556 799.718 308.997 794.308 309.45C788.898 309.904 780.292 310.456 775.183 310.676C770.073 310.897 766.493 311.36 767.227 311.705C769.516 312.78 764.051 313.062 721.329 314.071C719.059 314.125 717.399 314.473 717.641 314.845C717.882 315.217 715.867 315.711 713.162 315.942C710.457 316.173 705.45 316.914 702.036 317.589C697.569 318.471 688.256 318.944 668.84 319.275C653.996 319.527 639.294 319.701 636.168 319.659C633.042 319.618 627.086 320.095 622.932 320.719C618.642 321.363 614.724 321.57 613.862 321.198C611.745 320.285 603.088 319.407 604.985 320.298C606.983 321.238 604.59 321.19 598.043 320.159C584.829 318.078 522.271 319.66 515.744 322.239C513.724 323.038 513.502 323.576 515.13 323.734C516.529 323.869 517.674 324.265 517.674 324.613C517.674 324.96 516.126 325.072 514.234 324.861C512.342 324.651 510.064 324.821 509.171 325.241C506.786 326.361 521.523 326.199 529.476 325.017C533.128 324.474 541.095 323.793 547.181 323.504C553.267 323.215 560.183 322.874 562.55 322.747C564.917 322.619 566.853 322.936 566.853 323.45C566.853 324.112 569.911 324.316 577.304 324.148C585.382 323.964 586.766 324.077 583.399 324.644C581.004 325.047 579.598 325.638 580.275 325.956C581.735 326.642 567.987 327.331 541.37 327.908C526.426 328.231 521.548 328.103 519.892 327.344C518.338 326.631 517.739 326.606 517.711 327.254C517.656 328.569 502.875 328.356 497.581 326.964C495.107 326.314 493.084 326.086 493.084 326.458C493.084 326.868 485.102 326.941 472.797 326.643C461.64 326.373 444.212 325.975 434.069 325.758C423.925 325.542 411.992 324.991 407.549 324.535C403.107 324.078 396.718 323.857 393.351 324.044C389.985 324.231 386.533 324.056 385.68 323.655C384.727 323.207 385.369 323.149 387.348 323.504C389.35 323.864 389.97 323.801 388.988 323.34C387.136 322.47 375.408 321.681 361.529 321.494C353.341 321.384 351.648 321.104 351.426 319.827C351.187 318.455 352.883 318.234 367.409 317.745C376.347 317.445 386.426 317.268 389.807 317.353L395.954 317.507L389.43 316.477C378.116 314.691 367.083 313.937 345.546 313.479C334.05 313.235 317.452 312.51 308.661 311.868C288.442 310.393 218.285 310.28 215.225 311.717C214.172 312.212 212.009 312.384 210.418 312.098C206.31 311.36 161.059 311.112 162.598 311.836C164.038 312.512 163.671 312.524 131.504 312.807C108.8 313.007 99.2173 313.251 65.2226 314.495C49.7218 315.062 40.659 314.737 31.7996 313.297C28.0894 312.694 28.889 312.351 37.8242 310.713C45.0311 309.391 53.8356 308.614 67.1254 308.126C89.8052 307.294 111.444 306.245 127.035 305.222C136.36 304.61 138.22 304.232 137.243 303.147C136.542 302.368 134.625 301.979 132.602 302.204C130.707 302.415 129.156 302.233 129.156 301.798C129.156 301.363 131.092 301.002 133.459 300.996C137.137 300.987 137.226 300.885 134.074 300.293C131.741 299.855 131.487 299.597 133.382 299.59C135.035 299.583 135.741 299.097 134.958 298.504C133.969 297.755 136.423 297.056 143.027 296.203L152.516 294.979L128.49 294.548C115.276 294.311 97.8484 294.15 89.7617 294.19C81.6749 294.23 75.0585 294.222 75.0585 294.173C75.0585 294.124 77.2716 293.343 79.9764 292.437C82.6813 291.531 84.8944 291.007 84.8944 291.273C84.8944 291.538 87.3862 291.282 90.4317 290.702C93.4772 290.122 104.172 289.278 114.198 288.826C124.224 288.375 136.81 287.556 142.166 287.007C147.523 286.458 155.915 285.998 160.817 285.984C174.511 285.944 209.006 283.339 199.032 283.098C197.792 283.068 194.565 282.895 191.86 282.714C189.155 282.534 185.591 282.3 183.939 282.194C178.313 281.836 177.954 281.141 183.147 280.662C185.998 280.4 191.222 279.406 194.757 278.455C198.292 277.503 203.654 276.725 206.672 276.725C209.69 276.725 213.421 276.283 214.964 275.743C217.27 274.936 215.242 274.677 203.585 274.292C195.784 274.034 186.081 273.667 182.024 273.477C172.371 273.024 133.961 273.089 131.323 273.563C127.764 274.202 99.6483 274.503 99.6483 273.902C99.6483 273.587 101.308 272.928 103.337 272.439C105.365 271.95 107.025 271.215 107.025 270.804C107.025 270.394 106.297 270.27 105.407 270.529C104.517 270.787 102.304 270.641 100.489 270.203C98.662 269.763 97.1893 269.712 97.1893 270.09C97.1893 270.466 95.5295 270.773 93.5008 270.773C87.5953 270.773 89.2153 270.008 97.3305 268.965C106.457 267.791 105.15 267.299 90.4371 266.369C77.0156 265.52 74.457 264.189 84.0798 263.063C94.0384 261.897 140.826 260.384 167.573 260.363C180.109 260.352 193.302 260.131 196.89 259.869L203.413 259.393L196.407 257.729C192.554 256.813 187.53 256.053 185.243 256.039C179.414 256.003 177.643 254.867 180.769 253.17C184.07 251.378 205.46 248.157 214.054 248.157C217.677 248.157 219.772 247.849 218.908 247.443C218.073 247.05 215.359 246.728 212.879 246.728C208.713 246.728 204.081 244.945 204.994 243.693C205.921 242.42 166.907 243.844 163.642 245.202C161.148 246.239 98.3571 248.95 92.1843 248.287L86.3061 247.656L92.0241 246.767C95.169 246.278 115.599 245.013 137.424 243.957C177.361 242.023 187.081 240.658 160.911 240.658C152.87 240.658 145.473 240.25 143.068 239.674C139.652 238.856 134.923 238.833 115.001 239.54C78.3689 240.839 57.0796 241.731 52.087 242.177C48.7793 242.472 47.7845 242.261 48.3985 241.392C49.2934 240.126 56.9011 238.641 68.8278 237.404C79.0937 236.339 72.7124 235.401 59.5863 236.045C53.8954 236.324 44.2599 236.779 38.1739 237.055L27.1085 237.559L36.3297 234.992C41.4013 233.58 45.5509 232.311 45.5509 232.17C45.5509 232.03 38.6892 231.689 30.3027 231.414C10.4738 230.762 -0.136044 229.148 0.00131712 226.803C0.0734719 225.566 15.9813 223.907 30.7831 223.593C36.8767 223.463 50.7147 222.847 61.5341 222.223C72.3537 221.598 88.9531 220.943 98.4218 220.766C107.891 220.59 122.275 220.107 130.388 219.693C180.774 217.123 192.115 216.491 194.286 216.129C195.621 215.907 191.748 215.374 185.68 214.945C179.573 214.513 174.647 213.746 174.647 213.227C174.647 212.025 199.431 209.414 221.924 208.247C232.866 207.679 240.961 206.834 243.612 205.983C245.984 205.222 254.216 204.261 262.36 203.796C280.838 202.74 280.339 201.739 260.262 199.584C255.957 199.122 252.934 198.372 253.543 197.918C254.931 196.884 266.328 195.307 272.412 195.307C274.927 195.307 276.301 194.985 275.465 194.592C274.629 194.2 265.711 193.878 255.648 193.878C239.067 193.878 232.409 193.148 240.424 192.209C247.586 191.369 211.7 191.824 193.976 192.797C171.903 194.009 159.893 193.501 159.893 191.357C159.893 190.369 166.316 189.071 184.029 186.48C200.716 184.04 207.167 182.763 204.931 182.344C200.682 181.547 204.875 180.732 221.367 179.15C244.646 176.917 263.113 173.174 260.689 171.18C259.033 169.818 268.106 169.075 305.591 167.504C324.223 166.722 342.883 165.588 347.057 164.984C351.231 164.379 360.067 163.695 366.694 163.465C384.965 162.829 419.926 160.26 425.395 159.152C428.062 158.611 433.595 158.146 437.689 158.118C441.784 158.091 447.347 157.792 450.052 157.454C453.968 156.966 452.966 156.819 445.134 156.735C424.175 156.511 413.053 155.911 410.274 154.854C408.377 154.133 405.414 153.911 401.668 154.21C396.751 154.602 396.561 154.556 400.302 153.875C402.693 153.44 406.566 153.175 408.908 153.287C411.251 153.399 414.656 153.22 416.475 152.889C418.433 152.532 422.26 152.672 425.848 153.229C430.575 153.964 432.94 153.986 436.565 153.328C439.509 152.794 441.764 152.741 442.706 153.184C443.525 153.569 450.492 153.895 458.189 153.909C465.885 153.923 474.949 154.393 478.33 154.955C485.696 156.178 488.166 156.268 488.166 155.312C488.166 154.919 486.441 154.598 484.332 154.598C482.224 154.598 481.105 154.313 481.846 153.965C482.587 153.617 480.876 153.156 478.043 152.941C475.211 152.726 473.375 152.127 473.962 151.61C475.047 150.656 486.061 150.097 520.133 149.267C550.914 148.517 559.476 148.113 559.476 147.412C559.476 147.043 557.816 146.742 555.788 146.742C553.739 146.742 552.099 146.107 552.099 145.313C552.099 144.266 553.739 143.885 558.247 143.885C565.32 143.885 566.526 142.785 559.997 142.289C557.578 142.105 545.13 142.127 532.333 142.336C495.064 142.947 480.156 142.744 472.359 141.519C468.399 140.896 464.449 140.514 463.583 140.67C462.716 140.825 462.464 140.048 463.023 138.942C464.242 136.529 460.784 136.153 435.536 135.951C420.425 135.83 419.253 135.722 424.504 134.932C433.143 133.631 464.834 131.765 483.732 131.443C493.39 131.279 502.513 130.693 505.795 130.025C512.781 128.604 516.99 128.586 521.713 129.958C523.838 130.575 529.758 131.023 535.677 131.014C553.902 130.987 621.9 128.978 631.133 128.194C639.754 127.462 640.016 127.344 638.197 125.002C637.051 123.526 637.308 122.279 638.853 121.83C640.606 121.321 640.531 120.788 638.61 120.115C632.735 118.06 640.208 117.634 676.093 117.981C703.976 118.25 712.674 118.102 718.332 117.264C724.318 116.378 751.307 115.155 769.718 114.936C772.423 114.904 780.169 114.59 786.931 114.239L799.226 113.6L788.161 113.081C782.075 112.795 763.817 112.725 747.588 112.926C731.358 113.126 708.121 113.247 695.949 113.195C683.777 113.142 659.987 113.623 643.081 114.263C609.631 115.529 575.135 116.415 560.285 116.388C555.107 116.379 550.175 116.653 549.325 116.996C548.476 117.339 544.326 117.66 540.104 117.711C535.882 117.761 532.428 118.068 532.428 118.393C532.428 118.718 529.938 118.781 526.895 118.532C522.564 118.178 522.163 118.243 525.051 118.83C528.23 119.477 528.145 119.582 524.436 119.591C522.069 119.598 520.133 119.961 520.133 120.399C520.133 120.888 517.794 120.75 514.072 120.041C507.34 118.76 504.389 118.559 506.436 119.521C507.176 119.869 505.582 120.321 502.892 120.525C500.093 120.738 498.002 120.544 498.001 120.071C498.001 119.593 494.119 119.245 488.78 119.245C482.919 119.245 479.769 119.558 480.135 120.104C480.532 120.695 477.882 120.857 471.636 120.625C461.399 120.244 451.3 118.58 451.244 117.265C451.217 116.702 450.352 116.772 448.823 117.46C446.972 118.291 446.43 118.081 446.401 116.52C446.353 113.944 450.405 111.746 455.201 111.746C457.262 111.746 458.265 111.425 457.429 111.032C456.593 110.639 457.911 110.293 460.357 110.263C468.46 110.163 473.607 109.731 479.086 108.688C483.998 107.753 495.543 108.113 495.543 109.201C495.543 109.398 494.06 109.393 492.248 109.191C490.436 108.989 487.393 109.382 485.486 110.064C482.498 111.134 482.501 111.221 485.513 110.694C488.198 110.224 488.605 110.385 487.274 111.393C486.239 112.176 486.812 112.936 488.7 113.284C493.405 114.151 497.366 113.988 493.087 113.104C490.311 112.53 491.736 112.436 498.842 112.723C504.066 112.934 510.296 112.741 512.782 112.29C516.185 111.672 518.152 111.685 520.878 112.342C523.782 113.042 524.848 112.965 526.386 111.942C527.435 111.245 528.117 110.433 527.903 110.138C527.688 109.844 529.08 109.603 530.996 109.603C532.912 109.603 534.901 109.235 535.417 108.786C535.932 108.337 539.601 107.869 543.568 107.746C547.536 107.623 552.018 107.031 553.529 106.431C555.04 105.831 557.174 105.576 558.27 105.864C559.366 106.153 559.568 105.826 558.718 105.139C556.818 103.601 561.521 103.457 563.548 104.991C564.837 105.967 565.535 105.954 569.619 104.881C573.978 103.735 574.235 103.743 574.27 105.028C574.302 106.168 574.694 106.215 576.692 105.318C580.245 103.721 579.738 103.373 573.157 102.893C568.983 102.589 567.281 101.999 567.553 100.952C567.986 99.2842 576.551 98.0372 586.42 98.2056C595.619 98.3627 603.74 97.4436 603.74 96.2454C603.74 95.4742 606.184 95.2479 612.962 95.3916C622.872 95.6016 639.545 94.7978 645.543 93.8206C648.522 93.3354 648.285 93.209 644.314 93.1642C641.609 93.1339 633.863 92.958 627.101 92.7739C606.191 92.2046 578.378 92.2225 568.345 92.8118C561.457 93.2163 559.249 93.1482 560.481 92.5693C561.539 92.0722 560.874 91.9116 558.741 92.1493C556.718 92.3747 553.454 91.7209 550.859 90.5706C547.691 89.1663 547.274 88.5255 549.396 88.32C551.389 88.1272 550.907 87.7012 547.929 87.0227C543.888 86.102 544.149 86.0456 550.873 86.3849C554.93 86.5897 556.866 86.5679 555.176 86.3363C548.948 85.4836 552.378 84.6061 561.937 84.6061C568.147 84.6061 571.787 84.9352 571.811 85.4988C571.838 86.1557 572.407 86.1356 573.962 85.4226C575.291 84.8138 576.651 84.7238 577.623 85.1804C579.274 85.9562 582.404 85.8958 590.089 84.9402C592.725 84.6125 598.518 84.3229 602.964 84.2967C613.155 84.2366 616.464 82.4635 606.385 82.4635C602.398 82.4635 598.735 81.9991 597.933 81.3922C596.978 80.6693 598.052 80.3209 601.236 80.3209C603.831 80.3209 606.839 79.9192 607.921 79.4282C610.741 78.1479 620.762 76.6314 623.342 77.0945C624.546 77.3106 626.226 77.161 627.075 76.7616C627.925 76.3625 631.673 76.0358 635.405 76.0358C639.137 76.0358 648.201 75.5138 655.547 74.876C667.141 73.8691 668.183 73.6377 663.447 73.1217C660.446 72.7948 639.914 72.5709 617.82 72.6242C595.726 72.6779 576.203 72.4616 574.436 72.1444C572.606 71.8159 570.499 71.908 569.541 72.3583C567.565 73.2869 491.125 73.9908 489.225 73.0979C488.557 72.784 486.293 72.7186 484.195 72.9525C481.61 73.2406 481.27 73.5378 483.141 73.8736C484.66 74.1462 482.539 74.3693 478.429 74.3693C474.318 74.3693 470.955 74.0622 470.955 73.6867C470.955 73.3113 469.269 73.4107 467.207 73.9075C465.146 74.4044 462.673 74.5825 461.711 74.3032C460.75 74.0239 462.713 73.1876 466.074 72.4445L472.185 71.0935L466.037 71.4367C460.65 71.7375 460.498 71.696 464.808 71.1013C471.9 70.1227 483.554 70.224 490.386 71.3236C497.045 72.3953 505.381 72.0422 505.381 70.6883C505.381 70.0647 510.236 69.7846 521.364 69.7663C531.393 69.7499 537.348 70.0324 537.348 70.5247C537.348 70.9564 538.731 70.7829 540.421 70.1392C542.641 69.2938 549.299 68.8416 564.396 68.5105C575.892 68.2584 592.282 67.5988 600.819 67.0446C609.355 66.4905 619.867 66.0062 624.179 65.9685C628.49 65.9306 637.551 65.4611 644.313 64.9248C655.842 64.0104 654.54 63.9739 623.412 64.3392C605.154 64.5535 588.556 64.7341 586.527 64.7405C584.498 64.747 559.048 65.5056 529.971 66.4264C500.893 67.3471 469.192 68.1987 459.524 68.3186C449.856 68.4387 442.452 68.7778 443.071 69.0724C443.69 69.367 439.429 69.6093 433.601 69.6109C427.773 69.6109 413.046 70.0794 400.875 70.6484C380.002 71.6242 330.904 72.6305 337.571 71.9458C339.27 71.7714 340.035 71.3347 339.27 70.9754C338.506 70.6162 340.989 70.3068 344.788 70.288C348.587 70.2696 355.568 69.6438 360.301 68.8984C365.035 68.1531 371.121 67.2435 373.826 66.8772C382.717 65.6731 527.744 58.7046 561.937 57.8386C572.081 57.5817 601.404 56.7348 627.1 55.9568C652.796 55.1788 686.712 54.2303 702.469 53.8492C718.225 53.4679 736.441 52.6907 742.948 52.1219C751.497 51.3747 755.25 51.3088 756.475 51.8845C758.029 52.6144 783.899 52.4146 815.211 51.4308C819.945 51.2821 834.883 50.9596 848.408 50.7142C872.675 50.2739 909.648 48.7924 930.343 47.4312C936.187 47.0468 942.004 46.9182 943.27 47.1454C944.536 47.3727 961.668 46.8503 981.341 45.9848C1010.45 44.704 1018.16 44.5738 1022.74 45.2857C1027.34 46.0014 1033.24 45.8812 1055.19 44.625C1091.72 42.5338 1139.4 39.8151 1163.16 38.4681C1173.98 37.8547 1189.69 36.8969 1198.09 36.3398C1206.48 35.7827 1216.99 35.3285 1221.45 35.3304C1225.9 35.3304 1234.53 34.8711 1240.61 34.3054C1250.87 33.352 1271.87 32.2937 1327.91 29.906C1356.7 28.6794 1362.49 28.3963 1391.84 26.7851C1405.36 26.0426 1427.5 24.9047 1441.02 24.2564C1454.54 23.608 1468.93 22.9182 1472.99 22.7234C1501.7 21.3452 1507.17 21.3708 1512.88 22.9104C1515.96 23.7411 1518.48 24.7856 1518.48 25.2315C1518.48 25.6775 1519.31 26.0043 1520.32 25.9578C1521.34 25.9117 1524.69 25.9117 1527.79 25.9578C1532.48 26.0284 1533 26.2608 1530.95 27.3768C1527.94 29.0105 1530.34 29.8917 1534.85 28.8055C1539.92 27.5833 1538.77 28.6826 1532.93 30.6311C1529.87 31.6532 1523.73 32.5696 1518.07 32.8471C1509.81 33.2523 1508.87 33.4756 1511.52 34.4009C1515.48 35.7896 1512.13 35.8757 1669.7 30.3382C1680.52 29.9579 1699.89 29.4927 1712.74 29.3044C1725.58 29.116 1748.82 28.6236 1764.38 28.2101C1779.93 27.7967 1800.4 27.3311 1809.87 27.1754C1819.33 27.0199 1831.45 26.5596 1836.8 26.1526C1842.15 25.7457 1863.37 25.3929 1883.95 25.3688C1904.54 25.3447 1922.84 25.1817 1924.64 25.0066C1929.06 24.5746 1986.68 23.6978 2000.39 23.8539C2006.46 23.9231 2013.11 24.4241 2015.18 24.9677C2019.81 26.1858 2031.61 26.3079 2086.5 25.7057C2111.73 25.4288 2134.9 24.7993 2142.51 24.1839C2152.44 23.381 2168.9 23.1612 2212.59 23.2485C2244 23.3116 2296.25 23.12 2328.71 22.8237C2394.49 22.223 2390.97 22.2162 2459.04 23.0744C2503.1 23.63 2528.53 23.6531 2567.23 23.1726C2573.99 23.0886 2577.59 22.8729 2575.22 22.6933C2572.85 22.5137 2570.92 22.0307 2570.92 21.6201C2570.92 21.1276 2577.82 21.0152 2591.2 21.2896C2602.36 21.5185 2635.84 22.0314 2665.59 22.4294C2695.34 22.8276 2733.52 23.483 2750.42 23.8859C2818.34 25.5049 2844.24 26.0754 2879.52 26.7295C2967.74 28.3653 3014.24 29.0171 3062.71 29.2971C3085.03 29.4261 3112.69 29.7506 3124.19 30.0182C3135.68 30.2858 3152.83 30.4759 3162.3 30.4407C3171.77 30.406 3190.58 30.6927 3204.1 31.079C3217.63 31.4654 3261.43 31.923 3301.44 32.0961C3341.45 32.2691 3379.07 32.7239 3385.04 33.1067C3391.02 33.4896 3404.6 33.9769 3415.22 34.1896C3425.85 34.4024 3438.02 34.7418 3442.27 34.9438C3456.81 35.6348 3479.51 36.1046 3512.7 36.4015C3541.94 36.663 3570.34 37.2906 3612.29 38.6021C3619.06 38.8134 3628.46 39.076 3633.19 39.1856C3637.93 39.2953 3650.1 39.5912 3660.24 39.8433C3670.39 40.0955 3687.54 40.4984 3698.35 40.7387C3709.17 40.9789 3718.58 41.2746 3719.26 41.3956C3719.93 41.5167 3726.78 41.8097 3734.47 42.0473C3742.16 42.2847 3750.08 42.6597 3752.06 42.8805C3754.04 43.1013 3765.45 43.3777 3777.42 43.4947C3810.28 43.816 3810.24 43.8141 3810.24 44.9684C3810.24 45.5576 3811.41 46.0397 3812.84 46.0397C3814.28 46.0397 3814.65 45.6637 3813.67 45.2042C3812.46 44.6344 3813.26 44.5208 3816.19 44.8471C3818.55 45.1103 3822.92 45.3256 3825.9 45.3256C3829.56 45.3256 3831.45 45.7898 3831.7 46.7539C3832.14 48.4612 3830.8 48.5432 3825.87 47.111C3820.73 45.6161 3814.97 45.7282 3816.7 47.2896C3817.55 48.0586 3817.28 48.2324 3816.01 47.7413C3814.59 47.1973 3807.66 47.0952 3794.26 47.4207C3771.18 47.9809 3753.76 47.8267 3721.72 46.7786C3708.87 46.3584 3692.27 45.8417 3684.83 45.6305C3677.39 45.4193 3670.02 45.1239 3668.44 44.974C3666.86 44.8241 3664.92 45.1889 3664.14 45.7846C3663.08 46.5868 3660.74 46.7424 3655.13 46.3847C3646.33 45.8227 3640.66 45.6091 3617.21 44.9534C3607.74 44.6888 3599.34 44.354 3598.53 44.2095C3596.8 43.9017 3563.91 43.8511 3518.85 44.087C3490.26 44.2366 3470.1 43.8278 3455.06 42.7934C3446.59 42.2106 3387.3 41.9584 3387.3 42.5053C3387.3 42.7865 3394.77 43.2488 3403.9 43.5326C3413.02 43.8164 3422.71 44.1754 3425.41 44.3303C3444.39 45.4173 3495.2 46.6354 3536.07 46.9831C3545.53 47.0637 3554.45 47.3471 3555.88 47.6131C3558.26 48.0553 3633.55 49.7606 3637.59 49.4638C3638.55 49.3931 3647.64 49.5601 3657.78 49.8349C3673.47 50.2597 3713.51 51.1146 3723.56 51.2391C3727.19 51.284 3727.62 52.2059 3724.29 52.8044C3721.9 53.2339 3703.36 53.3331 3686.59 53.0061C3681.46 52.9063 3676.37 52.4015 3675.27 51.8845C3673.79 51.1852 3669.56 51.0684 3658.77 51.4284C3650.79 51.6946 3643.52 52.0402 3642.61 52.1965C3641.71 52.3528 3639.29 51.9931 3637.24 51.3973C3635.19 50.8015 3632.92 50.5891 3632.21 50.9256C3630.82 51.5782 3581.19 51.3002 3566.8 50.5592C3562.07 50.3154 3553.73 50.0496 3548.26 49.9686C3542.8 49.8876 3535.88 49.4412 3532.89 48.9767C3528.55 48.3014 3527.46 48.3232 3527.46 49.0857C3527.46 49.647 3524.17 50.1164 3519.47 50.2267C3500.02 50.6823 3472.81 50.6391 3451.23 50.1184C3435.71 49.7439 3429.08 49.7907 3431.49 50.2582C3441.18 52.1432 3423 53.0728 3394.67 52.1401C3369.57 51.3131 3365.08 51.2696 3354.23 51.7479C3348.63 51.9946 3340.78 51.942 3336.78 51.6308C3326.25 50.8113 3271.51 49.36 3247.14 49.254C3235.64 49.2041 3219.04 48.9434 3210.25 48.6749C3201.46 48.4064 3183.76 48.0217 3170.91 47.8201C3158.06 47.6184 3127.63 46.981 3103.29 46.4034C3078.94 45.8259 3042.73 45.1374 3022.82 44.8735C2990.37 44.4434 2986.46 44.517 2985.05 45.583C2983.71 46.5969 2979.43 46.7679 2956.09 46.742C2941.02 46.7255 2923.72 46.9722 2917.63 47.2908L2906.57 47.8703L2925.01 48.6666C2935.15 49.1046 2947.33 49.4542 2952.06 49.4434C2956.79 49.4317 2976.16 49.9215 2995.09 50.5297C3014.03 51.138 3049.99 51.9945 3075.01 52.433C3100.03 52.8716 3122.96 53.3842 3125.97 53.5722C3128.98 53.7602 3153.87 54.227 3181.3 54.6093C3230.58 55.2966 3265.11 55.8575 3291.4 56.3976C3298.84 56.5505 3324.35 57.001 3348.1 57.3989C3371.85 57.7967 3392.88 58.2653 3394.82 58.4402C3396.77 58.6151 3400.58 59.0013 3403.28 59.2984C3405.99 59.5955 3412.45 59.9277 3417.65 60.0368C3422.85 60.146 3428.39 60.7447 3429.96 61.3675C3432.22 62.2668 3438.63 62.5379 3461.08 62.6845C3476.62 62.7861 3490.45 63.0669 3491.8 63.3083C3493.16 63.5498 3502.56 63.936 3512.7 64.1665C3561.19 65.2684 3609.67 66.1634 3631.96 66.3685C3645.49 66.493 3674.26 67.1559 3695.9 67.8419C3717.54 68.5278 3745.2 69.1957 3757.37 69.3261C3841.62 70.2285 3908.9 71.3649 3944.25 72.4825C3956.43 72.8673 3977.76 73.3888 3991.67 73.6414C4005.57 73.8941 4017.53 74.3755 4018.24 74.7113C4018.96 75.0471 4015.88 75.3479 4011.41 75.3798C4006.93 75.412 4000.15 75.5036 3996.33 75.5842C3992.51 75.6647 3988.91 75.5046 3988.32 75.2282C3987.73 74.9519 3983.16 75.0537 3978.16 75.4544C3973.09 75.8612 3961.96 75.9748 3952.98 75.7116C3944.12 75.4522 3897.04 75.1143 3848.35 74.9605C3799.67 74.8067 3741.57 74.4734 3719.26 74.2198C3679.48 73.7677 3668.21 74.0443 3694.3 74.8319C3701.54 75.0505 3708 75.3848 3708.65 75.5748C3710.41 76.0841 3701.42 77.3444 3693.96 77.6344C3685.27 77.9725 3682.52 78.8772 3689.96 78.9547C3693.22 78.9889 3710.28 79.3162 3727.86 79.6823C3745.45 80.0484 3780.03 80.5378 3804.71 80.77C3845.28 81.1515 3849.58 81.3119 3849.58 82.4436C3849.58 84.0145 3859.48 84.386 3919.14 85.0539C3943.2 85.3232 3963.46 85.8147 3964.16 86.1462C3964.87 86.4776 3970.29 86.7489 3976.22 86.7489C3996.42 86.7489 3990.76 88.721 3965.95 90.3276C3958.94 90.7811 3949.53 91.093 3945.04 91.0207C3915.1 90.5387 3922.95 91.9449 3956.55 93.0802C3970.07 93.5373 3988.88 94.0669 3998.35 94.2571C4007.82 94.4474 4024.97 94.9234 4036.47 95.3149C4047.96 95.7065 4071.2 96.2388 4088.1 96.4978C4108.92 96.8167 4119.64 97.2708 4121.3 97.9046C4122.66 98.4231 4131.44 99.0478 4140.97 99.3055C4150.44 99.5612 4159.29 100.163 4160.64 100.642C4162 101.122 4171.18 101.731 4181.06 101.996C4190.94 102.261 4201.5 102.95 4204.53 103.527C4208.01 104.188 4218.64 104.692 4233.29 104.89C4264.89 105.317 4289.64 106.122 4291.01 106.767C4292.46 107.445 4270.92 108.413 4267.62 107.819C4266.26 107.575 4265.15 107.681 4265.15 108.053C4265.15 108.425 4269.02 108.941 4273.76 109.199C4283.1 109.708 4284.87 110.596 4278.06 111.363C4270.03 112.268 4281.27 113.701 4306.55 114.993C4327.78 116.079 4341.2 117.421 4331.42 117.481C4322.23 117.537 4336.42 118.796 4351.19 119.235C4359.96 119.495 4368.42 120.019 4370 120.398C4371.57 120.776 4379.85 121.414 4388.41 121.814C4412.17 122.926 4411.92 123.819 4387.67 124.372C4378.61 124.579 4370.33 125.192 4367.84 125.839C4364.35 126.748 4360.07 126.856 4344.48 126.433C4312.77 125.573 4306.49 125.741 4301.74 127.573C4299.41 128.47 4297.98 129.428 4298.57 129.703C4299.15 129.978 4307.09 130.427 4316.2 130.702C4325.31 130.977 4333.88 131.454 4335.23 131.763C4336.58 132.071 4342.95 132.551 4349.37 132.828C4367 133.591 4363.38 134.6 4343.02 134.6C4333.1 134.6 4324.15 134.841 4323.12 135.135C4322.1 135.43 4311.79 135.671 4300.2 135.671C4285.56 135.671 4278.82 135.943 4278.09 136.564C4277.37 137.176 4280 137.458 4286.46 137.46C4291.65 137.462 4299.76 137.759 4304.49 138.12C4309.23 138.48 4322.47 138.978 4333.91 139.227C4345.36 139.475 4355.98 139.979 4357.5 140.347C4359.03 140.714 4360.92 140.828 4361.71 140.599C4362.49 140.37 4365.71 140.45 4368.86 140.776C4373.27 141.234 4370.65 141.473 4357.36 141.824C4341.68 142.239 4323.79 143.281 4314.33 144.332C4308.33 144.999 4317.66 145.732 4345.68 146.793C4359.54 147.317 4370.89 147.938 4370.89 148.171C4370.89 148.404 4378.08 148.461 4386.87 148.299C4399.71 148.061 4402.85 148.208 4402.85 149.047C4402.85 150.341 4395.07 152.458 4390.36 152.444C4387.47 152.435 4387.51 152.313 4390.56 151.74C4393.7 151.151 4393.59 151.046 4389.86 151.037C4387.46 151.031 4384.82 151.525 4384.02 152.134C4382.77 153.079 4378.33 153.188 4353.97 152.869C4323.46 152.471 4315.96 152.943 4321.58 154.911C4331 158.206 4369.39 161.739 4395.79 161.739C4411.74 161.739 4420.06 162.605 4420.06 164.264C4420.06 165.094 4416.13 165.307 4401.01 165.293C4390.53 165.284 4377.52 164.937 4372.11 164.524C4366.7 164.11 4341.22 163.626 4315.47 163.448C4269.95 163.133 4268.65 163.164 4268.29 164.56C4267.94 165.934 4270.94 166.923 4276.21 167.171C4277.57 167.234 4288.17 167.806 4299.79 168.442C4337.79 170.522 4371.54 171.789 4406.08 172.433C4438.08 173.029 4448.99 173.847 4445.69 175.401C4444.93 175.756 4443.26 175.856 4441.96 175.624C4440.67 175.392 4439.92 175.628 4440.29 176.148C4440.66 176.671 4439.05 177.05 4436.69 176.996C4434.34 176.942 4432.94 177.148 4433.59 177.454C4434.24 177.759 4431.02 178.214 4426.43 178.464C4416.5 179.004 4414.15 180.292 4419.23 182.399C4421.94 183.522 4422.23 184.192 4420.3 184.868C4417.13 185.977 4419.2 186.736 4425.39 186.736C4427.87 186.736 4429.9 186.87 4429.9 187.034C4429.9 187.199 4430.63 187.889 4431.53 188.569C4433.03 189.704 4431.38 189.765 4411.25 189.33C4399.19 189.07 4385.18 188.666 4380.11 188.432C4372.77 188.095 4370.88 188.235 4370.88 189.122C4370.88 189.734 4369.1 190.526 4366.92 190.88C4361.29 191.795 4364.67 195.91 4371.73 196.737C4376.78 197.328 4376.8 197.363 4372.11 197.454C4367.2 197.549 4367.2 197.549 4372.11 198.163C4376.91 198.762 4370.21 199.017 4345.07 199.196C4334.58 199.27 4326.62 200.232 4326.62 201.425C4326.62 202.063 4324.07 202.452 4319.86 202.458C4316.14 202.464 4310.58 202.663 4307.51 202.902C4302.27 203.311 4302.19 203.397 4306.28 204.298C4308.68 204.827 4313.67 205.27 4317.37 205.282C4321.07 205.295 4331.39 206.43 4340.32 207.804C4349.32 209.191 4360.12 210.304 4364.58 210.304C4379.48 210.304 4402.73 211.213 4401.58 211.752C4400.96 212.045 4402.33 212.241 4404.63 212.188C4406.93 212.134 4409.2 212.643 4409.69 213.32C4410.81 214.892 4396.29 217.601 4388.8 217.218C4385.8 217.065 4382.95 217.29 4382.46 217.719C4381.3 218.729 4352.6 219.015 4341.12 218.13C4336.25 217.754 4311.07 217.36 4285.18 217.254C4241.4 217.074 4228.49 217.438 4244.86 218.392C4248.58 218.609 4256.6 219.114 4262.69 219.514C4268.78 219.913 4278.46 220.255 4284.21 220.272C4289.95 220.289 4294.66 220.624 4294.66 221.017C4294.66 221.41 4296.39 221.731 4298.51 221.731C4300.62 221.731 4304.63 222.084 4307.4 222.516C4312.4 223.292 4312.39 223.31 4306.63 224.144C4296.54 225.605 4299.67 226.983 4316.62 228.548C4325.32 229.351 4332.95 230.476 4333.59 231.048C4334.22 231.619 4335.72 232.273 4336.91 232.501C4340.67 233.218 4336.17 235.421 4331.91 234.947C4329.76 234.707 4328.68 234.708 4329.51 234.95C4330.34 235.191 4328.23 236.198 4324.82 237.188C4320.34 238.49 4315.71 239.021 4308.1 239.107C4302.31 239.172 4298.02 239.435 4298.57 239.692C4299.12 239.949 4288.97 240.001 4276.03 239.809C4257.21 239.529 4251.67 239.676 4248.37 240.542C4243.79 241.744 4219.64 242.239 4207.05 241.39C4202.24 241.065 4198.73 241.165 4197.68 241.657C4196.76 242.089 4193.4 242.443 4190.21 242.443C4182.81 242.443 4176.63 243.128 4176.63 243.948C4176.63 244.299 4178.23 244.586 4180.19 244.586C4182.15 244.586 4184.7 245.073 4185.84 245.669C4187.14 246.34 4196.75 247.25 4211.17 248.065C4239.58 249.67 4260.5 252.125 4258.52 253.621C4257.76 254.196 4255.56 254.491 4253.64 254.277C4251.71 254.062 4250.76 254.177 4251.51 254.532C4252.27 254.887 4249.99 256.179 4246.44 257.403C4241.69 259.041 4238.69 259.508 4235.05 259.172C4232.31 258.92 4230.72 259.007 4231.49 259.367C4232.25 259.725 4229.03 260.049 4224.32 260.088C4219.62 260.126 4208 260.711 4198.51 261.387L4181.25 262.615L4186.74 264.313C4189.76 265.247 4193.26 266.011 4194.51 266.011C4195.76 266.011 4200.58 266.535 4205.22 267.175C4213.31 268.29 4213.51 268.406 4209.92 269.994C4207.57 271.038 4207.1 271.815 4208.66 272.094C4210.02 272.338 4210.42 272.871 4209.55 273.279C4208.54 273.757 4207.21 273.676 4205.83 273.051C4204.43 272.422 4203.03 272.338 4201.83 272.811C4200.82 273.212 4196.67 274.005 4192.61 274.573L4185.23 275.606L4193.01 275.849C4201.44 276.112 4205.95 277.944 4199.84 278.625C4197.77 278.855 4195.47 278.866 4194.73 278.649C4193.98 278.432 4189.68 278.855 4185.18 279.589C4180.68 280.324 4172.79 281.154 4167.65 281.434C4162.51 281.714 4156.82 282.376 4155 282.905C4150.68 284.157 4148.99 284.13 4126.14 282.433C4105.64 280.909 4099.86 281.051 4091.45 283.285C4086.7 284.545 4084.79 284.607 4071.94 283.917C4055.08 283.012 4023.33 282.896 4025.14 283.746C4025.84 284.073 4034.48 284.74 4044.35 285.229C4069.48 286.473 4072.31 286.741 4068.18 287.482C4061.03 288.766 4093.07 291.798 4124.38 292.8C4132.83 293.07 4140.29 293.543 4140.94 293.851C4141.6 294.159 4139.81 295.268 4136.98 296.315C4132.21 298.074 4132.12 298.317 4135.78 299.491C4137.96 300.19 4139.74 300.938 4139.74 301.153C4139.74 302.035 4098.1 300.765 4084.41 299.465C4064.73 297.596 4024.87 296.231 4021.19 297.301C4019.24 297.866 4019.23 298.352 4021.13 299.019C4023.7 299.919 4027.65 300.304 4060.44 302.856C4070.66 303.652 4075.81 304.412 4075.81 305.128C4075.81 306.032 4072.91 306.127 4057.56 305.723C4045.87 305.415 4038.75 305.508 4037.74 305.982C4036.88 306.388 4037.53 306.72 4039.19 306.72C4040.84 306.72 4041.63 306.887 4040.93 307.09C4039.28 307.569 4004.45 305.446 4000.99 304.656C3998.27 304.034 3962.36 302.428 3954.7 302.585C3952.34 302.634 3950.4 303.076 3950.4 303.567C3950.4 304.059 3949.83 304.894 3949.13 305.424C3947.92 306.338 3977.95 308.188 4029.7 310.385C4037.47 310.715 4047.84 311.472 4052.74 312.067C4057.64 312.661 4065.11 313.15 4069.34 313.152C4080.48 313.159 4096.48 314.572 4093.89 315.323C4092.7 315.671 4077.72 316.046 4060.61 316.158C4043.51 316.27 4029.7 316.417 4029.92 316.483C4030.15 316.55 4035.8 317.228 4042.48 317.991C4054.12 319.318 4054.4 319.413 4049.08 320.24C4044.91 320.887 4040.46 320.912 4031.27 320.339C4016.3 319.407 4014.33 319.395 4014.33 320.233C4014.33 320.595 4017.64 321.102 4021.68 321.359C4035.12 322.217 4032.21 323.147 4016.08 323.147C4006.7 323.147 3997.21 323.6 3992.6 324.268C3987.93 324.944 3982.7 325.19 3979.42 324.887C3972.4 324.24 3856.95 323.994 3858.3 324.628C3861.16 325.973 3828.9 325.966 3801.38 324.615C3745.64 321.882 3698.21 320.329 3667.62 320.234C3650.71 320.181 3625.26 319.697 3611.06 319.157C3596.86 318.617 3571.56 317.844 3554.84 317.439C3538.12 317.034 3523.74 316.579 3522.88 316.428C3522.01 316.277 3513.01 315.948 3502.87 315.698C3492.72 315.447 3480.55 315.106 3475.82 314.94C3465.96 314.594 3421.1 313.867 3388.52 313.526C3364.96 313.279 3329.15 312.622 3304.92 311.992C3296.8 311.781 3265.27 311.471 3234.84 311.304C3204.41 311.136 3168.45 310.736 3154.92 310.414C3141.4 310.092 3103.99 309.861 3071.8 309.9C3023.12 309.959 3012.88 310.148 3010.94 311.023C3008.97 311.916 3008.28 311.925 3006.4 311.079C3004.93 310.416 3001.77 310.224 2996.93 310.505C2992.92 310.738 2988.45 310.577 2986.97 310.146C2985.49 309.716 2980.62 309.296 2976.16 309.213C2971.69 309.13 2965.83 308.872 2963.12 308.64C2948.39 307.372 2933.03 307.004 2926.85 307.769C2921.88 308.383 2909.49 307.658 2911.2 306.853C2911.83 306.556 2899.98 306.227 2884.87 306.122C2844.17 305.838 2839.95 305.708 2835.34 304.597C2831.59 303.695 2831.22 303.736 2831.96 304.972C2832.53 305.915 2831.61 306.281 2829.11 306.109C2827.08 305.969 2822.93 305.849 2819.89 305.841C2816.84 305.833 2814.35 305.58 2814.35 305.278C2814.35 304.977 2812.57 304.531 2810.39 304.288C2807.51 303.967 2806.83 304.152 2807.9 304.963C2808.92 305.732 2808.43 305.905 2806.33 305.517C2804.66 305.208 2792.78 304.854 2779.93 304.731C2752.91 304.472 2756.92 304.475 2629.93 304.605C2576.51 304.66 2525.96 304.473 2517.6 304.189C2509.24 303.905 2500.53 303.88 2498.26 304.134C2494.07 304.6 2413.75 305.521 2389.07 305.386C2369.77 305.28 2347.88 308.575 2360.05 309.754C2361.87 309.93 2360.61 310.435 2356.98 310.992C2353.6 311.509 2350.22 312.204 2349.47 312.535C2346.76 313.734 2325.88 314.402 2319.95 313.481C2316.21 312.9 2306.31 312.691 2290.74 312.865C2277.79 313.01 2235.24 313.298 2196.18 313.506C2157.13 313.713 2122.49 314.078 2119.21 314.318C2115.92 314.557 2101.96 314.802 2088.19 314.862C2074.41 314.922 2060.92 315.333 2058.22 315.774C2053.38 316.564 2030.58 317.861 2026.76 317.563C2022.05 317.196 2013.32 317.289 2005.35 317.789C2000.62 318.087 1994.53 318.276 1991.83 318.211C1989.12 318.145 1984.7 318.034 1981.99 317.965C1979.29 317.896 1966.56 318.216 1953.71 318.678C1940.86 319.139 1925.57 319.51 1919.72 319.502C1913.88 319.494 1907.79 319.791 1906.2 320.162C1904.61 320.534 1899.71 321.062 1895.31 321.335C1888.77 321.741 1887.32 321.611 1887.32 320.622C1887.32 319.551 1885.29 319.471 1869.49 319.919C1859.69 320.197 1833.96 320.499 1812.32 320.589C1790.68 320.68 1767.02 321.131 1759.73 321.593C1752.45 322.054 1745.95 322.432 1745.29 322.432C1744.64 322.432 1745.48 322.914 1747.16 323.503C1748.84 324.092 1753.96 324.574 1758.53 324.574C1763.09 324.574 1766.83 324.709 1766.83 324.873C1766.83 325.037 1767.5 325.68 1768.32 326.301C1770.37 327.851 1763.45 327.774 1757.98 326.187C1754.89 325.288 1753.42 325.191 1752.68 325.835C1752.12 326.325 1750.65 326.544 1749.41 326.322C1748.17 326.1 1747.16 326.178 1747.16 326.496C1747.16 326.814 1744.67 327.113 1741.63 327.161C1738.58 327.21 1721.71 327.613 1704.13 328.057C1686.55 328.502 1651.14 328.994 1625.44 329.152C1599.74 329.309 1575.95 329.614 1572.57 329.829C1561.12 330.559 1498.13 332.251 1464.38 332.736C1401.84 333.635 1354.42 336.233 1344.64 339.297C1341.58 340.255 1336.19 341.029 1332.33 341.066C1300.5 341.366 1256.32 342.328 1236.92 343.144C1228.81 343.485 1214.57 343.961 1205.29 344.202C1196 344.443 1182.85 344.946 1176.06 345.32C1169.27 345.694 1163.31 346 1162.82 346C1162.33 346 1161.92 345.178 1161.92 344.172L1161.92 344.174ZM1161.92 337.675C1161.92 336.894 1160.84 336.836 1157.1 337.417C1154.21 337.865 1152.85 338.601 1153.7 339.245C1154.8 340.077 1155.9 340.136 1158.52 339.504C1160.39 339.053 1161.92 338.23 1161.92 337.675ZM1576.26 327.053C1585.88 326.051 1585.64 326.036 1565.2 326.384C1518.38 327.182 1503.72 327.585 1503.72 328.078C1503.72 329.01 1565.91 328.131 1576.26 327.053ZM434.069 318.428C434.069 318.274 432.409 318.148 430.38 318.148C428.352 318.148 426.692 318.459 426.692 318.839C426.692 319.22 428.352 319.346 430.38 319.12C432.409 318.894 434.069 318.583 434.069 318.428ZM612.344 316.005C613.203 315.602 611.189 315.291 607.716 315.291C604.335 315.291 600.885 315.612 600.049 316.005C599.191 316.408 601.205 316.719 604.677 316.719C608.058 316.719 611.508 316.398 612.344 316.005ZM495.543 312.351C495.543 311.614 492.599 311.545 487.138 312.153C480.967 312.841 482.623 313.699 489.395 313.323C492.777 313.135 495.543 312.698 495.543 312.351ZM1886.92 312.235C1895.31 311.556 1896.46 311.295 1892.33 311.01C1885.77 310.559 1807.53 311.513 1765.6 312.557C1754.21 312.84 1842.2 313.532 1860.27 313.301C1869.06 313.189 1881.05 312.709 1886.92 312.235ZM1972.16 310.037C1974.86 309.851 1969.88 309.725 1961.09 309.757C1940.11 309.833 1931.8 310.489 1945.11 311.019C1950.52 311.235 1957.71 311.178 1961.09 310.893C1964.47 310.608 1969.45 310.222 1972.16 310.037V310.037ZM402.918 310.246C407.981 310.203 407.948 310.166 402.262 309.506C395.558 308.728 389.807 309.116 389.807 310.346C389.807 310.794 391.554 310.964 393.697 310.725C395.836 310.487 399.985 310.271 402.918 310.246ZM2009.1 309.442C2009.75 309.251 2005.38 309.041 1999.37 308.975C1993.36 308.909 1987.68 309.214 1986.75 309.654C1985.55 310.215 1988.44 310.354 1996.47 310.121C2002.76 309.939 2008.44 309.633 2009.1 309.442V309.442ZM3931.96 301.007C3932.9 300.565 3928.97 300.325 3921.65 300.377C3911.15 300.452 3910.65 300.523 3917.2 301.007C3927.96 301.802 3930.27 301.802 3931.96 301.007ZM141.912 290.521C140.137 290.314 138.016 290.34 137.199 290.577C136.382 290.814 137.834 290.983 140.426 290.952C143.291 290.918 143.874 290.749 141.912 290.521V290.521ZM170.959 289.58C175.9 289.12 176.142 289.004 172.188 288.987C169.483 288.976 165.057 289.242 162.352 289.58C156.086 290.362 162.551 290.362 170.959 289.58ZM203.954 289.861C206.093 289.622 207.843 288.849 207.843 288.143C207.843 287.049 206.297 286.915 197.393 287.239C186.093 287.649 178.72 288.866 187.534 288.866C190.43 288.866 193.483 289.187 194.319 289.58C196.068 290.402 198.469 290.472 203.954 289.861V289.861ZM4198.76 277.439C4198.76 277.046 4196.82 276.73 4194.45 276.736C4190.78 276.745 4190.69 276.847 4193.84 277.439C4198.48 278.31 4198.76 278.31 4198.76 277.439V277.439ZM264.861 248.383C263.085 248.177 260.965 248.202 260.148 248.44C259.33 248.677 260.783 248.846 263.375 248.815C266.24 248.78 266.822 248.611 264.861 248.383V248.383ZM244.728 246.3C244.728 245.135 237.889 245.005 228.905 245.997C219.124 247.077 221.445 247.837 233.662 247.555C241.086 247.383 244.728 246.97 244.728 246.3ZM290.402 246.815C287.947 245.661 279.153 245.367 279.153 246.438C279.153 247.04 281.678 247.443 285.446 247.443C288.907 247.443 291.137 247.16 290.402 246.815V246.815ZM271.776 246.014C274.52 245.499 273.103 245.319 266.244 245.311C261.172 245.305 257.023 245.622 257.023 246.014C257.023 246.924 266.93 246.924 271.776 246.014ZM4370.88 162.454C4370.88 162.061 4369.78 161.74 4368.42 161.74C4367.07 161.74 4365.97 162.061 4365.97 162.454C4365.97 162.847 4367.07 163.168 4368.42 163.168C4369.78 163.168 4370.88 162.847 4370.88 162.454ZM4388.71 149.125C4387.02 148.927 4384.26 148.927 4382.57 149.125C4380.87 149.324 4382.26 149.486 4385.64 149.486C4389.02 149.486 4390.4 149.324 4388.71 149.125ZM4351.83 140.524C4348.78 140.354 4343.8 140.354 4340.76 140.524C4337.72 140.694 4340.21 140.834 4346.29 140.834C4352.38 140.834 4354.87 140.694 4351.83 140.524V140.524ZM4238.1 134.759C4238.1 134.453 4228.97 133.822 4217.81 133.356C4206.66 132.89 4194.86 132.286 4191.61 132.014C4187.93 131.706 4186.26 131.786 4187.2 132.225C4188.02 132.614 4198.43 133.341 4210.33 133.84C4222.22 134.34 4233.06 134.851 4234.41 134.975C4235.76 135.1 4237.15 135.227 4237.49 135.258C4237.82 135.289 4238.1 135.064 4238.1 134.759V134.759ZM651.688 128.173C656.079 127.625 655.897 127.553 649.989 127.509C646.349 127.481 642.688 127.78 641.852 128.173C640.038 129.025 644.856 129.025 651.688 128.173V128.173ZM4220.89 123.988C4220.89 123.651 4209.78 123.008 4196.21 122.56C4165.64 121.55 4160.15 121.53 4163.27 122.438C4164.59 122.819 4177.81 123.417 4192.66 123.766C4207.51 124.116 4219.93 124.447 4220.27 124.502C4220.61 124.557 4220.89 124.326 4220.89 123.988V123.988ZM513.732 115.436C514.429 115.109 513.388 114.841 511.418 114.841C509.449 114.841 507.838 115.109 507.838 115.436C507.838 115.764 508.879 116.031 510.152 116.031C511.424 116.031 513.035 115.764 513.732 115.436ZM842.719 114.115C840.944 113.909 838.823 113.934 838.006 114.171C837.189 114.409 838.641 114.578 841.234 114.547C844.098 114.512 844.681 114.343 842.719 114.115V114.115ZM461.117 113.175C461.117 112.782 459.181 112.465 456.814 112.471C453.137 112.48 453.047 112.583 456.199 113.175C460.84 114.046 461.117 114.046 461.117 113.175V113.175ZM470.953 112.061C470.953 111.888 469.847 111.746 468.494 111.746C467.142 111.746 466.035 112.087 466.035 112.503C466.035 112.919 467.142 113.06 468.494 112.818C469.847 112.575 470.953 112.234 470.953 112.061V112.061ZM611.115 107.089C614.496 106.814 625.008 106.321 634.475 105.993C643.942 105.666 655.561 105.058 660.294 104.642C665.028 104.227 668.901 103.914 668.901 103.947C668.901 104.221 685.744 102.693 694.105 101.66C706.791 100.094 707.592 98.8908 695.949 98.8908C689.938 98.8908 687.343 98.5677 687.343 97.8195C687.343 96.7212 698.348 96.287 716.616 96.6646C724.575 96.8291 747.282 95.5982 752.481 94.7205C756.364 94.0649 743.955 93.3258 727.767 93.2485C717.237 93.1979 708.264 93.701 697.179 94.9627C688.551 95.9447 679.212 96.7531 676.426 96.7591C672.391 96.7682 672.086 96.9036 674.931 97.4262C676.895 97.7871 679.384 97.9239 680.463 97.7302C681.542 97.5365 682.425 97.6822 682.425 98.0534C682.425 98.6929 677.042 99.1443 658.261 100.081C653.762 100.305 649.483 100.94 648.753 101.493C647.667 102.315 646.721 102.332 643.563 101.587C640.329 100.824 639.937 100.859 641.15 101.802C642.209 102.625 641.176 102.895 637.307 102.808C634.397 102.742 628.344 102.98 623.857 103.336C618.198 103.786 614.618 103.724 612.176 103.136C610.196 102.658 608.656 102.595 608.656 102.992C608.656 103.779 589.92 106.033 583.369 106.033C581.047 106.033 579.148 106.472 579.148 107.009C579.148 107.736 582.445 107.935 592.058 107.787C599.158 107.677 607.734 107.363 611.115 107.089V107.089ZM712.269 81.1875C710.495 81.0158 707.874 81.2147 706.445 81.6299C704.621 82.1598 705.581 82.2528 709.671 81.9421C712.996 81.6896 714.11 81.3658 712.269 81.1875ZM3682.37 78.3578C3682.37 78.0632 3679.01 77.7538 3674.9 77.6703C3670.63 77.5834 3668.07 77.8125 3668.9 78.206C3670.62 79.0116 3682.37 79.1442 3682.37 78.3578ZM719.31 73.8585L725.457 73.8036L719.721 73.1358C713.242 72.3814 702.097 72.9626 702.097 74.0548C702.097 74.453 704.57 74.5823 707.629 74.3442C710.672 74.1073 715.928 73.8888 719.31 73.8585V73.8585ZM3662.7 74.0131C3662.7 73.6858 3661.04 73.4179 3659.01 73.4179C3656.98 73.4179 3655.32 73.6858 3655.32 74.0131C3655.32 74.3404 3656.98 74.6083 3659.01 74.6083C3661.04 74.6083 3662.7 74.3404 3662.7 74.0131ZM3673 74.1203C3671.22 73.914 3669.1 73.9394 3668.28 74.1766C3667.47 74.414 3668.92 74.5828 3671.51 74.5518C3674.38 74.5176 3674.96 74.3483 3673 74.1203V74.1203ZM761.573 72.692C759.798 72.4856 757.677 72.5111 756.86 72.7483C756.043 72.9856 757.495 73.1544 760.087 73.1233C762.952 73.0892 763.535 72.9199 761.573 72.6919V72.692ZM485.707 71.7514C485.707 71.3586 484.601 71.0373 483.248 71.0373C481.896 71.0373 480.789 71.3586 480.789 71.7514C480.789 72.1442 481.896 72.4656 483.248 72.4656C484.601 72.4656 485.707 72.1442 485.707 71.7514ZM549.64 69.8786C549.64 69.0784 545.022 69.78 543.7 70.7812C542.405 71.7613 542.764 71.8056 545.896 71.0508C547.955 70.5544 549.64 70.0268 549.64 69.8786ZM574.23 69.966C574.23 69.3768 573.795 68.8947 573.264 68.8947C572.732 68.8947 571.66 69.3768 570.882 69.966C570.103 70.5552 570.538 71.0373 571.848 71.0373C573.158 71.0373 574.23 70.5552 574.23 69.966ZM3793.49 45.5527C3791.71 45.3464 3789.59 45.3718 3788.77 45.609C3787.96 45.8463 3789.41 46.0151 3792 45.9841C3794.87 45.9499 3795.45 45.7806 3793.49 45.5526V45.5527ZM1529.44 31.0918C1530.21 30.7261 1529.84 30.2459 1528.61 30.0246C1527.38 29.8033 1525.73 30.1025 1524.96 30.6894C1523.43 31.8465 1527.12 32.1785 1529.44 31.0918ZM362.27 337.609C360.855 337.118 360.663 336.707 361.843 336.695C363.023 336.683 361.919 336.324 359.39 335.897C352.902 334.803 358.65 333.864 371.365 333.942C378.006 333.983 379.603 334.153 376.283 334.467C371.598 334.909 368.105 336.727 371.98 336.707C379.2 336.669 384.414 335.735 383.289 334.682C382.191 333.654 382.484 333.663 385.574 334.753C389.774 336.233 408.486 336.506 410.104 335.11C410.925 334.401 411.925 334.406 414.961 335.133C419.748 336.28 422.572 339.068 418.507 338.632C416.923 338.463 415.985 337.891 416.423 337.362C416.98 336.689 415.852 336.759 412.669 337.596C409.035 338.551 403.76 338.763 386.481 338.647C372.74 338.555 363.904 338.177 362.27 337.61L362.27 337.609ZM328.515 336.035C325.24 335.447 326.815 333.86 330.674 333.86C333.479 333.86 335.941 335.877 333.641 336.29C332.621 336.473 330.314 336.358 328.515 336.035ZM380.542 330.289C377.822 329.024 378.106 328.848 383.024 328.752C386.079 328.692 390.237 328.59 392.266 328.526C398.826 328.319 400.06 328.971 395.734 330.36C390.269 332.114 384.407 332.086 380.542 330.289V330.289ZM1870.11 324.975C1870.11 324.801 1871.22 324.461 1872.57 324.218C1873.92 323.976 1875.03 324.117 1875.03 324.533C1875.03 324.949 1873.92 325.29 1872.57 325.29C1871.22 325.29 1870.11 325.148 1870.11 324.975ZM1898.96 324.487C1900.63 323.999 1902.61 323.779 1903.37 323.999C1904.13 324.219 1902.76 324.618 1900.34 324.887C1896.83 325.274 1896.55 325.192 1898.96 324.487ZM579.148 322.52C579.148 322.176 580.855 321.482 582.941 320.979C585.889 320.269 587.39 320.256 589.682 320.922C591.975 321.587 591.815 321.928 588.963 322.452C584.326 323.303 579.148 323.339 579.148 322.52V322.52ZM3355.33 316.005C3355.33 315.612 3356.92 315.291 3358.87 315.291C3360.82 315.291 3363.1 315.612 3363.93 316.005C3364.77 316.398 3363.18 316.719 3360.39 316.719C3357.61 316.719 3355.33 316.398 3355.33 316.005ZM3313.53 315.247C3313.53 314.434 3320.13 314.351 3321.82 315.143C3322.48 315.454 3320.88 315.755 3318.27 315.812C3315.66 315.87 3313.53 315.615 3313.53 315.247ZM874.948 314.094C872.735 312.419 876.107 312.173 884.606 313.39C889.04 314.025 891.561 314.593 890.208 314.652C879.845 315.104 876.102 314.968 874.948 314.094V314.094ZM3001.24 312.434C3001.24 312.041 3001.72 311.72 3002.32 311.72C3002.92 311.72 3004.09 312.041 3004.92 312.434C3005.76 312.827 3005.27 313.148 3003.84 313.148C3002.41 313.148 3001.24 312.827 3001.24 312.434ZM2965.79 311.816C2964.73 311.318 2964.52 310.718 2965.34 310.482C2967.54 309.843 2969.94 310.783 2968.75 311.819C2967.91 312.544 2967.33 312.544 2965.79 311.815V311.816ZM2974.8 311.961C2969.77 311.371 2971.32 310.394 2976.65 310.799C2979.35 311.004 2981.56 311.456 2981.56 311.803C2981.56 312.484 2979.65 312.529 2974.8 311.961ZM4153.67 308.387C4150.85 307.565 4151.88 306.721 4155.72 306.721C4157.75 306.721 4159.41 307.203 4159.41 307.792C4159.41 308.907 4156.5 309.209 4153.67 308.387ZM1102 304.012C1101.33 303.701 1102.95 303.399 1105.59 303.341C1108.23 303.283 1109.75 303.538 1108.96 303.907C1107.22 304.726 1103.63 304.78 1102 304.012ZM1124.16 302.785C1124.93 302.2 1127.38 301.696 1129.61 301.666C1131.83 301.636 1138.63 301.466 1144.71 301.29C1152.69 301.058 1154.75 301.169 1152.09 301.691C1149.05 302.287 1149.01 302.415 1151.88 302.425C1153.8 302.431 1154.68 302.636 1153.84 302.88C1152.99 303.125 1145.65 303.443 1137.53 303.587C1125.22 303.806 1122.99 303.672 1124.16 302.785V302.785ZM120.655 301.056C118.836 300.202 123.462 299.355 126.737 299.943C129.487 300.437 127.682 301.721 124.238 301.721C123.045 301.721 121.433 301.422 120.655 301.056ZM143.91 282.48C143.91 282.111 145.004 281.612 146.341 281.372C147.735 281.122 148.147 281.408 147.307 282.044C145.672 283.281 143.91 283.508 143.91 282.48V282.48ZM161.942 282.112C161.942 281.54 162.883 281.241 164.032 281.448C165.181 281.654 165.484 282.122 164.706 282.487C162.718 283.422 161.942 283.317 161.942 282.112ZM4447.11 188.879C4445.08 188.498 4444.53 188.187 4445.88 188.187C4447.24 188.187 4450 188.498 4452.03 188.879C4454.06 189.26 4454.61 189.571 4453.26 189.571C4451.91 189.571 4449.14 189.26 4447.11 188.879ZM407.02 135.877C407.02 135.567 409.233 135.314 411.938 135.314C414.643 135.314 416.856 135.616 416.856 135.984C416.856 136.353 414.643 136.606 411.938 136.546C409.233 136.487 407.02 136.186 407.02 135.877ZM509.994 125.388L504.227 124.032L518.942 123.465C527.035 123.153 539.465 122.879 546.564 122.857C553.662 122.834 559.472 122.598 559.473 122.33C559.476 121.774 574.122 122.882 576.408 123.611C577.239 123.876 574.505 123.904 570.333 123.674C565.663 123.417 559.992 123.68 555.579 124.357C551.637 124.962 542.602 125.488 535.501 125.526C528.401 125.564 522.592 125.854 522.592 126.17C522.592 127.194 515.907 126.779 509.994 125.388V125.388ZM478.996 125.598C479.813 125.361 481.934 125.336 483.709 125.542C485.671 125.77 485.088 125.939 482.224 125.974C479.631 126.005 478.179 125.836 478.996 125.599V125.598ZM434.263 115.734C434.156 114.981 434.737 114.559 435.554 114.796C436.371 115.034 436.459 115.65 435.748 116.165C434.963 116.735 434.381 116.566 434.263 115.734H434.263ZM501.419 109.731C502.106 109.408 500.404 108.581 497.636 107.893C492.684 106.661 492.848 106.608 507.819 104.551C525.85 102.075 527.51 102.019 527.51 103.89C527.51 104.77 525.858 105.323 523.206 105.329C519.719 105.338 519.562 105.461 522.382 105.98C524.295 106.332 527.892 106.506 530.374 106.367C532.856 106.228 534.887 106.442 534.887 106.842C534.887 107.243 531.29 107.513 526.895 107.443C522.499 107.373 516.69 107.354 513.985 107.4C509.888 107.469 509.683 107.599 512.756 108.175C515.908 108.767 515.819 108.869 512.141 108.879C509.774 108.885 507.838 109.211 507.838 109.604C507.838 109.997 506.113 110.318 504.004 110.318C501.896 110.318 500.733 110.054 501.419 109.731V109.731ZM532.861 103.968C530.389 103.524 530.485 103.226 533.322 102.542C537.301 101.583 540.471 102.421 537.733 103.708C536.757 104.167 534.608 104.281 532.861 103.968V103.968ZM447.593 73.8939C446.757 73.5011 447.733 73.1797 449.762 73.1797C451.79 73.1797 454.134 73.5011 454.97 73.8939C455.806 74.2868 454.83 74.6081 452.801 74.6081C450.773 74.6081 448.429 74.2868 447.593 73.8939ZM497.955 70.6964C501.496 69.4571 502.92 69.3282 502.92 70.2465C502.92 70.5974 501.104 71.0868 498.884 71.3342C495.509 71.7103 495.357 71.6059 497.955 70.6964ZM3973.22 59.1709C3976.11 58.3337 3991.85 57.6777 3995.03 58.2623C3996.85 58.5988 3997.24 58.9109 3995.89 58.9559C3982.66 59.3966 3972.1 59.4967 3973.22 59.1709V59.1709ZM3958.29 58.2898C3956.25 57.9132 3957.78 57.7056 3962.6 57.7056C3966.71 57.7056 3970.07 57.9734 3970.07 58.3008C3970.07 59.0609 3962.44 59.0538 3958.29 58.2891V58.2898ZM3895.07 57.378C3884.55 56.6936 3858.99 56.2027 3811.24 55.7678C3794.89 55.6188 3779.15 55.1291 3776.26 54.6798C3773.11 54.1907 3762.09 53.9419 3748.82 54.06C3736.62 54.1687 3726.63 54.1844 3726.63 54.0948C3726.63 53.8463 3740.94 51.7535 3742.64 51.7535C3743.46 51.7535 3743.45 52.0749 3742.62 52.4676C3741.73 52.8843 3744.23 53.1819 3748.62 53.1819C3752.76 53.1819 3756.14 52.8605 3756.14 52.4676C3756.14 52.0749 3757.31 51.7535 3758.75 51.7535C3760.18 51.7535 3760.52 52.1552 3759.5 52.6462C3758.14 53.3063 3758.58 53.3505 3761.2 52.8157C3763.15 52.4179 3766.96 52.1293 3769.67 52.1744C3772.37 52.2193 3780.46 52.3038 3787.64 52.362C3794.82 52.4201 3800.18 52.7087 3799.55 53.0033C3798.92 53.2979 3805.22 53.4919 3813.55 53.4344C3821.87 53.3763 3830.62 53.6293 3832.98 53.9952C3835.86 54.4393 3837.29 54.4006 3837.29 53.8791C3837.29 53.4493 3838.63 53.3378 3840.26 53.6312C3841.9 53.9247 3852.68 54.2524 3864.24 54.3596C3875.79 54.4668 3885.24 54.5925 3885.24 54.6391C3885.24 54.6858 3890.77 54.8278 3897.53 54.9552C3904.3 55.0825 3910.1 55.2578 3910.44 55.3448C3911.02 55.4933 3913.55 55.7097 3917.82 55.9748C3919.78 56.0964 3908.23 58.1706 3906.14 58.0739C3905.46 58.0423 3900.48 57.7293 3895.07 57.3776L3895.07 57.378ZM3795.48 53.8073C3795.48 53.4636 3793.34 53.1824 3790.71 53.1824C3788.09 53.1824 3785.34 53.4636 3784.61 53.8073C3783.88 54.151 3786.03 54.4322 3789.38 54.4322C3792.74 54.4322 3795.48 54.151 3795.48 53.8073ZM3927.01 51.7423C3926.17 51.3431 3924.44 51.2014 3923.18 51.4274C3921.92 51.6534 3920.89 51.5169 3920.89 51.1241C3920.89 49.7413 3924.86 49.7194 3927.8 51.0862C3929.43 51.8464 3930.27 52.4683 3929.66 52.4683C3929.06 52.4683 3927.86 52.1417 3927.01 51.7426V51.7423ZM3874.38 48.9568C3871.78 48.2038 3869.15 47.7369 3868.52 47.919C3867.9 48.1013 3861.99 48.3579 3855.41 48.4897C3844 48.7178 3829.86 47.2464 3833.44 46.2048C3836.31 45.3709 3853.3 45.5661 3857 46.4755C3860.8 47.4066 3867.72 47.4375 3870.82 46.5368C3873.43 45.7789 3885.97 45.9451 3887.71 46.7606C3890.07 47.8706 3886.56 50.3252 3882.61 50.3252C3880.68 50.3252 3876.97 49.7092 3874.38 48.9563V48.9568ZM3899.76 49.5011C3898.71 49.0089 3899.08 48.8696 3900.67 49.1555C3902.14 49.4191 3904.03 49.308 3904.88 48.9088C3907.18 47.8321 3910.24 48.0297 3910.24 49.2543C3910.24 50.5123 3902.31 50.6991 3899.76 49.5011V49.5011ZM1024.89 44.1806C1025.71 43.9433 1027.83 43.9178 1029.6 44.1243C1031.56 44.3523 1030.98 44.5215 1028.12 44.5558C1025.52 44.5868 1024.07 44.4181 1024.89 44.1807V44.1806ZM1520.93 23.9005C1520.93 23.5077 1521.42 23.1863 1522.02 23.1863C1522.62 23.1863 1523.79 23.5077 1524.62 23.9005C1525.46 24.2933 1524.97 24.6147 1523.54 24.6147C1522.11 24.6147 1520.93 24.2933 1520.93 23.9005ZM1578.27 23.9727C1574.3 23.1257 1575.25 21.9085 1579.62 22.2404C1582.41 22.4522 1584.2 22.1609 1584.46 21.4531C1584.68 20.8351 1585.05 19.8475 1585.28 19.2582C1585.5 18.669 1587.72 18.1468 1590.2 18.0977C1592.68 18.0484 1595.53 17.9421 1596.55 17.861C1597.56 17.7797 1601.71 17.4543 1605.77 17.1375C1614.79 16.4332 1619.69 15.3812 1617.89 14.5351C1617.15 14.1868 1618.73 13.9019 1621.4 13.9019C1624.07 13.9019 1626.82 14.3035 1627.51 14.7946C1628.37 15.4149 1629.38 15.4534 1630.79 14.9211C1634.4 13.5593 1641.93 13.1343 1645.9 14.0682C1649.08 14.8178 1649.38 14.7991 1647.64 13.959C1646.04 13.1887 1646.57 13.0599 1649.83 13.4233C1652.19 13.6866 1655.62 13.9018 1657.44 13.9018C1659.27 13.9018 1661.43 14.5116 1662.25 15.2569C1663.2 16.1279 1665.31 16.4919 1668.15 16.276C1674.43 15.7993 1673.78 14.0334 1667.45 14.3716C1662.45 14.6388 1662.44 14.629 1667.24 13.9667C1669.95 13.5934 1675.91 13.2654 1680.48 13.2378C1685.06 13.21 1695.57 12.8724 1703.84 12.4871C1725.28 11.4886 1779.17 9.73891 1803.72 9.24418C1815.21 9.01262 1829.6 8.69573 1835.68 8.53997C1848.51 8.21189 1873.82 7.68962 1906.99 7.0687C1919.84 6.82822 1937.55 6.45447 1946.34 6.23819C1967.46 5.71834 2000.72 5.67956 2005.35 6.16963C2007.38 6.38439 2013.74 6.80682 2019.49 7.10851C2025.24 7.41012 2029.94 7.89341 2029.94 8.18245C2029.94 8.47143 2027.21 9.5025 2023.86 10.4735C2018.91 11.911 2015.48 12.2261 2005.41 12.1689C1998.05 12.1266 1993.37 12.3918 1993.87 12.8219C1994.32 13.2195 2003.22 13.5714 2013.63 13.6037C2029.98 13.6543 2040.87 14.5784 2037.16 15.5993C2035.49 16.0562 2002.89 16.5075 2002.9 16.0737C2002.9 15.8613 1995.43 15.788 1986.3 15.9109C1977.17 16.0338 1963.35 15.8425 1955.59 15.4849C1947.83 15.1277 1940.96 14.9879 1940.32 15.1743C1939.68 15.3606 1934.41 15.5809 1928.6 15.6638C1922.8 15.7467 1915 16.0627 1911.26 16.3663C1907.22 16.6946 1903.2 16.6132 1901.35 16.1655C1899.63 15.7515 1887.53 15.3385 1874.45 15.2477C1858.26 15.1354 1851.18 14.8373 1852.26 14.3137C1853.13 13.891 1851.96 13.9875 1849.67 14.5284C1846.79 15.2048 1842.37 15.3668 1835.49 15.0472C1828.92 14.7421 1826.02 14.8336 1827.04 15.3136C1828.78 16.1319 1828.46 16.1475 1806.18 16.3214C1797.38 16.39 1787.7 16.6988 1784.66 17.0077C1781.62 17.3166 1779.13 17.3066 1779.13 16.9856C1779.13 16.6645 1776.36 16.4018 1772.98 16.4018C1769.6 16.4018 1766.83 16.6428 1766.83 16.9375C1766.83 17.2321 1765.11 17.4731 1763 17.4731C1760.89 17.4731 1759.74 17.2017 1760.45 16.8698C1762.16 16.0677 1736.89 17.2456 1735.06 18.0536C1731.7 19.5326 1685.69 21.0315 1685.69 19.6618C1685.69 19.2437 1684.51 18.9015 1683.08 18.9015C1681.65 18.9015 1681.11 19.2007 1681.89 19.5664C1684.12 20.6117 1678.46 21.2553 1674.8 20.3732C1672.35 19.7815 1671.19 19.8176 1670.27 20.5151C1669.47 21.1174 1665.43 21.3924 1658.92 21.2867C1653.35 21.1964 1648.8 21.4226 1648.8 21.7895C1648.8 22.9706 1636.17 22.195 1633.71 20.8633C1632.41 20.1551 1630.27 19.7676 1628.97 20.0021C1627.66 20.2367 1627.16 20.6941 1627.85 21.0186C1628.54 21.3431 1627.48 21.789 1625.51 22.0094C1623.53 22.2298 1621.25 22.0977 1620.43 21.7158C1619.53 21.2924 1616.38 21.4379 1612.36 22.0884C1604.8 23.3125 1581.27 24.6132 1578.27 23.9731L1578.27 23.9727ZM1543.07 20.7288C1543.07 19.4743 1544.54 19.2897 1546.65 20.2802C1547.43 20.6459 1546.94 21.147 1545.56 21.3936C1544.19 21.6404 1543.07 21.3419 1543.07 20.7288V20.7288ZM1552.33 19.4951C1553.76 19.0801 1556.38 18.881 1558.16 19.0528C1560 19.2311 1558.88 19.5548 1555.56 19.8074C1551.47 20.118 1550.51 20.025 1552.33 19.4951ZM2399.4 17.683C2396.36 17.5127 2393.87 17.1281 2393.87 16.8283C2393.87 15.9543 2404.56 16.4294 2405.61 17.3504C2406.14 17.8105 2406.21 18.1432 2405.75 18.0897C2405.3 18.036 2402.45 17.8532 2399.4 17.683H2399.4ZM2348.38 16.0444C2355.14 15.2007 2359.02 15.2007 2354.53 16.0444C2352.5 16.4252 2349.18 16.7191 2347.15 16.6975C2344.72 16.6716 2345.14 16.4491 2348.38 16.0444V16.0444ZM2363.27 16.1109C2362.52 15.7547 2364.11 15.6315 2366.82 15.8371C2372.56 16.2732 2373.29 16.7585 2368.2 16.7585C2366.25 16.7585 2364.03 16.467 2363.27 16.1109V16.1109ZM2046.72 14.4946C2042.85 13.3647 2044.6 13.2864 2074.99 13.2332C2092.82 13.2016 2109.87 13.038 2112.88 12.8688C2115.9 12.6995 2118.94 12.8308 2119.64 13.1604C2120.34 13.49 2124.3 13.6916 2128.44 13.6083C2139.63 13.3834 2139.68 14.4231 2128.49 14.733C2123.21 14.8795 2119.4 14.752 2120.05 14.4505C2122.07 13.5019 2118.28 13.8538 2114.43 14.973C2110.24 16.188 2099.85 16.4067 2097.56 15.3282C2096.55 14.8527 2094.42 14.8637 2091.22 15.361C2085.77 16.2073 2080.65 15.6322 2083.15 14.456C2084.24 13.9416 2083.64 13.8927 2081.35 14.3105C2079.45 14.6569 2071.81 15.111 2064.37 15.3198C2053.72 15.6184 2049.96 15.4428 2046.72 14.4945V14.4946ZM2243.87 15.33C2243.87 14.9372 2244.36 14.6159 2244.96 14.6159C2245.55 14.6159 2246.73 14.9372 2247.56 15.33C2248.4 15.7228 2247.91 16.0442 2246.48 16.0442C2245.04 16.0442 2243.87 15.7228 2243.87 15.33ZM2145.51 13.9016C2143.3 13.4857 2142.99 13.2049 2144.75 13.1984C2146.36 13.1919 2148.37 13.5088 2149.2 13.9016C2151.09 14.7884 2150.24 14.7884 2145.51 13.9016ZM3105.95 13.8042C3107.22 13.2063 3097.85 12.503 3095.96 13.0541C3093.31 13.822 3082.38 13.967 3082.38 13.2342C3082.38 12.7809 3075.39 12.6717 3063.33 12.9368C3048.54 13.2618 3042.34 13.0943 3035.66 12.1897C3030.93 11.5485 3028.92 11.1712 3031.2 11.3513C3033.48 11.5314 3035.69 11.3993 3036.12 11.0582C3036.54 10.717 3038.55 10.3334 3040.58 10.2056C3042.61 10.0781 3045.08 9.65218 3046.07 9.25934C3047.07 8.86652 3047.9 9.24899 3047.92 10.1098C3047.95 11.5888 3048.33 11.6182 3054.72 10.6483C3060.79 9.72793 3061.83 9.75066 3064.89 10.8692C3068.12 12.0551 3068.22 12.055 3066.81 10.8692C3065.66 9.90466 3066.68 9.61939 3071.27 9.61939C3074.54 9.61939 3078.35 10.1818 3079.73 10.8692C3081.12 11.5628 3082.27 11.7217 3082.31 11.2263C3082.39 10.2911 3089.76 9.9377 3089.76 10.8692C3089.76 11.1638 3098.12 11.3863 3108.35 11.3636C3118.57 11.3408 3127.49 11.5819 3128.17 11.8992C3128.84 12.2165 3131.76 12.4761 3134.66 12.4761C3138.87 12.4761 3139.31 12.6547 3136.85 13.3688C3133.77 14.2627 3104.08 14.6838 3105.95 13.8072V13.8042ZM3146.32 13.7828C3146.32 13.4554 3147.15 13.1659 3148.16 13.1394C3149.17 13.1129 3153.54 12.9566 3157.87 12.7923C3167.6 12.4226 3171.06 13.6478 3161.71 14.1484C3152.45 14.6433 3146.32 14.4975 3146.32 13.7828V13.7828ZM2969.27 11.402C2969.27 11.0093 2965.12 10.6879 2960.05 10.6879C2954.98 10.6879 2950.01 11.0093 2949.02 11.402C2947.82 11.8782 2947.2 11.8782 2947.17 11.402C2947.12 10.5073 2932.39 10.2956 2932.39 11.1897C2932.39 11.5493 2931.38 11.663 2930.15 11.4424C2927.81 11.022 2906.18 10.347 2883.21 9.97746C2875.77 9.8578 2869.68 9.68774 2869.68 9.59949C2869.68 9.12082 2837.33 9.11342 2835.26 9.59171C2831.56 10.4454 2806.98 11.041 2806.98 10.2767C2806.98 9.91368 2805.32 9.61667 2803.29 9.61667C2801.26 9.61667 2799.6 9.92677 2799.6 10.3059C2799.6 10.7362 2782.28 10.8681 2753.49 10.6571C2728.14 10.4713 2704.72 10.3225 2701.46 10.3266C2698.2 10.3331 2691.83 10.0378 2687.32 9.6758C2682.38 9.28002 2679.11 9.27754 2679.11 9.66933C2679.11 10.3184 2670.51 10.2132 2668.18 9.53566C2667.51 9.34023 2656.32 9.29455 2643.31 9.43423C2627.64 9.60258 2618.5 9.40581 2616.19 8.85062C2613.49 8.19824 2612.71 8.22981 2612.68 8.99322C2612.65 9.61251 2611.98 9.69874 2610.84 9.22733C2609.75 8.77955 2595.76 8.44577 2575.83 8.39239C2557.58 8.34375 2502.25 8.1195 2452.89 7.89489C2403.52 7.67034 2340.17 7.44372 2312.11 7.39142C2284.05 7.33967 2261.08 7.09523 2261.08 6.84945C2261.08 6.60355 2254.99 6.40242 2247.56 6.40242C2240.12 6.40242 2234.04 6.64346 2234.04 6.93806C2234.04 7.23268 2232.86 7.47373 2231.43 7.47373C2230 7.47373 2229.51 7.15233 2230.35 6.7595C2231.18 6.36673 2230.14 6.04535 2228.03 6.04535C2225.93 6.04568 2224.2 5.72428 2224.2 5.33152C2224.2 4.9387 2223.03 4.61729 2221.6 4.61729C2220.16 4.61729 2219.68 4.9387 2220.51 5.33152C2221.41 5.75334 2218.7 6.04124 2213.9 6.03473C2207.74 6.02568 2206.66 5.85548 2209.45 5.33152C2212.17 4.82019 2212.29 4.63632 2209.89 4.62823C2207.38 4.61917 2207.48 4.37102 2210.33 3.546C2212.35 2.9568 2216.31 2.47471 2219.11 2.47471C2221.91 2.47471 2224.2 2.13165 2224.2 1.71236C2224.2 1.26016 2226.33 1.14604 2229.43 1.43187C2232.94 1.75602 2234.1 1.65495 2232.97 1.12291C2232.04 0.687947 2231.94 0.33213 2232.74 0.33213C2233.54 0.33213 2235.04 0.993103 2236.07 1.80099L2237.94 3.26991L2244.42 1.78842C2248.87 0.772965 2251.44 0.559523 2252.61 1.11002C2253.83 1.67938 2254.92 1.63114 2256.39 0.944088C2258.06 0.156601 2274.93 -0.0199541 2346.45 0.00171426C2394.84 0.0168498 2454.36 0.234742 2478.7 0.487143C2503.05 0.739492 2543.44 1.13231 2568.46 1.36009C2658.8 2.18238 2682.08 2.48123 2684.1 2.84463C2688.62 3.65662 2708.44 4.3769 2711.44 3.83834C2713.29 3.50647 2715.44 3.62497 2716.55 4.11937C2717.97 4.7574 2719.07 4.70251 2720.88 3.90309C2722.21 3.31388 2723.32 3.15318 2723.34 3.546C2723.36 3.99676 2738.57 4.22834 2764.56 4.17389C2805.64 4.08773 2875.83 5.24062 2875.83 6.00165C2875.83 6.22228 2884.41 6.3666 2894.89 6.32251C2912.85 6.24684 2954.22 7.22422 2961.55 7.89757C2964.26 8.146 2964.31 8.41298 2961.82 9.28441C2959.31 10.1626 2959.38 10.3051 2962.16 10.0497C2964.04 9.87719 2968.67 9.53899 2972.44 9.29827C2976.67 9.02855 2978.76 8.52592 2977.89 7.98877C2977.1 7.50928 2977.75 7.62006 2979.33 8.2348C2981.65 9.13888 2984.81 9.24976 2995.85 8.81454C3003.62 8.5085 3011.36 8.5654 3013.81 8.94648C3016.19 9.31511 3021.24 9.66041 3025.05 9.7139C3031.43 9.80342 3031.51 9.83679 3026.04 10.1358C3021.45 10.3871 3020.9 10.605 3023.58 11.0989C3027.39 11.7979 3024.19 11.8854 2989.56 12.0311C2977.48 12.0816 2969.27 11.8275 2969.27 11.4021L2969.27 11.402ZM2254.6 4.97846C2253.83 4.39146 2252.2 4.0891 2250.99 4.30646C2247.52 4.92966 2248.42 6.04561 2252.4 6.04561C2254.6 6.04561 2255.46 5.62668 2254.6 4.97846V4.97846ZM2111.19 7.41984C2113.72 6.04643 2113.57 5.89047 2110.09 6.27838C2106.62 6.66533 2106.46 6.50892 2108.96 5.15148L2111.87 3.57532L2114.31 5.16761C2117.12 6.99441 2122.2 7.26003 2124.27 5.68853C2125.05 5.09931 2124.8 4.61724 2123.72 4.61724C2122.63 4.61724 2121.74 4.13124 2121.74 3.53716C2121.74 2.65904 2123.97 2.54267 2133.63 2.91498C2141.75 3.22777 2145.51 3.11743 2145.51 2.56676C2145.51 2.11891 2149.4 1.76051 2154.27 1.76051C2160 1.76051 2162.44 2.03103 2161.35 2.54595C2160.16 3.10434 2161.17 3.09961 2164.83 2.52953C2169.12 1.86319 2169.75 1.91152 2168.56 2.81535C2167.77 3.41361 2166.13 3.90313 2164.92 3.90313C2163.71 3.90313 2162.73 4.22451 2162.73 4.61727C2162.73 6.10603 2167.17 5.24558 2170.1 3.1889C2173.52 0.790307 2173.61 0.777122 2179.78 1.73528C2182.89 2.21863 2183.85 2.97333 2183 4.26457C2182.33 5.2768 2182.75 6.01135 2183.94 5.89678C2185.12 5.78229 2186.64 6.00258 2187.32 6.38655C2188.04 6.7994 2182.2 7.134 2173.01 7.20569C2158.81 7.31642 2157.24 7.17981 2154.79 5.61498C2152.14 3.9277 2143.05 3.18779 2143.05 4.65942C2143.05 5.07549 2144.15 5.21943 2145.49 4.97947C2146.86 4.73318 2147.3 5.00665 2146.51 5.60639C2145.69 6.2277 2143.49 6.48959 2141.22 6.23629C2138.69 5.95463 2137.94 6.08804 2139.06 6.61762C2141.04 7.54723 2132.87 8.23364 2123.38 7.93468C2120 7.82821 2115.22 8.02666 2112.75 8.37577C2108.72 8.94457 2108.56 8.84534 2111.19 7.41988V7.41984ZM2178.46 4.7363C2179.15 4.40897 2178.16 4.14116 2176.25 4.14116C2174.34 4.14116 2173.35 4.40897 2174.05 4.7363C2174.74 5.06362 2175.73 5.33146 2176.25 5.33146C2176.77 5.33146 2177.76 5.06362 2178.46 4.7363ZM2078.06 7.55519C2077.32 7.20702 2078.92 6.75477 2081.62 6.55005C2084.88 6.30212 2086.02 5.79799 2085.02 5.0405C2084.19 4.41492 2084.55 3.90307 2085.83 3.90307C2089.2 3.90307 2088.65 6.23603 2085.03 7.28699C2081.36 8.35298 2079.88 8.40995 2078.06 7.55519ZM2093.14 5.56952C2093.84 5.04575 2094.72 4.61724 2095.1 4.61724C2095.49 4.61724 2096.37 5.04575 2097.07 5.56952C2097.76 6.09328 2096.88 6.5218 2095.1 6.5218C2093.33 6.5218 2092.45 6.09328 2093.14 5.56952ZM2102.63 3.56868C2105.25 2.99198 2109.82 2.5099 2112.79 2.49739C2118.65 2.47217 2122.39 3.55567 2118.72 4.2153C2117.46 4.44125 2116 4.25695 2115.48 3.8051C2114.78 3.1881 2113.24 3.18691 2109.29 3.79865C2101.73 4.97359 2096.98 4.80802 2102.63 3.56669V3.56868ZM2069.95 3.47153C2070.77 3.23421 2072.89 3.20882 2074.66 3.41525C2076.63 3.64321 2076.04 3.81246 2073.18 3.84669C2070.59 3.87761 2069.13 3.70892 2069.95 3.47161V3.47153ZM2199.61 3.1888C2196.46 2.59718 2196.55 2.49486 2200.23 2.48551C2202.59 2.47904 2204.53 2.79596 2204.53 3.1888C2204.53 4.05986 2204.25 4.05986 2199.61 3.1888ZM2186.41 2.10103C2185.23 1.21348 2185.86 1.15234 2189.83 1.76903C2195.53 2.65506 2196.07 3.1888 2191.27 3.1888C2189.38 3.1888 2187.2 2.69927 2186.41 2.10103V2.10103Z" fill="#FBC94A"/>
</svg>
