<svg width="512" height="512" viewBox="0 0 512 512" fill="none" xmlns="http://www.w3.org/2000/svg">
<path d="M160 320H172V336C172 344.84 179.16 352 188 352H228C236.84 352 244 344.84 244 336V320H256C273.67 320 288 305.67 288 288V64C288 46.33 273.67 32 256 32V16C256 7.16 248.84 0 240 0H176C167.16 0 160 7.16 160 16V32C142.33 32 128 46.33 128 64V288C128 305.67 142.33 320 160 320ZM464 448H462.71C493.24 413.99 512 369.2 512 320C512 214.12 425.88 128 320 128V192C390.58 192 448 249.42 448 320C448 390.58 390.58 448 320 448H48C21.49 448 0 469.49 0 496C0 504.84 7.16 512 16 512H496C504.84 512 512 504.84 512 496C512 469.49 490.51 448 464 448ZM104 416H312C316.42 416 320 412.42 320 408V392C320 387.58 316.42 384 312 384H104C99.58 384 96 387.58 96 392V408C96 412.42 99.58 416 104 416Z" fill="white"/>
</svg>
