<svg width="21" height="14" viewBox="0 0 21 14" fill="none" xmlns="http://www.w3.org/2000/svg">
<path d="M20.339 0.718179C20.549 0.762179 20.697 0.94418 20.697 1.15418C20.697 8.40718 12.087 9.95218 10.087 10.2132V13.5412C10.087 13.7052 9.997 13.8552 9.852 13.9342C9.705 14.0102 9.531 13.9992 9.396 13.9102L0.194 7.71618C0.0730002 7.63418 0 7.49818 0 7.34718C0 7.20018 0.0730002 7.06318 0.194 6.98118L9.391 0.788178C9.528 0.698178 9.704 0.68818 9.848 0.76518C9.994 0.84318 10.084 0.994179 10.084 1.15918V4.73918C11.531 4.73018 12.729 4.66618 13.726 4.54618C18.511 3.97918 19.79 1.10618 19.842 0.98318C19.913 0.81818 20.075 0.71218 20.252 0.71218C20.282 0.71018 20.312 0.712179 20.339 0.718179Z" fill="white"/>
</svg>
