<svg width="100" height="101" viewBox="0 0 100 101" fill="none" xmlns="http://www.w3.org/2000/svg">
<path d="M85.0223 14.6741C75.6696 5.2991 63.2143 0.142853 49.9777 0.142853C22.6562 0.142853 0.424107 22.375 0.424107 49.6964C0.424107 58.4241 2.70089 66.9509 7.03125 74.4732L0 100.143L26.2723 93.2455C33.5045 97.1964 41.6518 99.2723 49.9554 99.2723H49.9777C77.2768 99.2723 100 77.0402 100 49.7187C100 36.4821 94.375 24.0491 85.0223 14.6741ZM49.9777 90.9241C42.567 90.9241 35.3125 88.9375 28.9955 85.1875L27.5 84.2946L11.9196 88.3794L16.0714 73.1786L15.0893 71.6161C10.9598 65.0536 8.79464 57.4866 8.79464 49.6964C8.79464 26.9955 27.2768 8.51339 50 8.51339C61.0045 8.51339 71.3393 12.7991 79.1071 20.5893C86.875 28.3795 91.6518 38.7143 91.6295 49.7187C91.6295 72.442 72.6786 90.9241 49.9777 90.9241ZM72.567 60.0759C71.3393 59.4509 65.2455 56.4598 64.1071 56.058C62.9688 55.6339 62.1429 55.433 61.317 56.683C60.4911 57.933 58.125 60.7009 57.3884 61.5491C56.6741 62.375 55.9375 62.4866 54.7098 61.8616C47.433 58.2232 42.6562 55.3661 37.8571 47.1295C36.5848 44.942 39.1295 45.0982 41.4955 40.3661C41.8973 39.5402 41.6964 38.8259 41.3839 38.2009C41.0714 37.5759 38.5938 31.4821 37.567 29.0045C36.5625 26.5937 35.5357 26.9286 34.7768 26.8839C34.0625 26.8393 33.2366 26.8393 32.4107 26.8393C31.5848 26.8393 30.2455 27.1518 29.1071 28.3795C27.9687 29.6295 24.7768 32.6205 24.7768 38.7143C24.7768 44.808 29.2188 50.7009 29.8214 51.5268C30.4464 52.3527 38.5491 64.8527 50.9821 70.2321C58.8393 73.625 61.9196 73.9152 65.8482 73.3348C68.2366 72.9777 73.1696 70.3437 74.1964 67.442C75.2232 64.5402 75.2232 62.0625 74.9107 61.5491C74.6205 60.9911 73.7946 60.6786 72.567 60.0759Z" fill="white"/>
</svg>
